<?xml version="1.0" encoding="UTF-8"?>
<svg version="1.1" xmlns="http://www.w3.org/2000/svg" width="512" height="512">
<path d="M0 0 C1.3496003 -0.00187215 2.69920006 -0.00417445 4.04879898 -0.00686532 C7.72891758 -0.01293999 11.40901331 -0.01285488 15.08913577 -0.01167095 C19.06955918 -0.01146583 23.04997547 -0.01699627 27.03039551 -0.02172852 C34.81879265 -0.03001219 42.60718222 -0.03278234 50.3955834 -0.03334089 C56.73193358 -0.03381721 63.06828127 -0.03587773 69.40463066 -0.03904152 C87.39916967 -0.04784245 105.39370274 -0.05246186 123.38824392 -0.05171105 C124.35703001 -0.05167109 125.3258161 -0.05163113 126.32395935 -0.05158997 C127.29393889 -0.05154909 128.26391843 -0.0515082 129.26329129 -0.05146609 C144.97056792 -0.05105994 160.67782055 -0.06062295 176.38509024 -0.07472833 C192.54244441 -0.0891225 208.69978689 -0.09599682 224.85714763 -0.09513456 C233.91643885 -0.0948036 242.9757049 -0.09750599 252.03499031 -0.10831261 C259.75050071 -0.11745779 267.46597455 -0.11956014 275.18148804 -0.11280318 C279.11081205 -0.10955792 283.04006607 -0.10940827 286.96938324 -0.11815643 C318.44130815 -0.18361147 348.02388321 0.15948231 371.66648865 23.42668152 C372.55078552 24.32000183 373.4350824 25.21332214 374.34617615 26.13371277 C375.08609802 26.85172058 375.8260199 27.56972839 376.58836365 28.30949402 C393.41137139 45.68890474 396.68229006 69.6258713 396.60014343 92.78190613 C396.60245584 94.17849609 396.60563752 95.57508484 396.60959792 96.9716711 C396.61784766 100.7583977 396.6138661 104.54502182 396.60762548 108.33174849 C396.60306119 112.43543109 396.61010428 116.53909726 396.61558533 120.64277649 C396.6244389 128.66177311 396.62257541 136.68073211 396.61676005 144.69973016 C396.61222759 151.22190676 396.61163748 157.74407288 396.61380768 164.26625061 C396.61411414 165.1975353 396.61442061 166.12882 396.61473636 167.08832544 C396.61537587 168.9807152 396.6160243 170.87310495 396.61668155 172.7654947 C396.62237302 190.47500308 396.61584556 208.18449068 396.60508081 225.89399564 C396.59614638 241.06147685 396.59769876 256.22892743 396.60691833 271.39640808 C396.61764192 289.0462383 396.6218238 306.69605035 396.61569381 324.34588337 C396.61505677 326.23098055 396.61442802 328.11607774 396.61380768 330.00117493 C396.61349913 330.928473 396.61319058 331.85577107 396.61287268 332.81116909 C396.61115199 339.31906857 396.61404727 345.82695644 396.61876678 352.33485413 C396.62439887 360.27501452 396.6228105 368.2151354 396.6122053 376.15529132 C396.60697976 380.19983895 396.60483809 384.24432093 396.6115036 388.28886795 C396.61753048 392.00229437 396.61407889 395.71559523 396.6035485 399.42901051 C396.60031014 401.38483809 396.60672464 403.34067462 396.61366296 405.29649258 C396.51046502 429.02832765 391.14794389 451.06458302 374.0922699 468.41886902 C373.18605896 469.31476746 372.27984802 470.21066589 371.34617615 471.13371277 C370.24982849 472.24552917 370.24982849 472.24552917 369.1313324 473.37980652 C346.2148743 495.27206537 315.34982931 494.44530051 285.70841873 494.39516211 C281.70359567 494.39059203 277.69878933 494.39764367 273.69396973 494.40312195 C265.87095975 494.41196924 258.04798837 494.41011494 250.22497695 494.40429667 C243.86205381 494.39976202 237.49914141 494.39917503 231.13621712 494.4013443 C230.2272708 494.40165077 229.31832449 494.40195723 228.38183435 494.40227298 C226.53478212 494.4029125 224.6877299 494.40356092 222.84067769 494.40421817 C205.56132218 494.40990771 188.28198797 494.40338506 171.00263596 494.39261743 C156.20527347 494.38368167 141.40794237 494.38523686 126.61058044 494.39445496 C109.38740557 494.40517935 92.16424931 494.4093601 74.94107157 494.40323043 C73.10148752 494.40259339 71.26190347 494.40196465 69.42231941 494.4013443 C68.51742921 494.40103575 67.61253901 494.4007272 66.68022789 494.4004093 C60.33111473 494.39868897 53.98201346 494.40158308 47.63290215 494.40630341 C39.88673398 494.41193634 32.14060631 494.41034531 24.39444273 494.39974192 C20.44912565 494.39451773 16.50387586 494.39237236 12.55855942 494.39904022 C-19.3023973 494.44840748 -45.99727643 492.80151935 -70.34132385 469.75871277 C-89.175052 450.13105697 -92.81972014 426.16590536 -92.78753662 400.12512207 C-92.78940922 398.74919723 -92.7917117 397.37327292 -92.79440194 395.99734944 C-92.80047083 392.24915025 -92.8003922 388.50097352 -92.79920757 384.75277054 C-92.79900231 380.69740024 -92.80453419 376.64203692 -92.80926514 372.58666992 C-92.81754518 364.65369621 -92.82031877 356.72072993 -92.82087751 348.78775225 C-92.82135392 342.33461725 -92.82341488 335.88148468 -92.82657814 329.42835045 C-92.8353774 311.10262877 -92.83999864 292.77691294 -92.83924767 274.45118914 C-92.83920771 273.46478375 -92.83916775 272.47837837 -92.83912659 271.46208191 C-92.83908571 270.47446187 -92.83904483 269.48684183 -92.83900271 268.46929391 C-92.83859642 252.4704118 -92.84816356 236.47155323 -92.86226495 220.47267792 C-92.87665469 204.01584367 -92.88353371 187.55902088 -92.88267118 171.10218018 C-92.88234011 161.87470293 -92.8850475 152.64725038 -92.89584923 143.41977882 C-92.90498847 135.56263078 -92.9071015 127.70551863 -92.9003398 119.84836755 C-92.89709183 115.84625137 -92.89695498 111.84420392 -92.90569305 107.84209442 C-92.9681616 77.26113837 -92.44500233 49.12364079 -70.65382385 25.13371277 C-70.11370667 24.50078308 -69.57358948 23.86785339 -69.0171051 23.21574402 C-51.37116215 3.7918723 -24.79501886 -0.03116913 0 0 Z " fill="#ECECEC" transform="translate(103.65382385253906,7.8662872314453125)"/>
<path d="M0 0 C1.3496003 -0.00187215 2.69920006 -0.00417445 4.04879898 -0.00686532 C7.72891758 -0.01293999 11.40901331 -0.01285488 15.08913577 -0.01167095 C19.06955918 -0.01146583 23.04997547 -0.01699627 27.03039551 -0.02172852 C34.81879265 -0.03001219 42.60718222 -0.03278234 50.3955834 -0.03334089 C56.73193358 -0.03381721 63.06828127 -0.03587773 69.40463066 -0.03904152 C87.39916967 -0.04784245 105.39370274 -0.05246186 123.38824392 -0.05171105 C124.35703001 -0.05167109 125.3258161 -0.05163113 126.32395935 -0.05158997 C127.29393889 -0.05154909 128.26391843 -0.0515082 129.26329129 -0.05146609 C144.97056792 -0.05105994 160.67782055 -0.06062295 176.38509024 -0.07472833 C192.54244441 -0.0891225 208.69978689 -0.09599682 224.85714763 -0.09513456 C233.91643885 -0.0948036 242.9757049 -0.09750599 252.03499031 -0.10831261 C259.75050071 -0.11745779 267.46597455 -0.11956014 275.18148804 -0.11280318 C279.11081205 -0.10955792 283.04006607 -0.10940827 286.96938324 -0.11815643 C318.44130815 -0.18361147 348.02388321 0.15948231 371.66648865 23.42668152 C372.55078552 24.32000183 373.4350824 25.21332214 374.34617615 26.13371277 C375.08609802 26.85172058 375.8260199 27.56972839 376.58836365 28.30949402 C393.41137139 45.68890474 396.68229006 69.6258713 396.60014343 92.78190613 C396.60245584 94.17849609 396.60563752 95.57508484 396.60959792 96.9716711 C396.61784766 100.7583977 396.6138661 104.54502182 396.60762548 108.33174849 C396.60306119 112.43543109 396.61010428 116.53909726 396.61558533 120.64277649 C396.6244389 128.66177311 396.62257541 136.68073211 396.61676005 144.69973016 C396.61222759 151.22190676 396.61163748 157.74407288 396.61380768 164.26625061 C396.61411414 165.1975353 396.61442061 166.12882 396.61473636 167.08832544 C396.61537587 168.9807152 396.6160243 170.87310495 396.61668155 172.7654947 C396.62237302 190.47500308 396.61584556 208.18449068 396.60508081 225.89399564 C396.59614638 241.06147685 396.59769876 256.22892743 396.60691833 271.39640808 C396.61764192 289.0462383 396.6218238 306.69605035 396.61569381 324.34588337 C396.61505677 326.23098055 396.61442802 328.11607774 396.61380768 330.00117493 C396.61349913 330.928473 396.61319058 331.85577107 396.61287268 332.81116909 C396.61115199 339.31906857 396.61404727 345.82695644 396.61876678 352.33485413 C396.62439887 360.27501452 396.6228105 368.2151354 396.6122053 376.15529132 C396.60697976 380.19983895 396.60483809 384.24432093 396.6115036 388.28886795 C396.61753048 392.00229437 396.61407889 395.71559523 396.6035485 399.42901051 C396.60031014 401.38483809 396.60672464 403.34067462 396.61366296 405.29649258 C396.51046502 429.02832765 391.14794389 451.06458302 374.0922699 468.41886902 C373.18605896 469.31476746 372.27984802 470.21066589 371.34617615 471.13371277 C370.24982849 472.24552917 370.24982849 472.24552917 369.1313324 473.37980652 C346.2148743 495.27206537 315.34982931 494.44530051 285.70841873 494.39516211 C281.70359567 494.39059203 277.69878933 494.39764367 273.69396973 494.40312195 C265.87095975 494.41196924 258.04798837 494.41011494 250.22497695 494.40429667 C243.86205381 494.39976202 237.49914141 494.39917503 231.13621712 494.4013443 C230.2272708 494.40165077 229.31832449 494.40195723 228.38183435 494.40227298 C226.53478212 494.4029125 224.6877299 494.40356092 222.84067769 494.40421817 C205.56132218 494.40990771 188.28198797 494.40338506 171.00263596 494.39261743 C156.20527347 494.38368167 141.40794237 494.38523686 126.61058044 494.39445496 C109.38740557 494.40517935 92.16424931 494.4093601 74.94107157 494.40323043 C73.10148752 494.40259339 71.26190347 494.40196465 69.42231941 494.4013443 C68.51742921 494.40103575 67.61253901 494.4007272 66.68022789 494.4004093 C60.33111473 494.39868897 53.98201346 494.40158308 47.63290215 494.40630341 C39.88673398 494.41193634 32.14060631 494.41034531 24.39444273 494.39974192 C20.44912565 494.39451773 16.50387586 494.39237236 12.55855942 494.39904022 C-19.3023973 494.44840748 -45.99727643 492.80151935 -70.34132385 469.75871277 C-89.175052 450.13105697 -92.81972014 426.16590536 -92.78753662 400.12512207 C-92.78940922 398.74919723 -92.7917117 397.37327292 -92.79440194 395.99734944 C-92.80047083 392.24915025 -92.8003922 388.50097352 -92.79920757 384.75277054 C-92.79900231 380.69740024 -92.80453419 376.64203692 -92.80926514 372.58666992 C-92.81754518 364.65369621 -92.82031877 356.72072993 -92.82087751 348.78775225 C-92.82135392 342.33461725 -92.82341488 335.88148468 -92.82657814 329.42835045 C-92.8353774 311.10262877 -92.83999864 292.77691294 -92.83924767 274.45118914 C-92.83920771 273.46478375 -92.83916775 272.47837837 -92.83912659 271.46208191 C-92.83908571 270.47446187 -92.83904483 269.48684183 -92.83900271 268.46929391 C-92.83859642 252.4704118 -92.84816356 236.47155323 -92.86226495 220.47267792 C-92.87665469 204.01584367 -92.88353371 187.55902088 -92.88267118 171.10218018 C-92.88234011 161.87470293 -92.8850475 152.64725038 -92.89584923 143.41977882 C-92.90498847 135.56263078 -92.9071015 127.70551863 -92.9003398 119.84836755 C-92.89709183 115.84625137 -92.89695498 111.84420392 -92.90569305 107.84209442 C-92.9681616 77.26113837 -92.44500233 49.12364079 -70.65382385 25.13371277 C-70.11370667 24.50078308 -69.57358948 23.86785339 -69.0171051 23.21574402 C-51.37116215 3.7918723 -24.79501886 -0.03116913 0 0 Z M-15.52882385 44.57121277 C-21.65341669 52.83363518 -23.77226003 61.6365959 -23.78804493 71.80990219 C-23.79039716 72.45878804 -23.79274939 73.10767389 -23.7951729 73.77622294 C-23.80182255 75.94754762 -23.80140591 78.1188119 -23.80099487 80.29014587 C-23.80429599 81.86387194 -23.80802208 83.43759716 -23.81213635 85.01132131 C-23.82213583 89.33386156 -23.82586982 93.65638793 -23.82852566 97.9789381 C-23.83243467 102.64165014 -23.84201241 107.30435124 -23.85073853 111.96705627 C-23.87048335 123.22461584 -23.88056542 134.48217629 -23.88946632 145.73974884 C-23.89385139 151.04220569 -23.89921753 156.34466155 -23.90445518 161.64711761 C-23.92146345 179.27415128 -23.93595843 196.90118433 -23.94320393 214.52822495 C-23.94511378 219.10049694 -23.94703412 223.67276892 -23.94898987 228.24504089 C-23.94947361 229.38143962 -23.94995735 230.51783835 -23.95045575 231.68867341 C-23.95875918 250.10470125 -23.9841032 268.52066421 -24.01657055 286.93666372 C-24.04963676 305.84653077 -24.06765219 324.75636484 -24.07084817 343.66626096 C-24.07301337 354.28253535 -24.08176399 364.89871503 -24.10730934 375.51496124 C-24.1290101 384.55421851 -24.1370697 393.59335806 -24.12734256 402.63263842 C-24.12279643 407.24351774 -24.12470243 411.85415412 -24.144104 416.46500015 C-24.16172556 420.68932138 -24.16074623 424.91322225 -24.14520671 429.13754788 C-24.14282915 430.66244054 -24.14716196 432.18736222 -24.15903536 433.71221051 C-24.24683968 445.73719583 -22.62337858 455.18819933 -14.02882385 464.08293152 C-6.05971287 470.96415399 1.71495333 472.90109002 12.09617615 472.57292175 C18.95851402 472.06568268 24.92876947 469.2446243 31.09617615 466.38371277 C32.42415232 465.79653981 33.75353176 465.21253147 35.08421326 464.6315155 C38.50299043 463.1317903 41.90690129 461.60144173 45.30656433 460.0589447 C50.55166777 457.67960116 55.80782925 455.32660123 61.08042908 453.00883484 C62.87365576 452.21177868 64.65550359 451.38927809 66.43699646 450.56632996 C67.52206482 450.08454285 68.60713318 449.60275574 69.7250824 449.10636902 C71.14156067 448.46066956 71.14156067 448.46066956 72.58665466 447.80192566 C77.79043204 446.54184084 82.24051497 449.45579534 86.85398865 451.71574402 C87.90973083 452.22951599 88.96547302 452.74328796 90.0532074 453.27262878 C91.18113708 453.8249115 92.30906677 454.37719421 93.47117615 454.94621277 C95.88974532 456.11956982 98.30881243 457.29180789 100.72898865 458.46183777 C101.66173615 458.91303734 101.66173615 458.91303734 102.61332703 459.37335205 C108.90360843 462.41154848 115.21623129 465.40090154 121.54631042 468.35523987 C123.29644049 469.17297418 125.04424531 469.99567923 126.79197693 470.81852722 C144.38677381 479.12703898 144.38677381 479.12703898 163.12767029 477.34928894 C170.60675784 474.52456187 177.66775659 470.69453669 184.78367615 467.07121277 C186.49711263 466.20601721 188.21081809 465.34135414 189.92478943 464.47721863 C199.9155957 459.43045118 209.87802304 454.33012264 219.74461365 449.04386902 C220.33726013 448.73336609 220.92990662 448.42286316 221.54051208 448.10295105 C222.83636625 447.40736681 224.11402193 446.67746995 225.37840271 445.92619324 C226.06128357 445.53963562 226.74416443 445.153078 227.44773865 444.75480652 C228.05182556 444.39701111 228.65591248 444.0392157 229.27830505 443.670578 C234.25177541 442.37935471 239.62787941 446.15144023 243.9672699 448.32902527 C244.89346886 448.79226448 244.89346886 448.79226448 245.83837891 449.26486206 C247.8222204 450.25873769 249.8029867 451.25857244 251.78367615 452.25871277 C253.14491336 452.94208073 254.5062417 453.62526723 255.86766052 454.30827332 C263.82946212 458.31144288 271.74153236 462.38995831 279.53367615 466.71574402 C288.2624919 471.11652196 298.97859513 471.9392041 308.43211365 469.25871277 C318.03993154 464.76521025 323.28916037 457.72302279 327.34617615 448.13371277 C328.45302342 444.81317095 328.47266443 442.35372613 328.4748106 438.85510826 C328.47744016 437.89158751 328.47744016 437.89158751 328.48012283 436.9086017 C328.48480003 434.7414605 328.48231292 432.57438589 328.47988892 430.40724182 C328.48175604 428.84364219 328.48405634 427.28004303 328.48675424 425.71644461 C328.49289114 421.40799483 328.49273642 417.09956439 328.49155986 412.79111123 C328.49135633 408.1488186 328.4968702 403.50653227 328.50161743 398.86424255 C328.50993551 389.76363644 328.51267282 380.6630368 328.51322981 371.56242721 C328.51370454 364.16507225 328.51575713 356.76771943 328.51893044 349.37036514 C328.5277411 328.40541867 328.53234931 307.44047733 328.53159996 286.475529 C328.53156001 285.3445314 328.53152005 284.2135338 328.53147888 283.04826355 C328.531438 281.91588723 328.53139712 280.78351092 328.531355 279.61682017 C328.53094868 261.27108008 328.54051357 242.92536052 328.55461725 224.57962637 C328.56897878 205.75008984 328.57588752 186.92056333 328.57502347 168.09102118 C328.57469137 157.5166847 328.57744423 146.94236973 328.58820152 136.36803818 C328.5973037 127.36273754 328.59948418 118.35746816 328.5926921 109.35216491 C328.58942513 104.75770266 328.58937655 100.1633004 328.59804535 95.56884384 C328.60590371 91.36059414 328.60448567 87.15245206 328.59576122 82.944205 C328.59422474 81.4239557 328.59604797 79.9036984 328.60162129 78.38345854 C328.65634615 62.39354923 325.93902931 49.55492536 314.40867615 37.63371277 C302.97821053 26.96412534 291.83440869 23.98027166 276.44842529 23.99327087 C275.34850083 23.99029975 274.24857637 23.98732863 273.11532086 23.98426747 C269.4283489 23.97559347 265.74140946 23.97407332 262.0544281 23.97257996 C259.41132454 23.96795087 256.76822391 23.96294649 254.12512207 23.95753479 C246.94315134 23.94397385 239.7611862 23.93793027 232.5792048 23.93352413 C228.0915002 23.93075797 223.60379774 23.92651994 219.11609459 23.92201996 C206.68154314 23.9098303 194.2469934 23.89953033 181.8124361 23.89614487 C180.61952041 23.89581552 180.61952041 23.89581552 179.40250541 23.89547952 C178.6053681 23.89526124 177.8082308 23.89504296 176.98693782 23.89481807 C175.37173927 23.89437461 173.75654071 23.89392804 172.14134216 23.89347839 C171.3401546 23.89325696 170.53896703 23.89303553 169.71350106 23.89280739 C156.73650264 23.88886084 143.75956041 23.87140982 130.78258369 23.84811887 C117.44706205 23.82437836 104.11156858 23.81194179 90.77602547 23.81077695 C83.29355728 23.80986172 75.81116233 23.80414769 68.32871437 23.78595734 C61.95637216 23.77051987 55.58412585 23.76545732 49.21176849 23.77369544 C45.96377896 23.77758909 42.71602169 23.77508705 39.4680481 23.76263809 C35.93814918 23.74990463 32.4087411 23.75580354 28.87884521 23.76622009 C27.35721212 23.75413549 27.35721212 23.75413549 25.80483896 23.74180675 C8.20618026 23.86277287 -4.42865054 31.16543601 -15.52882385 44.57121277 Z " fill="#ECECEC" transform="translate(103.65382385253906,7.8662872314453125)"/>
<path d="M0 0 C0.94553846 -0.00322445 1.89107691 -0.00644889 2.86526805 -0.00977105 C4.41107036 -0.00744815 4.41107036 -0.00744815 5.98810101 -0.00507832 C7.08928774 -0.00734387 8.19047448 -0.00960943 9.32503051 -0.01194364 C13.0221134 -0.01828359 16.71915963 -0.01745427 20.41624737 -0.01662922 C23.06407083 -0.01962071 25.7118914 -0.02299485 28.35971355 -0.02680683 C34.81005517 -0.03511025 41.26038765 -0.03786154 47.71073417 -0.03841921 C52.95463649 -0.03889453 58.1985358 -0.0409501 63.44243717 -0.04411983 C78.31350532 -0.05292571 93.18456626 -0.05753934 108.05563704 -0.05678936 C109.25797704 -0.05672943 109.25797704 -0.05672943 110.48460674 -0.05666828 C111.28714674 -0.0566274 112.08968674 -0.05658652 112.91654613 -0.0565444 C125.92148741 -0.05613799 138.92639972 -0.06570644 151.93133263 -0.07980665 C165.28827819 -0.09417411 178.64520963 -0.10107662 192.00216311 -0.10021287 C199.49962251 -0.09988102 206.99705154 -0.10262287 214.49450397 -0.11339092 C220.87828809 -0.1225008 227.26202808 -0.12466718 233.64581589 -0.1178815 C236.90148071 -0.1146187 240.15704341 -0.11563998 243.41270351 -0.12323475 C246.94580557 -0.13094287 250.47868543 -0.12631744 254.01178265 -0.11860371 C255.54754671 -0.12631905 255.54754671 -0.12631905 257.11433631 -0.13419026 C269.90976716 -0.07246807 280.41002241 3.89780831 290.19041729 12.12863445 C290.77565166 12.58367352 291.36088604 13.03871258 291.96385479 13.5075407 C296.42554048 17.37366201 298.93926611 21.99187374 301.56541729 27.19113445 C301.91153057 27.87611004 302.25764385 28.56108562 302.61424541 29.26681805 C305.56671095 35.3921486 306.31400696 40.9578068 306.32463837 47.77358913 C306.3269906 48.41909824 306.32934283 49.06460734 306.33176634 49.72967732 C306.33841553 51.88951528 306.33799936 54.04929252 306.33758831 56.20913982 C306.34088945 57.77461629 306.34461555 59.34009191 306.34872979 60.90556645 C306.35872894 65.20530357 306.3624632 69.50502672 306.3651191 73.80477381 C306.3690282 78.44294577 306.37860593 83.08110673 306.38733196 87.71927166 C306.4070765 98.91750551 306.41715882 110.11574024 306.42605975 121.31398714 C306.43044487 126.58855045 306.435811 131.86311276 306.44104862 137.13767529 C306.45805686 154.67206266 306.47255183 172.20644942 306.47979736 189.74084377 C306.48170722 194.28905265 306.48362756 198.83726153 306.48558331 203.38547039 C306.48606705 204.51588789 306.48655079 205.64630539 306.48704918 206.81097797 C306.49535259 225.13000808 306.52069657 243.44897296 306.55316398 261.76797459 C306.58623053 280.57840056 306.60424565 299.38879336 306.6074416 318.19924855 C306.60960678 328.7596318 306.61835693 339.31991985 306.64390278 349.88027477 C306.66560399 358.87195507 306.67366292 367.86351701 306.663936 376.85522053 C306.65939 381.44179713 306.66129509 386.02812952 306.68069744 390.61467266 C306.69831995 394.81678954 306.6973389 399.01848386 306.68180015 403.22060516 C306.67942273 404.73742253 306.68375466 406.25426909 306.6956288 407.77104184 C306.78941648 420.54671681 304.74745976 429.57528175 295.65135479 438.9216032 C289.1907076 444.71567568 283.35815448 446.55430392 274.81541729 446.75363445 C273.80898174 446.78868084 273.80898174 446.78868084 272.78221416 446.82443523 C260.36938336 446.63251468 248.31678269 438.24866637 237.56541729 432.62863445 C236.11513606 431.87426739 234.66461623 431.12035884 233.21385479 430.3669157 C232.50682415 429.99937176 231.79979351 429.63182781 231.0713377 429.25314617 C229.67994832 428.53135966 228.28751018 427.81159081 226.89396954 427.09396648 C223.95095717 425.57682212 221.03644359 424.04172419 218.15233135 422.4137907 C213.38492482 419.66927567 213.38492482 419.66927567 208.05760479 419.55832195 C207.11143291 420.07652508 206.16526104 420.5947282 205.19041729 421.12863445 C204.30338116 421.57384441 204.30338116 421.57384441 203.3984251 422.02804852 C201.34673939 423.06262414 199.33211814 424.15251811 197.31541729 425.25363445 C195.78101943 426.07796434 194.24584689 426.90085368 192.70994854 427.72238445 C191.56066875 428.33726727 191.56066875 428.33726727 190.3881712 428.96457195 C186.67232679 430.93270638 182.91350611 432.80913008 179.14403057 434.67257977 C175.0085825 436.71789889 170.88714362 438.78819524 166.77725506 440.88452435 C164.09425994 442.25181855 161.40789167 443.61241468 158.72127056 444.97256756 C157.37967978 445.65369497 156.03949801 446.33760562 154.70082378 447.02444744 C134.03164862 457.62248374 134.03164862 457.62248374 122.89329815 454.48068523 C115.130659 451.65167515 107.7060936 448.22384307 100.25557232 444.67126751 C98.0243703 443.60909385 95.78871468 442.5568078 93.55198956 441.50632 C86.55312056 438.21040889 79.59751737 434.85794089 72.72557354 431.3044157 C71.04068829 430.44783367 71.04068829 430.44783367 69.32176495 429.57394695 C67.24970396 428.5146331 65.18970501 427.43125317 63.14500713 426.3200407 C62.22026592 425.85082195 61.29552471 425.3816032 60.34276104 424.8981657 C59.55893047 424.48155682 58.77509991 424.06494793 57.9675169 423.63571453 C53.58461872 422.83542622 50.24151506 424.4868076 46.19041729 426.12863445 C45.3408395 426.47107693 44.49126171 426.8135194 43.61593914 427.16633892 C40.80139201 428.32796744 38.00284867 429.52260022 35.20604229 430.7262907 C34.18742107 431.16122341 33.16879986 431.59615612 32.11931133 432.04426861 C28.89157508 433.42322263 25.66593953 434.80701062 22.44041729 436.19113445 C19.20017341 437.57778168 15.95950692 438.96343605 12.71867657 440.34871197 C10.70932707 441.20800869 8.70039724 442.06828757 6.69194317 442.9296751 C5.78039471 443.320256 4.86884624 443.71083691 3.9296751 444.11325359 C3.13297405 444.45506161 2.336273 444.79686962 1.5154295 445.14903545 C0.74817547 445.47230312 -0.01907856 445.79557079 -0.80958271 446.12863445 C-1.65877277 446.49182278 -2.50796284 446.8550111 -3.38288593 447.22920513 C-10.04146082 449.69713501 -18.49813539 449.11943155 -25.24317646 447.1012907 C-34.89220594 442.66396632 -41.10892999 436.05198634 -44.94651246 426.21819317 C-46.65660613 420.09651904 -46.35025956 413.78859527 -46.30405903 407.48445415 C-46.3072396 405.90655976 -46.31217115 404.3286681 -46.31869185 402.75078398 C-46.33146585 398.43521759 -46.31942427 394.12002899 -46.30316329 389.80448759 C-46.28996732 385.14254082 -46.29991534 380.48063486 -46.30692768 375.81868267 C-46.31699576 366.6942507 -46.30574861 357.56996405 -46.28722708 348.44555014 C-46.26642921 337.81655854 -46.26660025 327.18759812 -46.26757224 316.55859 C-46.26857289 297.59256833 -46.25026622 278.62661418 -46.2212038 259.66061687 C-46.19302621 241.26249238 -46.17886249 222.8644273 -46.18018818 204.46628094 C-46.18026809 203.33296449 -46.180348 202.19964804 -46.18043034 201.03198867 C-46.18051105 199.9006193 -46.18059176 198.76924992 -46.18067491 197.60359663 C-46.18205519 176.64898016 -46.17027162 155.69438891 -46.15236848 134.73978062 C-46.14634 127.33298455 -46.14420986 119.92619312 -46.14330387 112.51939487 C-46.14193848 103.49229462 -46.13299347 94.46523686 -46.11463825 85.43815463 C-46.10541534 80.83352448 -46.09930647 76.2289486 -46.10182667 71.62430859 C-46.1040229 67.40707454 -46.09694256 63.18996038 -46.08252962 58.97275133 C-46.07891486 57.4493513 -46.07863075 55.92593886 -46.0820642 54.40253841 C-46.11427951 38.32535299 -43.54981008 26.39125794 -32.19239521 14.4528532 C-23.14986136 5.63267675 -12.91711668 0.01117884 0 0 Z M-12.27951908 40.00586319 C-15.12642694 45.85022995 -14.34388663 52.75276973 -14.29060078 59.09297466 C-14.29234595 60.63344467 -14.29584988 62.17391351 -14.30095744 63.71437603 C-14.30989184 67.94009872 -14.29391506 72.16541506 -14.2738452 76.39108598 C-14.25656239 80.95065081 -14.26241749 85.51019294 -14.26545429 90.0697813 C-14.26755113 97.96711876 -14.25500705 105.86432396 -14.23250294 113.76162815 C-14.19998706 125.17976514 -14.18957634 136.59783822 -14.18455097 148.01601649 C-14.17579768 166.54146641 -14.14918114 185.06684585 -14.11134052 203.5922575 C-14.07462134 221.5873711 -14.04630911 239.58246556 -14.02930927 257.57760906 C-14.02825838 258.68693235 -14.02720748 259.79625564 -14.02612475 260.93919479 C-14.02090457 266.50437474 -14.01584975 272.06955482 -14.01087713 277.63473499 C-13.96941403 323.79941696 -13.89896463 369.96402207 -13.80958271 416.12863445 C-11.75801719 415.34687128 -9.70716117 414.56324604 -7.65659809 413.77885723 C-6.51445032 413.34267983 -5.37230255 412.90650244 -4.19554424 412.45710754 C0.67808439 410.54495218 5.44156138 408.41501242 10.21385479 406.2653532 C12.24443691 405.36865695 14.27570878 404.47352132 16.30760479 403.57980633 C19.44248014 402.20001964 22.57272654 400.81282166 25.69237041 399.39889812 C50.76092242 388.0640838 50.76092242 388.0640838 64.18822002 392.00949383 C67.2903937 393.22238158 70.21418187 394.63340534 73.19041729 396.12863445 C74.44847666 396.7171701 75.70886975 397.30073506 76.97117901 397.8800993 C80.468888 399.48817176 83.95144364 401.12619411 87.43004131 402.77514935 C89.6689909 403.83558824 91.91039014 404.89069879 94.15233135 405.94479656 C100.75206918 409.05219423 107.33665762 412.18017709 113.86619854 415.43332195 C114.82534161 415.90681072 115.78448467 416.38029949 116.77269268 416.86813641 C118.49614767 417.72284516 120.21334968 418.59033461 121.92259502 419.47311687 C122.67613262 419.84541424 123.42967022 420.2177116 124.20604229 420.6012907 C124.83800518 420.92363689 125.46996807 421.24598309 126.12108135 421.57809734 C131.23600453 422.93889864 135.73749104 420.60010427 140.23338604 418.3200407 C141.95343853 417.45415325 141.95343853 417.45415325 143.70823956 416.57077312 C144.93157776 415.94444618 146.15480125 415.31789515 147.37791729 414.69113445 C148.64317167 414.05034492 149.90871798 413.41013151 151.17454815 412.77048016 C158.99090494 408.81039047 166.75132315 404.74782977 174.48411846 400.62716961 C200.17617176 387.02198862 200.17617176 387.02198862 209.19041729 386.81613445 C210.24229229 386.77875164 211.29416729 386.74136883 212.37791729 386.7028532 C223.61948684 387.95831538 233.91689938 394.29020531 243.87108135 399.32834148 C246.44576638 400.63134153 249.02467912 401.92564071 251.60447979 403.2184782 C253.26358511 404.05261425 254.92244787 404.88723299 256.58104229 405.72238445 C257.34160931 406.1047929 258.10217632 406.48720135 258.88579082 406.88119793 C262.34992006 408.63622325 265.75484675 410.43651392 269.10350323 412.40402508 C271.89208194 414.29121062 271.89208194 414.29121062 274.19041729 414.12863445 C274.30483817 367.12902769 274.39295373 320.12943565 274.44574394 273.12971708 C274.45199754 267.58215546 274.45846915 262.03459411 274.46507549 256.48703289 C274.46638705 255.38260391 274.4676986 254.27817493 274.46904989 253.1402784 C274.490812 235.25276159 274.530238 217.36532504 274.57618127 199.47785586 C274.62292344 181.12642086 274.65070796 162.77502792 274.66085976 144.42353582 C274.66772355 133.09780934 274.68940948 121.77230973 274.72999962 110.44665307 C274.7564103 102.68235102 274.76442206 94.91816643 274.75792418 87.15382272 C274.75471869 82.67278635 274.7596647 78.19214669 274.78644466 73.71118069 C274.81079048 69.60754682 274.81199656 65.50457614 274.79491176 61.40091163 C274.79280049 59.91758944 274.79913231 58.43422573 274.8148332 56.95098513 C275.03596625 46.66660006 275.03596625 46.66660006 270.70517564 37.6458506 C265.65039075 32.58286398 261.34030746 31.67139496 254.4144426 31.58899873 C253.4130791 31.5972395 252.41171559 31.60548027 251.38000774 31.61397076 C250.30161347 31.60702523 249.2232192 31.6000797 248.11214632 31.5929237 C244.50399215 31.57464921 240.89649513 31.58491979 237.28831768 31.59518719 C234.69930816 31.58812899 232.11030276 31.5793844 229.52130413 31.5690794 C223.2222512 31.54746096 216.92337908 31.54756072 210.62430126 31.55570494 C205.5034281 31.56201035 200.38260758 31.56086297 195.26173496 31.55443287 C194.16757923 31.55308039 194.16757923 31.55308039 193.05131934 31.55170058 C191.56936792 31.54984934 190.0874165 31.54798678 188.60546511 31.54611302 C174.71517022 31.529542 160.82497697 31.53824772 146.9346882 31.5550986 C134.23372424 31.56979423 121.53299688 31.55516796 108.83206338 31.52632844 C95.78239413 31.49691831 82.73283401 31.4859669 69.68313307 31.49551064 C68.20639386 31.49653316 66.72965463 31.49752777 65.25291538 31.49849415 C64.52638088 31.49897054 63.79984638 31.49944693 63.05129569 31.49993775 C57.93882979 31.5020998 52.82646747 31.492309 47.71402454 31.47772312 C40.82826325 31.45835156 33.94294876 31.46530696 27.05720615 31.48992252 C24.53046037 31.49493505 22.00368115 31.49142934 19.47696209 31.47877407 C16.02673804 31.46286075 12.57796594 31.47778076 9.12781048 31.50044537 C8.1286777 31.48860964 7.12954492 31.47677391 6.10013539 31.46457952 C-2.06870332 31.57354707 -6.9481957 33.79540488 -12.27951908 40.00586319 Z " fill="#0081FC" transform="translate(125.80958271026611,31.871365547180176)"/>
<path d="M0 0 C0.69167936 -0.00367669 1.38335871 -0.00735338 2.09599805 -0.01114148 C4.42511044 -0.02219774 6.75417825 -0.02602544 9.08331299 -0.02983093 C10.74872988 -0.03609414 12.41414538 -0.04274082 14.07955933 -0.04974365 C18.61275217 -0.06716716 23.14593445 -0.0777092 27.67915249 -0.08594918 C30.51046114 -0.09109674 33.34176649 -0.09717259 36.17307281 -0.10346031 C45.0289377 -0.12251661 53.88479423 -0.13674652 62.74067569 -0.14507228 C72.96806497 -0.15484575 83.19523788 -0.18116627 93.42255092 -0.22157317 C101.3241077 -0.25172138 109.22560243 -0.26653994 117.12721562 -0.26985329 C121.8480585 -0.27220537 126.56867035 -0.28118602 131.2894516 -0.30631447 C135.73164837 -0.32957744 140.17346171 -0.33383564 144.61570358 -0.32355309 C146.24510599 -0.32305717 147.87452716 -0.32939402 149.50387192 -0.34310913 C151.73106803 -0.36080587 153.95688478 -0.35373432 156.18408203 -0.34057617 C158.05234713 -0.3441587 158.05234713 -0.3441587 159.95835495 -0.34781361 C165.17329278 0.41416343 168.23346066 2.88427911 171.6585083 6.77217102 C174.96699604 11.42856117 174.96683453 15.54248979 174.3460083 21.14717102 C171.85266327 26.13386109 168.35249881 29.64392576 163.3460083 32.14717102 C161.12986688 32.2502997 158.91054319 32.28672081 156.6920166 32.29434204 C156.00033725 32.29801873 155.30865789 32.30169542 154.59601855 32.30548352 C152.26690616 32.31653978 149.93783835 32.32036748 147.60870361 32.32417297 C145.94328672 32.33043619 144.27787123 32.33708286 142.61245728 32.34408569 C138.07926444 32.3615092 133.54608215 32.37205124 129.01286411 32.38029122 C126.18155547 32.38543878 123.35025011 32.39151463 120.51894379 32.39780235 C111.6630789 32.41685865 102.80722237 32.43108856 93.95134091 32.43941432 C83.72395163 32.44918779 73.49677872 32.47550831 63.26946568 32.51591522 C55.3679089 32.54606342 47.46641417 32.56088199 39.56480098 32.56419533 C34.8439581 32.56654741 30.12334626 32.57552806 25.402565 32.60065651 C20.96036823 32.62391948 16.51855489 32.62817768 12.07631302 32.61789513 C10.44691061 32.61739921 8.81748945 32.62373606 7.18814468 32.63745117 C4.96094858 32.65514791 2.73513182 32.64807636 0.50793457 32.63491821 C-0.73757549 32.63730657 -1.98308556 32.63969492 -3.26633835 32.64215565 C-8.48127618 31.88017861 -11.54144406 29.41006293 -14.9664917 25.52217102 C-18.27497943 20.86578087 -18.27481793 16.75185225 -17.6539917 11.14717102 C-13.70323416 3.24565594 -8.54154207 0.02934249 0 0 Z " fill="#0081FC" transform="translate(177.65399169921875,207.8528289794922)"/>
<path d="M0 0 C0.69167936 -0.00367669 1.38335871 -0.00735338 2.09599805 -0.01114148 C4.42511044 -0.02219774 6.75417825 -0.02602544 9.08331299 -0.02983093 C10.74872988 -0.03609414 12.41414538 -0.04274082 14.07955933 -0.04974365 C18.61275217 -0.06716716 23.14593445 -0.0777092 27.67915249 -0.08594918 C30.51046114 -0.09109674 33.34176649 -0.09717259 36.17307281 -0.10346031 C45.0289377 -0.12251661 53.88479423 -0.13674652 62.74067569 -0.14507228 C72.96806497 -0.15484575 83.19523788 -0.18116627 93.42255092 -0.22157317 C101.3241077 -0.25172138 109.22560243 -0.26653994 117.12721562 -0.26985329 C121.8480585 -0.27220537 126.56867035 -0.28118602 131.2894516 -0.30631447 C135.73164837 -0.32957744 140.17346171 -0.33383564 144.61570358 -0.32355309 C146.24510599 -0.32305717 147.87452716 -0.32939402 149.50387192 -0.34310913 C151.73106803 -0.36080587 153.95688478 -0.35373432 156.18408203 -0.34057617 C158.05234713 -0.3441587 158.05234713 -0.3441587 159.95835495 -0.34781361 C165.17329278 0.41416343 168.23346066 2.88427911 171.6585083 6.77217102 C174.96699604 11.42856117 174.96683453 15.54248979 174.3460083 21.14717102 C171.85266327 26.13386109 168.35249881 29.64392576 163.3460083 32.14717102 C161.12986688 32.2502997 158.91054319 32.28672081 156.6920166 32.29434204 C156.00033725 32.29801873 155.30865789 32.30169542 154.59601855 32.30548352 C152.26690616 32.31653978 149.93783835 32.32036748 147.60870361 32.32417297 C145.94328672 32.33043619 144.27787123 32.33708286 142.61245728 32.34408569 C138.07926444 32.3615092 133.54608215 32.37205124 129.01286411 32.38029122 C126.18155547 32.38543878 123.35025011 32.39151463 120.51894379 32.39780235 C111.6630789 32.41685865 102.80722237 32.43108856 93.95134091 32.43941432 C83.72395163 32.44918779 73.49677872 32.47550831 63.26946568 32.51591522 C55.3679089 32.54606342 47.46641417 32.56088199 39.56480098 32.56419533 C34.8439581 32.56654741 30.12334626 32.57552806 25.402565 32.60065651 C20.96036823 32.62391948 16.51855489 32.62817768 12.07631302 32.61789513 C10.44691061 32.61739921 8.81748945 32.62373606 7.18814468 32.63745117 C4.96094858 32.65514791 2.73513182 32.64807636 0.50793457 32.63491821 C-0.73757549 32.63730657 -1.98308556 32.63969492 -3.26633835 32.64215565 C-8.48127618 31.88017861 -11.54144406 29.41006293 -14.9664917 25.52217102 C-18.27497943 20.86578087 -18.27481793 16.75185225 -17.6539917 11.14717102 C-13.70323416 3.24565594 -8.54154207 0.02934249 0 0 Z " fill="#0081FC" transform="translate(177.65399169921875,127.85282897949219)"/>
<path d="M0 0 C1.44901703 -0.0098568 1.44901703 -0.0098568 2.92730713 -0.01991272 C6.13415601 -0.03967357 9.34095798 -0.05131485 12.54785156 -0.0612793 C14.18875134 -0.06739259 14.18875134 -0.06739259 15.8628006 -0.07362938 C21.65332349 -0.09450252 27.4438226 -0.10879857 33.234375 -0.11816406 C39.21780774 -0.12922795 45.20086852 -0.16362438 51.18416977 -0.20333576 C55.78241673 -0.22947378 60.38057474 -0.23785344 64.97888947 -0.24144554 C67.18449667 -0.24631917 69.3900997 -0.25795513 71.59563446 -0.27648354 C74.68384807 -0.30081334 77.77109502 -0.29992088 80.859375 -0.29296875 C81.76973511 -0.30577881 82.68009521 -0.31858887 83.61804199 -0.33178711 C89.14618434 -0.28645453 92.30862128 0.48180611 96.68847656 4.17700195 C101.0874076 9.17038313 102.04523994 12.08715423 101.96972656 18.63793945 C101.41863971 23.61302908 98.68149956 26.30219598 95.06347656 29.48950195 C90.58183336 32.67382738 86.72122984 32.33835783 81.37695312 32.35400391 C79.9279361 32.3638607 79.9279361 32.3638607 78.449646 32.37391663 C75.24279712 32.39367747 72.03599514 32.40531876 68.82910156 32.4152832 C67.18820179 32.42139649 67.18820179 32.42139649 65.51415253 32.42763329 C59.72362963 32.44850643 53.93313053 32.46280247 48.14257812 32.47216797 C42.15914539 32.48323186 36.1760846 32.51762829 30.19278336 32.55733967 C25.59453639 32.58347768 20.99637838 32.59185735 16.39806366 32.59544945 C14.19245646 32.60032307 11.98685343 32.61195904 9.78131866 32.63048744 C6.69310505 32.65481724 3.6058581 32.65392479 0.51757812 32.64697266 C-0.39278198 32.65978271 -1.30314209 32.67259277 -2.24108887 32.68579102 C-7.76923122 32.64045843 -10.93166815 31.87219779 -15.31152344 28.17700195 C-19.71045447 23.18362078 -20.66828681 20.26684968 -20.59277344 13.71606445 C-20.04168659 8.74097482 -17.30454643 6.05180792 -13.68652344 2.86450195 C-9.20488024 -0.31982348 -5.34427672 0.01564607 0 0 Z " fill="#0181FA" transform="translate(180.3115234375,287.822998046875)"/>
</svg>
