<?xml version="1.0" encoding="UTF-8"?>
<svg version="1.1" xmlns="http://www.w3.org/2000/svg" width="2141" height="512">
<path d="M0 0 C1.12572678 -0.0060911 2.25145356 -0.01218221 3.41129327 -0.01845789 C7.16185265 -0.03503055 10.9120704 -0.0303201 14.66265869 -0.0255127 C17.36060743 -0.03285639 20.0585311 -0.04135152 22.75646973 -0.05117798 C29.31176423 -0.07217257 35.86697018 -0.07677625 42.42229435 -0.07499009 C47.75470787 -0.07367933 53.08709391 -0.07750259 58.41950226 -0.08491516 C59.95907855 -0.0870145 61.49865484 -0.0891121 63.03823113 -0.09120798 C63.80467495 -0.09225151 64.57111876 -0.09329504 65.36078814 -0.09437019 C79.83783507 -0.11324882 94.31483127 -0.1122298 108.79188541 -0.10540086 C122.01238463 -0.0998284 135.23268989 -0.12064236 148.45314381 -0.15376133 C162.05211388 -0.18756208 175.65099122 -0.20265865 189.25000405 -0.1980443 C196.87507191 -0.19580589 204.49996057 -0.20095016 212.12499237 -0.22593689 C218.61762026 -0.24703288 225.10997071 -0.2504605 231.60261032 -0.2316373 C234.90995265 -0.22252935 238.21635939 -0.22393386 241.52372742 -0.24199295 C260.65215936 -0.3391932 275.26072243 0.52874703 289.56207275 14.49206543 C297.72822894 23.09840475 302.65070255 33.23166277 302.67649078 45.23491192 C302.68059605 45.88941754 302.68470132 46.54392316 302.68893099 47.21826228 C302.70020435 49.40276193 302.69736493 51.58700671 302.69451904 53.77153015 C302.69969015 55.3570703 302.70571754 56.94260784 302.71252584 58.5281418 C302.72862749 62.87877813 302.73224283 67.22934841 302.73372078 71.58001101 C302.73742855 76.27479414 302.7525265 80.96954325 302.76599121 85.66430664 C302.79313076 95.92676252 302.80520282 106.18920274 302.81401253 116.45168853 C302.81954148 122.86158246 302.8280169 129.27147038 302.83702087 135.68136024 C302.86140177 153.43453053 302.88200187 171.18769601 302.88877106 188.94088268 C302.88942976 190.64453129 302.88942976 190.64453129 302.89010176 192.38259705 C302.89053832 193.52104981 302.89097487 194.65950257 302.89142466 195.83245391 C302.89231158 198.13931986 302.89320471 200.44618581 302.894104 202.75305176 C302.89476829 204.46947243 302.89476829 204.46947243 302.895446 206.22056828 C302.90334179 224.76132026 302.93825123 243.30191502 302.98482305 261.84260627 C303.03227053 280.88586106 303.05717565 299.92903699 303.05950689 318.97235185 C303.06133918 329.66138005 303.07281302 340.35020334 303.10914612 351.03917503 C303.1399757 360.1409769 303.15017291 369.24251049 303.13366991 378.34435465 C303.12586664 382.9859779 303.12766683 387.62706114 303.15578461 392.26861763 C303.18132313 396.52340348 303.17881711 400.77724528 303.15460318 405.03203038 C303.15069941 406.56568095 303.1567994 408.09939908 303.17429191 409.63295486 C303.29031991 420.49878539 301.70511927 429.59504258 294.13818598 437.88825864 C286.46399411 445.23092687 278.80615567 447.37281185 268.4019165 447.72253418 C259.16693907 446.70849744 251.13593901 442.52247308 242.97613525 438.33190918 C241.84466064 437.7598877 240.71318604 437.18786621 239.54742432 436.59851074 C234.23754225 433.90383182 228.95451688 431.16491777 223.706604 428.35144043 C222.84800781 427.89197021 221.98941162 427.4325 221.10479736 426.95910645 C219.52399468 426.10775906 217.94764024 425.248078 216.37677002 424.37854004 C215.6722168 423.99705811 214.96766357 423.61557617 214.24176025 423.22253418 C213.64266846 422.89156738 213.04357666 422.56060059 212.42633057 422.21960449 C208.97597662 420.80497611 206.14341716 419.81677648 202.46551514 421.04495239 C200.16054811 422.10518004 197.93514533 423.26310282 195.70269775 424.46862793 C194.8652301 424.90421021 194.02776245 425.33979248 193.16491699 425.78857422 C190.44834996 427.20530788 187.74386481 428.6436651 185.03863525 430.08190918 C183.17906916 431.05483373 181.31855085 432.02594042 179.45709229 432.99523926 C175.78356794 434.90957627 172.11363429 436.83049797 168.44683838 438.75769043 C162.09105011 442.0935981 155.70219696 445.35849942 149.28863525 448.58190918 C147.89958984 449.29190063 147.89958984 449.29190063 146.48248291 450.01623535 C136.94764687 454.81256324 127.24398561 457.59998751 116.61920166 454.6072998 C106.09922854 450.48210248 96.03371953 445.46783353 85.91363525 440.45690918 C84.10791708 439.56638468 82.30192888 438.67640748 80.4956665 437.7869873 C79.61451172 437.35308685 78.73335693 436.9191864 77.82550049 436.47213745 C74.44679266 434.81198467 71.06351271 433.16125589 67.68023682 431.51043701 C65.60548174 430.48887043 63.54368923 429.44532505 61.48394775 428.3939209 C60.35730713 427.83591797 59.2306665 427.27791504 58.06988525 426.70300293 C57.12951416 426.22532471 56.18914307 425.74764648 55.22027588 425.25549316 C47.72005276 422.95440697 40.63528548 427.21983244 33.89019775 430.23425293 C32.78944916 430.71640762 31.68870056 431.19856232 30.55459595 431.69532776 C27.04562258 433.23270046 23.54163825 434.78098518 20.03863525 436.33190918 C15.43070786 438.3712284 10.81816619 440.39956897 6.20269775 442.42175293 C5.15554596 442.88951645 4.10839417 443.35727997 3.0295105 443.83921814 C-7.81993026 448.59179597 -17.43181407 451.21979428 -29.03167725 447.42956543 C-38.07121759 443.76675474 -43.9230687 437.88495857 -48.14316136 429.18497676 C-49.66758375 425.5675253 -49.96319728 422.47178344 -49.96668148 418.5226717 C-49.97367136 417.53584815 -49.97367136 417.53584815 -49.98080245 416.52908877 C-49.99271722 414.33297334 -49.9833711 412.13748065 -49.9740448 409.94136047 C-49.9782193 408.34756984 -49.98369745 406.75378218 -49.99036461 405.16000003 C-50.0048233 400.78651446 -50.00057313 396.41321727 -49.9931978 392.03972137 C-49.98846935 387.32039804 -50.00097329 382.60111565 -50.01121521 377.88180542 C-50.02841626 368.63767923 -50.02924032 359.39362098 -50.02400231 350.14948294 C-50.01996095 342.63401298 -50.02140377 335.1185631 -50.02675056 327.6030941 C-50.02749899 326.53344241 -50.02824741 325.46379071 -50.02901851 324.36172533 C-50.03055 322.18868583 -50.03208834 320.01564635 -50.03363348 317.84260686 C-50.04736385 297.46026915 -50.04191759 277.0779698 -50.03044827 256.69563296 C-50.02052061 238.05791751 -50.03344753 219.4203014 -50.05738246 200.78260127 C-50.08178037 181.63990132 -50.09137929 162.49724761 -50.08472973 143.35453242 C-50.08123837 132.60967063 -50.08346382 121.8648852 -50.10098076 111.12003517 C-50.11571158 101.97068728 -50.11632689 92.82146949 -50.09890985 83.67212413 C-50.09040378 79.00631844 -50.08824058 74.34074506 -50.1035614 69.67495155 C-50.11743071 65.3981237 -50.11261664 61.12172666 -50.09332217 56.84492358 C-50.08956863 55.30320801 -50.0924654 53.76145775 -50.10293382 52.21977315 C-50.20406573 36.17676199 -46.25676073 24.48210603 -35.27386475 12.64440918 C-25.16324596 3.07543068 -13.61202511 -0.07005622 0 0 Z M-13.52386475 38.14440918 C-16.93668207 43.52218194 -17.83676292 48.68628117 -17.8324604 54.98731899 C-17.8364425 56.27966251 -17.8404246 57.57200602 -17.84452736 58.90351146 C-17.8388223 60.32531839 -17.83293113 61.74712458 -17.82687378 63.16893005 C-17.82774639 64.6887739 -17.82949839 66.20861746 -17.83205211 67.72845942 C-17.83651874 71.89706024 -17.82853137 76.06555806 -17.81849599 80.23414576 C-17.80985393 84.73236053 -17.81278219 89.23056955 -17.81430054 93.72879028 C-17.81534891 101.51968193 -17.80907729 109.31054005 -17.79782486 117.10142326 C-17.78156637 128.36570917 -17.77636149 139.62997888 -17.77384888 150.89427526 C-17.76947232 169.17012661 -17.75616429 187.4459601 -17.73724365 205.72180176 C-17.71888383 223.47440502 -17.70472782 241.22700342 -17.69622803 258.97961426 C-17.69570258 260.07400257 -17.69517713 261.16839088 -17.69463576 262.29594248 C-17.69202568 267.78620216 -17.68949826 273.27646187 -17.68701196 278.76672161 C-17.6662807 324.3092965 -17.63105624 369.85185192 -17.58636475 415.39440918 C-16.14002161 414.91646773 -14.69403289 414.43745365 -13.24819565 413.95798397 C-12.44292301 413.69134754 -11.63765037 413.42471111 -10.80797553 413.14999479 C-8.46097267 412.35176244 -6.18591494 411.45997221 -3.91546631 410.46496582 C-3.1172345 410.11772964 -2.31900269 409.77049347 -1.49658203 409.41273499 C-0.66511658 409.04703903 0.16634888 408.68134308 1.02301025 408.30456543 C2.84845962 407.51208308 4.67398279 406.71977072 6.49957275 405.9276123 C9.32850534 404.69490811 12.15646153 403.46005188 14.98297119 402.22180176 C48.19279687 387.69467644 48.19279687 387.69467644 62.34136963 392.35974121 C65.34985907 393.61259581 68.24919681 394.99886992 71.16363525 396.45690918 C72.24765625 396.97696533 73.33167725 397.49702148 74.44854736 398.03283691 C77.45416675 399.48003389 80.44914258 400.94584369 83.44042969 402.42224121 C88.47697163 404.90366779 93.5278073 407.35600926 98.57672119 409.81213379 C101.45872034 411.21439682 104.33505367 412.6273938 107.20758057 414.0489502 C108.54835257 414.70717036 109.88917078 415.3652964 111.2300415 416.02331543 C112.39994629 416.60154053 113.56985107 417.17976563 114.77520752 417.7755127 C115.97588867 418.30974854 117.17656982 418.84398437 118.41363525 419.39440918 C119.10627975 419.7339563 119.79892426 420.07350342 120.51255798 420.42333984 C123.82061375 421.83926899 126.21988055 422.67737718 129.78581238 421.83210754 C132.41428714 420.71436612 134.86770653 419.43299387 137.362854 418.04284668 C138.76372002 417.30984848 138.76372002 417.30984848 140.19288635 416.56204224 C143.17805022 414.99231548 146.13921692 413.38249539 149.10113525 411.76940918 C151.04039495 410.73794669 152.98114165 409.70927484 154.92340088 408.68347168 C158.80446952 406.63084892 162.67996964 404.56821739 166.55255127 402.49963379 C172.47739727 399.34842908 178.43438221 396.2654958 184.42144775 393.23425293 C185.32034225 392.77267792 186.21923676 392.31110291 187.14537048 391.83554077 C197.82320842 386.47082197 206.75361748 385.41376443 218.41363525 388.39440918 C222.53055312 390.01637507 226.42737554 391.9906405 230.3550415 394.02331543 C231.98928322 394.84786476 231.98928322 394.84786476 233.65653992 395.68907166 C237.10326275 397.43187108 240.53968092 399.19396351 243.97613525 400.95690918 C246.31727485 402.14505413 248.65906612 403.33191596 251.00152588 404.51745605 C256.12341537 407.1126878 261.23889596 409.72006902 266.34895325 412.33851624 C267.70077786 413.02984888 269.05558647 413.71538479 270.41363525 414.39440918 C270.48229723 367.92137998 270.53516194 321.44835614 270.56683124 274.97528622 C270.57058338 269.48909861 270.57446634 264.0029111 270.57843018 258.51672363 C270.57921711 257.42451942 270.58000404 256.33231521 270.58081482 255.2070139 C270.59386983 237.52066207 270.61752421 219.83433949 270.64509364 202.14800502 C270.67314517 184.00109424 270.68981098 165.85419879 270.69590074 147.70726722 C270.7000177 136.50905079 270.71302231 125.31091702 270.73738465 114.11272603 C270.7532387 106.43440082 270.75803635 98.75611837 270.75413939 91.07777799 C270.75221734 86.64734836 270.75517027 82.21706321 270.77125168 77.78665924 C270.78587555 73.72813414 270.78657152 69.66985038 270.77633194 65.61131405 C270.77506682 64.14547908 270.77885132 62.67962891 270.7882848 61.21382374 C271.12003049 48.82124626 271.12003049 48.82124626 266.1386773 37.82034498 C259.77415189 31.93737924 252.04111713 32.10203194 243.91366577 32.13371277 C242.86864549 32.12988722 241.8236252 32.12606167 240.74693763 32.1221202 C237.25183357 32.11181697 233.75689461 32.11577732 230.26177979 32.11975098 C227.75321297 32.11540303 225.24464749 32.1102196 222.73608398 32.10426331 C216.63324872 32.0922615 210.53047413 32.08972086 204.42762937 32.09206357 C199.46553044 32.09384852 194.50344484 32.0920933 189.5413475 32.08783913 C188.83440196 32.08724394 188.12745642 32.08664875 187.39908829 32.08603552 C185.9627986 32.08482374 184.52650892 32.0836096 183.09021924 32.08239315 C169.62817201 32.07152299 156.16614983 32.07367758 142.70410119 32.07977799 C130.39832832 32.08494634 118.09263462 32.07369297 105.78687741 32.05467977 C93.14063607 32.03529083 80.49443218 32.02704725 67.84817588 32.03080302 C60.75255914 32.03271351 53.65700978 32.03024242 46.56140518 32.01608849 C39.88831834 32.00291171 33.21541548 32.00544903 26.54232025 32.01849937 C24.09500703 32.02086593 21.64768268 32.01812767 19.20038223 32.00987625 C15.85592838 31.99941418 12.51200686 32.00750573 9.16757202 32.02018738 C8.20247967 32.01281309 7.23738732 32.00543881 6.24304974 31.99784106 C-0.80415671 32.05393638 -8.50348449 32.64636156 -13.52386475 38.14440918 Z " fill="#007FF8" transform="translate(129.58636474609375,31.6055908203125)"/>
<path d="M0 0 C0.70463379 0.20898926 1.40926758 0.41797852 2.13525391 0.63330078 C18.14693695 5.59629053 31.26735378 14.14586189 43 26 C43.72703125 26.70511719 44.4540625 27.41023438 45.203125 28.13671875 C59.03860262 42.43519463 68 65.18192929 68 85 C49.19 85 30.38 85 11 85 C9.35 79.72 7.7 74.44 6 69 C-0.21586767 58.36130342 -8.09543583 51.51167085 -20 48 C-34.2602201 44.30439366 -48.87936408 45.7044747 -61.94140625 52.5390625 C-75.44313887 60.58499296 -82.89467482 73.42245957 -86.92895508 88.390625 C-93.11846966 113.30319833 -92.17346524 143.44959083 -78.6875 165.875 C-71.10273897 176.92800647 -61.19911814 184.32285661 -48 187.4375 C-34.65154793 189.37237335 -19.46459286 188.55313112 -7.8125 181.0625 C2.71662692 173.04600564 6.74977884 164.75066349 11 152 C29.81 152 48.62 152 68 152 C65.45788512 177.42114878 53.47155241 199.38723068 34 216 C16.36097245 230.00746305 -6.41063668 238.50821415 -29 239 C-30.14597656 239.05027344 -31.29195312 239.10054687 -32.47265625 239.15234375 C-63.91050163 239.93907662 -92.3933103 230.50861801 -115.45776367 208.92553711 C-139.92692735 185.31629971 -148.36732904 151.46029662 -148.97998047 118.42871094 C-149.26550283 83.78997354 -139.44666771 50.49198861 -115.265625 25.07421875 C-103.1919265 13.28401869 -88.1978904 4.66532594 -72 0 C-70.9476416 -0.31106689 -70.9476416 -0.31106689 -69.87402344 -0.62841797 C-48.07219551 -6.7653366 -21.67790514 -6.45735362 0 0 Z " fill="#525761" transform="translate(1216,124)"/>
<path d="M0 0 C13.99673691 -0.09409436 27.99342367 -0.16402674 41.99041367 -0.20724869 C48.49176859 -0.22800677 54.99290907 -0.25610627 61.49414062 -0.30175781 C67.78359292 -0.34563924 74.07284066 -0.36922534 80.36243439 -0.37950897 C82.7462714 -0.38682516 85.1300989 -0.40110855 87.51384735 -0.42292023 C116.63837489 -0.67849631 140.84902459 3.72247914 162.6875 24.125 C170.774452 32.45456056 176.50433241 42.93882961 180 54 C180.29777344 54.91652344 180.59554687 55.83304688 180.90234375 56.77734375 C186.90719397 79.16408949 184.24356317 104.15592893 173.1328125 124.40625 C161.81807526 143.97879638 144.11511119 154.00256391 123 160 C108.43163928 163.85406368 93.18619328 163.12465164 78.25 163.0625 C71.2375 163.041875 64.225 163.02125 57 163 C57 187.42 57 211.84 57 237 C47.780625 237.020625 38.56125 237.04125 29.0625 237.0625 C26.14801025 237.071604 23.23352051 237.08070801 20.23071289 237.09008789 C17.93636115 237.09300681 15.64200889 237.09555543 13.34765625 237.09765625 C12.14363159 237.10277222 10.93960693 237.10788818 9.69909668 237.11315918 C8.5622644 237.11328003 7.42543213 237.11340088 6.25415039 237.11352539 C5.26153702 237.115746 4.26892365 237.11796661 3.24623108 237.12025452 C1 237 1 237 0 236 C-0.09801911 232.96597636 -0.12991072 229.95470393 -0.12025452 226.92027283 C-0.12110894 225.95570005 -0.12196337 224.99112726 -0.12284368 223.997325 C-0.12450142 220.73900229 -0.11897233 217.48073014 -0.11352539 214.22241211 C-0.11324356 211.89717103 -0.11340118 209.57192987 -0.1139679 207.24668884 C-0.11425602 200.9122316 -0.10835695 194.57779312 -0.10139394 188.24334025 C-0.09579342 182.30072885 -0.09477212 176.35811821 -0.09374207 170.41550452 C-0.09155124 158.64182693 -0.08489033 146.86815626 -0.07543945 135.09448242 C-0.06626612 123.65470413 -0.0591849 112.21492771 -0.05493164 100.77514648 C-0.05466892 100.07047825 -0.05440619 99.36581002 -0.05413551 98.6397882 C-0.05283051 95.10481803 -0.05156679 91.56984785 -0.05032361 88.03487766 C-0.03995004 58.68991398 -0.02225678 29.34495706 0 0 Z M57 46 C57 69.76 57 93.52 57 118 C88.35886916 119.92168459 88.35886916 119.92168459 115.8046875 107.37109375 C123.63204635 98.97907469 125.4942106 89.01353315 125.27734375 77.8984375 C124.65138388 69.09973391 121.19592187 61.30656333 115 55 C103.35598027 44.99342054 89.79161323 45.60256803 75.3125 45.8125 C69.269375 45.874375 63.22625 45.93625 57 46 Z " fill="#525761" transform="translate(481,123)"/>
<path d="M0 0 C17.82 0 35.64 0 54 0 C54.33 29.7 54.66 59.4 55 90 C56.98 86.37 58.96 82.74 61 79 C69.40664099 67.54173366 81.81966693 59.23657286 96 57 C114.79748029 54.66973385 132.65719664 57.25127853 148 69 C148.61359375 69.44988281 149.2271875 69.89976562 149.859375 70.36328125 C161.80022213 79.74160145 168.35179111 95.3257681 170.27065849 110.08128262 C170.99083133 116.72007861 171.14206929 123.27749523 171.12939453 129.95141602 C171.13202301 131.67757896 171.13202301 131.67757896 171.13470459 133.43861389 C171.13907648 137.21039372 171.13620338 140.98212602 171.1328125 144.75390625 C171.13348646 147.3828075 171.13445726 150.0117087 171.13571167 152.64060974 C171.13752365 158.13191234 171.13515021 163.62320141 171.13037109 169.11450195 C171.12490589 175.46763003 171.1267113 181.82072613 171.1321975 188.17385346 C171.13727175 194.29491703 171.1367491 200.41596638 171.13381577 206.53703117 C171.13314683 209.14028872 171.13397374 211.74354707 171.13629532 214.34680367 C171.13881883 217.96893652 171.13498669 221.59100662 171.12939453 225.21313477 C171.13141876 226.29721619 171.13344299 227.38129761 171.13552856 228.49822998 C171.13270874 229.47802322 171.12988892 230.45781647 171.12698364 231.46730042 C171.1264181 232.75169431 171.1264181 232.75169431 171.12584114 234.06203556 C171 236 171 236 170 237 C168.28134591 237.0935919 166.55884256 237.11744611 164.83764648 237.11352539 C163.73658066 237.11344986 162.63551483 237.11337433 161.50108337 237.11329651 C160.3031868 237.10813522 159.10529022 237.10297394 157.87109375 237.09765625 C156.65172623 237.0962413 155.4323587 237.09482635 154.17604065 237.09336853 C150.2631693 237.08774967 146.35035419 237.07519396 142.4375 237.0625 C139.79231853 237.05748743 137.14713617 237.0529241 134.50195312 237.04882812 C128.00128274 237.03777411 121.50064539 237.02101764 115 237 C114.99761165 236.45445843 114.99522329 235.90891685 114.99276257 235.34684372 C114.93342049 222.02356872 114.85756443 208.70047387 114.76428509 195.37739182 C114.71966568 188.93422459 114.68039092 182.49111938 114.65356445 176.04785156 C114.62744751 169.82316601 114.5869857 163.59872015 114.53681374 157.37418365 C114.5202017 155.00612635 114.50865233 152.63802763 114.50238609 150.26992035 C114.49268334 146.93848374 114.46455016 143.6076526 114.43237305 140.27636719 C114.43380814 139.30963074 114.43524323 138.34289429 114.4367218 137.34686279 C114.31016206 128.0076685 113.07062377 118.04008475 106.8515625 110.6875 C100.41637647 104.82252032 92.58625596 102.61344277 84 103 C76.21474529 104.03606051 69.46623668 106.16596549 64 112 C57.78493965 120.58345931 56.70385211 129.51244523 56.68115234 139.82226562 C56.66608391 141.40409637 56.66608391 141.40409637 56.65071106 143.0178833 C56.61998291 146.48066699 56.60287265 149.94337373 56.5859375 153.40625 C56.56721753 155.81620949 56.5476435 158.22616248 56.5272522 160.6361084 C56.47601272 166.96203779 56.43634311 173.28798841 56.39910889 179.61401367 C56.35196234 187.21332028 56.29039958 194.81252222 56.23126221 202.41174316 C56.14314979 213.94111967 56.07331357 225.47047712 56 237 C37.52 237 19.04 237 0 237 C0 158.79 0 80.58 0 0 Z " fill="#525761" transform="translate(1315,123)"/>
<path d="M0 0 C18.48 0 36.96 0 56 0 C56 40.59 56 81.18 56 123 C60.11262986 118.91385394 60.11262986 118.91385394 63.875 114.609375 C64.62994751 113.68233765 64.62994751 113.68233765 65.40014648 112.73657227 C65.92809814 112.08100342 66.4560498 111.42543457 67 110.75 C67.56468994 110.05253662 68.12937988 109.35507324 68.71118164 108.63647461 C73.26134543 102.98645141 77.66122942 97.22978336 82.03955078 91.44628906 C86.56715519 85.49587918 91.27800274 79.71148438 96.06811523 73.97094727 C96.61024658 73.32053467 97.15237793 72.67012207 97.7109375 72 C98.23001678 71.396185 98.74909607 70.79237 99.28390503 70.17025757 C101.0480089 68.04897778 101.0480089 68.04897778 102.33622742 65.67152405 C104.74334043 61.74716544 106.52425511 59.37586491 111.097229 58.21115112 C114.97857642 57.9581351 118.80167743 57.98618983 122.68359375 58.12109375 C124.10844383 58.13790211 125.5333463 58.15070278 126.95826721 58.15968323 C130.68987309 58.19387752 134.41827276 58.28211776 138.14862061 58.38201904 C141.96257146 58.47446675 145.77704604 58.51527092 149.59179688 58.56054688 C157.06265209 58.65676734 164.53087509 58.81014469 172 59 C169.17283452 63.30565667 166.18040383 67.29601698 162.8125 71.1875 C161.82481661 72.34184574 160.83784661 73.49680223 159.8515625 74.65234375 C159.3659082 75.22065918 158.88025391 75.78897461 158.37988281 76.37451172 C155.70827736 79.52163647 153.11154872 82.72961105 150.50390625 85.9296875 C142.67530023 95.52919504 134.80400142 105.09015662 126.77539062 114.52319336 C123.34534749 118.56400464 120.01919676 122.6789761 116.7265625 126.83203125 C114.52796965 129.5927078 112.27318501 132.3005928 110 135 C111.37847058 138.77751096 113.11605137 141.93429996 115.33203125 145.28515625 C116.03400635 146.35169434 116.73598145 147.41823242 117.45922852 148.51708984 C118.243584 149.69893859 119.02801028 150.88074035 119.8125 152.0625 C120.63705646 153.3117352 121.46118037 154.56125599 122.28491211 155.81103516 C124.1335781 158.61433748 125.98494763 161.4158316 127.83789062 164.21630859 C131.35297126 169.53092189 134.85623218 174.85329452 138.359375 180.17578125 C155.04355522 205.88347427 155.04355522 205.88347427 172.27368164 231.22216797 C174 234 174 234 174 237 C165.89902288 237.51350259 157.80497964 237.90228946 149.691679 238.13986778 C145.92185336 238.25402167 142.1632535 238.40806354 138.39990234 238.65966797 C114.24875792 240.23181927 114.24875792 240.23181927 107.33660889 234.97409058 C102.78353692 229.82170716 99.89948404 223.96164479 97.19451904 217.68383789 C95.63516855 214.18029898 93.71174546 211.21878869 91.5546875 208.05078125 C90.93867676 207.08970459 90.32266602 206.12862793 89.68798828 205.13842773 C88.41858093 203.15978647 87.14868306 201.18145986 85.87841797 199.20336914 C82.68313627 194.22035245 79.50859686 189.22713339 76.390625 184.1953125 C75.55942139 182.85859497 75.55942139 182.85859497 74.71142578 181.49487305 C73.67758026 179.82827842 72.64960528 178.15802327 71.62841797 176.48364258 C70.47182793 174.62184989 69.24345014 172.80493886 68 171 C64.84195165 171 63.69453418 172.58603627 61.44140625 174.73828125 C53.61148597 184.52293619 55.81040483 198.34009458 55.9375 210.1875 C55.958125 219.035625 55.97875 227.88375 56 237 C37.52 237 19.04 237 0 237 C0 158.79 0 80.58 0 0 Z " fill="#525761" transform="translate(1905,123)"/>
<path d="M0 0 C19.47 0 38.94 0 59 0 C60.46050781 5.58808594 61.92101562 11.17617187 63.42578125 16.93359375 C64.37811295 20.57490713 65.33052352 24.21619954 66.28320312 27.85742188 C67.77978827 33.5775261 69.27615413 39.29768669 70.77075195 45.01831055 C77.74400078 71.70693695 84.81744174 98.36692345 92 125 C94.23328129 119.30534741 96.00826258 113.63860221 97.5402832 107.72021484 C97.77492279 106.82779587 98.00956238 105.93537689 98.25131226 105.01591492 C99.02172438 102.08193491 99.78623373 99.14645064 100.55078125 96.2109375 C101.09222791 94.14504742 101.63407981 92.0792635 102.17631531 90.01358032 C103.60295208 84.57488126 105.02474272 79.13492757 106.4453125 73.69464111 C108.70628876 65.03950051 110.97504531 56.38639531 113.24300194 47.73308182 C114.02516515 44.74625698 114.80553333 41.75896835 115.58552551 38.77157593 C116.08083547 36.8781467 116.57617022 34.98472395 117.0715332 33.09130859 C117.27901688 32.29465286 117.48650055 31.49799713 117.70027161 30.67720032 C120.38473496 20.42845774 123.21200814 10.22263683 126 0 C145.47 0 164.94 0 185 0 C182.75005818 10.12473818 182.75005818 10.12473818 181.31445312 14.24536133 C180.99158325 15.18007767 180.66871338 16.11479401 180.33605957 17.07783508 C179.98797241 18.06921982 179.63988525 19.06060455 179.28125 20.08203125 C178.91157104 21.14789963 178.54189209 22.21376801 178.16101074 23.31193542 C176.94529204 26.81374826 175.72262445 30.31309292 174.5 33.8125 C173.64012243 36.28563261 172.78075553 38.75894283 171.921875 41.23242188 C170.15098748 46.33113106 168.37722528 51.42883093 166.6015625 56.52587891 C163.08493303 66.62200052 159.59107599 76.72599047 156.09671021 86.82983398 C154.99479076 90.0150579 153.89195791 93.19996408 152.78881836 96.38476562 C148.44425532 108.92839207 144.10985141 121.47547891 139.78347778 134.02539062 C136.58466287 143.30291651 133.37815032 152.57775857 130.16574097 161.85058594 C128.23205667 167.433509 126.30555278 173.01876106 124.39060974 178.60813904 C123.40453786 181.47965779 122.40964751 184.348051 121.41159058 187.21542358 C120.78648571 189.01968977 120.1723182 190.82773456 119.55883789 192.63598633 C113.07368235 211.15565211 102.82234771 227.31006604 84.98828125 236.5625 C70.971187 242.71902767 57.19083003 244.17264828 42.0625 244.125 C40.83853516 244.12886719 39.61457031 244.13273438 38.35351562 244.13671875 C36.55624023 244.13478516 36.55624023 244.13478516 34.72265625 244.1328125 C33.64765869 244.13168457 32.57266113 244.13055664 31.46508789 244.12939453 C27.29594455 243.97370891 23.14653181 243.46072576 19 243 C19 228.81 19 214.62 19 200 C32.5 200.1875 32.5 200.1875 36.70898438 200.27026367 C43.49834093 200.31580682 48.93357441 200.19247456 55 197 C56.86375197 195.31344407 56.86375197 195.31344407 57.875 193.25 C58.24367188 192.61578125 58.61234375 191.9815625 58.9921875 191.328125 C62.50146847 183.22141393 61.67736158 179.28468624 58.63671875 171.04296875 C58.06933739 169.43090294 58.06933739 169.43090294 57.49049377 167.78627014 C56.24061715 164.24675273 54.96388303 160.71753567 53.6875 157.1875 C52.80800964 154.70944271 51.93075965 152.23058922 51.05566406 149.75097656 C49.70783197 145.93259425 48.35873845 142.11470266 47.00064087 138.29995728 C42.98558451 127.01767006 39.11968677 115.687267 35.29269409 104.3399353 C29.6616587 87.6528406 23.94023829 70.99875456 18.125 54.375 C17.81734711 53.49534576 17.50969421 52.61569153 17.19271851 51.7093811 C15.99225809 48.27726642 14.79162231 44.84521312 13.59080505 41.41322327 C10.81135024 33.4666754 8.04318896 25.5162783 5.29559326 17.55865479 C4.81190402 16.15913334 4.32710497 14.7599949 3.84112549 13.36126709 C3.18411526 11.46972695 2.53138194 9.57670284 1.87890625 7.68359375 C1.5135376 6.62712646 1.14816895 5.57065918 0.77172852 4.48217773 C0 2 0 2 0 0 Z " fill="#525761" transform="translate(865,182)"/>
<path d="M0 0 C10.51301937 9.86936512 16.41186229 23.02112872 16.90190315 37.44376945 C16.93543799 40.65687929 16.93612668 43.8685151 16.92602539 47.08178711 C16.92617142 48.30200562 16.92631744 49.52222412 16.9264679 50.77941895 C16.92589267 54.10743533 16.9208947 57.43538885 16.91389394 60.76339412 C16.90762139 64.24806834 16.90705352 67.73274349 16.90586853 71.21742249 C16.90276669 77.80810889 16.89456881 84.3987786 16.88451904 90.98945767 C16.87332222 98.4961254 16.86783847 106.00279395 16.86282361 113.50946796 C16.8523852 128.94382327 16.83405403 144.3781556 16.8125 159.8125 C-0.6775 159.8125 -18.1675 159.8125 -36.1875 159.8125 C-36.5175 152.5525 -36.8475 145.2925 -37.1875 137.8125 C-38.3425 139.318125 -39.4975 140.82375 -40.6875 142.375 C-51.7524305 156.06616183 -64.97821845 161.74531903 -82.1875 163.8125 C-100.86296837 165.40002506 -118.75940022 160.85108798 -133.1875 148.8125 C-142.37889719 140.26101021 -146.83146461 127.80967704 -147.47265625 115.46875 C-147.94821016 99.40861512 -144.7852251 84.91766879 -133.4765625 72.91015625 C-108.78428215 50.28258876 -70.36961077 53.51540472 -39.1875 52.8125 C-39.31544427 50.2455241 -39.45208824 47.67950636 -39.59375 45.11328125 C-39.62887695 44.39047974 -39.66400391 43.66767822 -39.70019531 42.92297363 C-40.00439441 37.5888424 -40.92889831 33.61202859 -43.1875 28.8125 C-43.5175 27.8225 -43.8475 26.8325 -44.1875 25.8125 C-46.48284258 24.67704438 -46.48284258 24.67704438 -49.1875 23.8125 C-49.89003906 23.4721875 -50.59257813 23.131875 -51.31640625 22.78125 C-59.31940136 20.08091968 -70.45054207 20.38175991 -78.0625 24 C-84.07861704 27.67996163 -85.93646935 31.05940805 -88.1875 37.8125 C-105.6775 37.8125 -123.1675 37.8125 -141.1875 37.8125 C-138.2421094 20.14015641 -132.15255674 5.56794579 -117.1875 -5.1875 C-83.16011409 -26.720769 -31.39648973 -26.56626054 0 0 Z M-55.75732422 86.50219727 C-57.11642581 86.58340754 -58.47581309 86.65998284 -59.83544922 86.73168945 C-76.3627756 87.52010486 -76.3627756 87.52010486 -90.1875 95.8125 C-94.06127717 101.06566369 -95.15450861 106.38965267 -94.1875 112.8125 C-92.39775319 117.98287968 -89.62670876 120.67894088 -85.1875 123.8125 C-76.82982225 127.20780659 -66.946954 127.04915659 -58.375 124.375 C-50.84731209 121.1729238 -44.18108666 115.75282204 -40.5625 108.3125 C-38.13137273 101.15544309 -38.87642241 93.26107998 -39.1875 85.8125 C-44.72542881 85.8125 -50.23082023 86.1633141 -55.75732422 86.50219727 Z " fill="#525761" transform="translate(830.1875,199.1875)"/>
<path d="M0 0 C17.68828653 16.71640265 23.8069193 38.00669301 26.15625 61.5 C26.15625 69.09 26.15625 76.68 26.15625 84.5 C-13.11375 84.5 -52.38375 84.5 -92.84375 84.5 C-88.87798374 103.52516791 -88.87798374 103.52516791 -75.84375 116.5 C-65.61333129 121.62970004 -54.38835847 122.11436342 -43.46875 118.9375 C-37.21306979 116.58222387 -31.60194276 113.0418593 -28.5620575 106.91804504 C-26.84375 104.5 -26.84375 104.5 -24.50886536 103.89872742 C-23.13319649 103.915382 -23.13319649 103.915382 -21.72973633 103.93237305 C-20.68888382 103.9327507 -19.64803131 103.93312836 -18.57563782 103.93351746 C-17.45368515 103.95932388 -16.33173248 103.98513031 -15.17578125 104.01171875 C-14.02583176 104.01879349 -12.87588226 104.02586823 -11.69108582 104.03315735 C-8.0121501 104.06118338 -4.334727 104.12394152 -0.65625 104.1875 C1.83526451 104.21257205 4.32680283 104.23538711 6.81835938 104.25585938 C12.93150714 104.31103711 19.04377053 104.39474657 25.15625 104.5 C23.33241759 120.49773359 15.09721764 134.30668469 2.71484375 144.62890625 C-20.58844035 161.67054454 -49.83622619 165.21034147 -77.86328125 161.25390625 C-98.22472086 157.68198827 -118.50288499 147.51463941 -130.84375 130.5 C-147.45390024 104.86935618 -151.41733608 74.71725425 -145.43017578 45.02734375 C-140.34476739 23.11054622 -128.13004182 3.54767061 -108.84375 -8.5 C-75.0174939 -27.96004616 -29.76237976 -26.16472946 0 0 Z M-84.62890625 30.421875 C-89.61433418 36.74246667 -91.69550695 42.46229867 -92.84375 50.5 C-70.73375 50.5 -48.62375 50.5 -25.84375 50.5 C-27.92973551 39.02707969 -30.35312521 32.05339424 -39.65625 25.15625 C-53.70960148 15.71415448 -72.989975 17.89155952 -84.62890625 30.421875 Z " fill="#525761" transform="translate(1659.84375,200.5)"/>
<path d="M0 0 C13.20586538 13.9053735 18.75 30.35353365 18.75 49.3125 C1.59 49.3125 -15.57 49.3125 -33.25 49.3125 C-34.57 45.0225 -35.89 40.7325 -37.25 36.3125 C-42.46937895 28.20580504 -47.72542511 23.46019826 -57.25 21.3125 C-65.06754343 20.31508929 -71.69833269 22.33176246 -78.5 26.125 C-88.21482216 33.85269945 -92.26227984 45.49177285 -93.875 57.5 C-95.38952295 73.58148009 -94.65306361 91.47125468 -85.2734375 105.20703125 C-79.64603542 111.99769489 -74.07958971 115.66391999 -65.265625 116.64453125 C-57.1515105 116.92255294 -50.0597486 115.72976614 -43.5 110.75 C-36.9125576 104.575228 -35.161961 96.91632451 -33.25 88.3125 C-16.09 88.3125 1.07 88.3125 18.75 88.3125 C18.75 108.45604043 12.94216052 125.30972342 -1.39453125 139.65625 C-19.26225409 156.27738753 -42.50636359 161.92023578 -66.5078125 161.49609375 C-88.68661569 160.40798963 -108.42499056 154.19501279 -125.25 139.3125 C-125.86230469 138.79429687 -126.47460938 138.27609375 -127.10546875 137.7421875 C-144.11538932 122.25031476 -151.15994053 97.49319928 -152.359375 75.28759766 C-153.3211892 50.44273454 -147.85018362 25.38081644 -131.25 6.3125 C-130.80527344 5.72597656 -130.36054687 5.13945312 -129.90234375 4.53515625 C-116.73595912 -12.39305256 -95.0022924 -19.42755477 -74.6015625 -22.1796875 C-47.72557072 -24.70123364 -20.07628931 -18.90977709 0 0 Z " fill="#525761" transform="translate(1858.25,201.6875)"/>
<path d="M0 0 C1.05489624 -0.00935994 1.05489624 -0.00935994 2.13110352 -0.01890898 C4.47576936 -0.03479977 6.81938988 -0.02225106 9.1640625 -0.00964355 C10.84977828 -0.01506645 12.53548932 -0.02219005 14.22119141 -0.03088379 C18.79145963 -0.04910026 23.36136618 -0.04205658 27.93164062 -0.02936745 C32.71745774 -0.01923109 37.50324416 -0.02863489 42.2890625 -0.03491211 C50.32557731 -0.04218666 58.36194503 -0.03260586 66.3984375 -0.0135498 C75.68597197 0.00821857 84.97315519 0.00116706 94.26068115 -0.02085543 C102.23877974 -0.0390149 110.21677267 -0.04156507 118.19488525 -0.03110075 C122.95810706 -0.02486883 127.72116384 -0.02402189 132.484375 -0.0372467 C136.96279317 -0.04881255 141.44075904 -0.04076615 145.91912842 -0.01766968 C147.56141408 -0.0123865 149.20373788 -0.01388971 150.8460083 -0.02272034 C153.09055875 -0.03367555 155.33366615 -0.01991476 157.578125 0 C158.83318848 0.0015081 160.08825195 0.0030162 161.38134766 0.00457001 C166.5664884 0.77048389 169.61909387 3.27638864 173.1640625 7.00793457 C175.56209825 12.17293466 175.54287785 16.90816337 174.7890625 22.50793457 C172.47916652 27.48309515 169.50950231 29.82698187 164.7890625 32.50793457 C161.38134766 33.01129913 161.38134766 33.01129913 157.578125 33.01586914 C156.52322876 33.02522908 156.52322876 33.02522908 155.44702148 33.03477812 C153.10235564 33.05066891 150.75873512 33.0381202 148.4140625 33.0255127 C146.72834672 33.03093559 145.04263568 33.03805919 143.35693359 33.04675293 C138.78666537 33.0649694 134.21675882 33.05792572 129.64648438 33.04523659 C124.86066726 33.03510023 120.07488084 33.04450404 115.2890625 33.05078125 C107.25254769 33.0580558 99.21617997 33.048475 91.1796875 33.02941895 C81.89215303 33.00765057 72.60496981 33.01470208 63.31744385 33.03672457 C55.33934526 33.05488404 47.36135233 33.05743421 39.38323975 33.04696989 C34.62001794 33.04073798 29.85696116 33.03989103 25.09375 33.05311584 C20.61533183 33.06468169 16.13736596 33.05663529 11.65899658 33.03353882 C10.01671092 33.02825564 8.37438712 33.02975885 6.7321167 33.03858948 C4.48756625 33.04954469 2.24445885 33.0357839 0 33.01586914 C-1.25506348 33.01436104 -2.51012695 33.01285294 -3.80322266 33.01129913 C-8.9883634 32.24538525 -12.04096887 29.7394805 -15.5859375 26.00793457 C-17.98397325 20.84293448 -17.96475285 16.10770577 -17.2109375 10.50793457 C-13.71687306 2.98225731 -8.11362412 0.00974945 0 0 Z " fill="#0080F9" transform="translate(177.2109375,207.4920654296875)"/>
<path d="M0 0 C1.05489624 -0.00935994 1.05489624 -0.00935994 2.13110352 -0.01890898 C4.47576936 -0.03479977 6.81938988 -0.02225106 9.1640625 -0.00964355 C10.84977828 -0.01506645 12.53548932 -0.02219005 14.22119141 -0.03088379 C18.79145963 -0.04910026 23.36136618 -0.04205658 27.93164062 -0.02936745 C32.71745774 -0.01923109 37.50324416 -0.02863489 42.2890625 -0.03491211 C50.32557731 -0.04218666 58.36194503 -0.03260586 66.3984375 -0.0135498 C75.68597197 0.00821857 84.97315519 0.00116706 94.26068115 -0.02085543 C102.23877974 -0.0390149 110.21677267 -0.04156507 118.19488525 -0.03110075 C122.95810706 -0.02486883 127.72116384 -0.02402189 132.484375 -0.0372467 C136.96279317 -0.04881255 141.44075904 -0.04076615 145.91912842 -0.01766968 C147.56141408 -0.0123865 149.20373788 -0.01388971 150.8460083 -0.02272034 C153.09055875 -0.03367555 155.33366615 -0.01991476 157.578125 0 C158.83318848 0.0015081 160.08825195 0.0030162 161.38134766 0.00457001 C166.5664884 0.77048389 169.61909387 3.27638864 173.1640625 7.00793457 C175.56209825 12.17293466 175.54287785 16.90816337 174.7890625 22.50793457 C172.47916652 27.48309515 169.50950231 29.82698187 164.7890625 32.50793457 C161.38134766 33.01129913 161.38134766 33.01129913 157.578125 33.01586914 C156.52322876 33.02522908 156.52322876 33.02522908 155.44702148 33.03477812 C153.10235564 33.05066891 150.75873512 33.0381202 148.4140625 33.0255127 C146.72834672 33.03093559 145.04263568 33.03805919 143.35693359 33.04675293 C138.78666537 33.0649694 134.21675882 33.05792572 129.64648438 33.04523659 C124.86066726 33.03510023 120.07488084 33.04450404 115.2890625 33.05078125 C107.25254769 33.0580558 99.21617997 33.048475 91.1796875 33.02941895 C81.89215303 33.00765057 72.60496981 33.01470208 63.31744385 33.03672457 C55.33934526 33.05488404 47.36135233 33.05743421 39.38323975 33.04696989 C34.62001794 33.04073798 29.85696116 33.03989103 25.09375 33.05311584 C20.61533183 33.06468169 16.13736596 33.05663529 11.65899658 33.03353882 C10.01671092 33.02825564 8.37438712 33.02975885 6.7321167 33.03858948 C4.48756625 33.04954469 2.24445885 33.0357839 0 33.01586914 C-1.25506348 33.01436104 -2.51012695 33.01285294 -3.80322266 33.01129913 C-8.9883634 32.24538525 -12.04096887 29.7394805 -15.5859375 26.00793457 C-17.98397325 20.84293448 -17.96475285 16.10770577 -17.2109375 10.50793457 C-13.71687306 2.98225731 -8.11362412 0.00974945 0 0 Z " fill="#0080F9" transform="translate(177.2109375,127.4920654296875)"/>
<path d="M0 0 C0.9861026 -0.00700928 1.9722052 -0.01401855 2.9881897 -0.02124023 C6.23850908 -0.03880423 9.48795344 -0.02720268 12.73828125 -0.01367188 C15.00219896 -0.01636723 17.26611554 -0.02025002 19.5300293 -0.02526855 C24.27110839 -0.03116146 29.01188571 -0.022607 33.75292969 -0.00390625 C39.82600424 0.01888279 45.89837167 0.00575865 51.97142029 -0.01819611 C56.64519567 -0.03265944 61.31880377 -0.02804554 65.99258423 -0.01768494 C68.23165979 -0.01501915 70.4707506 -0.01828216 72.70980835 -0.02760315 C75.84080151 -0.03777717 78.97065415 -0.02225469 82.1015625 0 C83.0243399 -0.00809692 83.94711731 -0.01619385 84.89785767 -0.02453613 C90.45356826 0.04851469 93.64387287 0.81307533 98.05078125 4.51757812 C101.67911788 8.33687985 102.36078583 11.40036819 102.55078125 16.51757812 C102.36078583 21.63478806 101.67911788 24.6982764 98.05078125 28.51757812 C92.78525403 32.94384676 88.67452188 33.09283078 82.1015625 33.03515625 C80.6224086 33.04567017 80.6224086 33.04567017 79.1133728 33.05639648 C75.86305342 33.07396048 72.61360906 33.06235893 69.36328125 33.04882812 C67.09936354 33.05152348 64.83544696 33.05540627 62.5715332 33.0604248 C57.83045411 33.06631771 53.08967679 33.05776325 48.34863281 33.0390625 C42.27555826 33.01627346 36.20319083 33.0293976 30.13014221 33.05335236 C25.45636683 33.06781569 20.78275873 33.06320179 16.10897827 33.05284119 C13.86990271 33.0501754 11.6308119 33.05343841 9.39175415 33.0627594 C6.26076099 33.07293342 3.13090835 33.05741094 0 33.03515625 C-1.38416611 33.04730164 -1.38416611 33.04730164 -2.79629517 33.05969238 C-8.35200576 32.98664156 -11.54231037 32.22208092 -15.94921875 28.51757812 C-19.57755538 24.6982764 -20.25922333 21.63478806 -20.44921875 16.51757812 C-20.25922333 11.40036819 -19.57755538 8.33687985 -15.94921875 4.51757812 C-10.68369153 0.09130949 -6.57295938 -0.05767453 0 0 Z " fill="#007EF6" transform="translate(179.94921875,287.482421875)"/>
</svg>
