<?xml version="1.0" encoding="UTF-8"?>
<svg version="1.1" xmlns="http://www.w3.org/2000/svg" width="512" height="512">
<path d="M0 0 C1.3496003 -0.00187215 2.69920006 -0.00417445 4.04879898 -0.00686532 C7.72891758 -0.01293999 11.40901331 -0.01285488 15.08913577 -0.01167095 C19.06955918 -0.01146583 23.04997547 -0.01699627 27.03039551 -0.02172852 C34.81879265 -0.03001219 42.60718222 -0.03278234 50.3955834 -0.03334089 C56.73193358 -0.03381721 63.06828127 -0.03587773 69.40463066 -0.03904152 C87.39916967 -0.04784245 105.39370274 -0.05246186 123.38824392 -0.05171105 C124.35703001 -0.05167109 125.3258161 -0.05163113 126.32395935 -0.05158997 C127.29393889 -0.05154909 128.26391843 -0.0515082 129.26329129 -0.05146609 C144.97056792 -0.05105994 160.67782055 -0.06062295 176.38509024 -0.07472833 C192.54244441 -0.0891225 208.69978689 -0.09599682 224.85714763 -0.09513456 C233.91643885 -0.0948036 242.9757049 -0.09750599 252.03499031 -0.10831261 C259.75050071 -0.11745779 267.46597455 -0.11956014 275.18148804 -0.11280318 C279.11081205 -0.10955792 283.04006607 -0.10940827 286.96938324 -0.11815643 C318.44130815 -0.18361147 348.02388321 0.15948231 371.66648865 23.42668152 C372.55078552 24.32000183 373.4350824 25.21332214 374.34617615 26.13371277 C375.08609802 26.85172058 375.8260199 27.56972839 376.58836365 28.30949402 C393.41137139 45.68890474 396.68229006 69.6258713 396.60014343 92.78190613 C396.60245584 94.17849609 396.60563752 95.57508484 396.60959792 96.9716711 C396.61784766 100.7583977 396.6138661 104.54502182 396.60762548 108.33174849 C396.60306119 112.43543109 396.61010428 116.53909726 396.61558533 120.64277649 C396.6244389 128.66177311 396.62257541 136.68073211 396.61676005 144.69973016 C396.61222759 151.22190676 396.61163748 157.74407288 396.61380768 164.26625061 C396.61411414 165.1975353 396.61442061 166.12882 396.61473636 167.08832544 C396.61537587 168.9807152 396.6160243 170.87310495 396.61668155 172.7654947 C396.62237302 190.47500308 396.61584556 208.18449068 396.60508081 225.89399564 C396.59614638 241.06147685 396.59769876 256.22892743 396.60691833 271.39640808 C396.61764192 289.0462383 396.6218238 306.69605035 396.61569381 324.34588337 C396.61505677 326.23098055 396.61442802 328.11607774 396.61380768 330.00117493 C396.61349913 330.928473 396.61319058 331.85577107 396.61287268 332.81116909 C396.61115199 339.31906857 396.61404727 345.82695644 396.61876678 352.33485413 C396.62439887 360.27501452 396.6228105 368.2151354 396.6122053 376.15529132 C396.60697976 380.19983895 396.60483809 384.24432093 396.6115036 388.28886795 C396.61753048 392.00229437 396.61407889 395.71559523 396.6035485 399.42901051 C396.60031014 401.38483809 396.60672464 403.34067462 396.61366296 405.29649258 C396.51046502 429.02832765 391.14794389 451.06458302 374.0922699 468.41886902 C373.18605896 469.31476746 372.27984802 470.21066589 371.34617615 471.13371277 C370.24982849 472.24552917 370.24982849 472.24552917 369.1313324 473.37980652 C346.2148743 495.27206537 315.34982931 494.44530051 285.70841873 494.39516211 C281.70359567 494.39059203 277.69878933 494.39764367 273.69396973 494.40312195 C265.87095975 494.41196924 258.04798837 494.41011494 250.22497695 494.40429667 C243.86205381 494.39976202 237.49914141 494.39917503 231.13621712 494.4013443 C230.2272708 494.40165077 229.31832449 494.40195723 228.38183435 494.40227298 C226.53478212 494.4029125 224.6877299 494.40356092 222.84067769 494.40421817 C205.56132218 494.40990771 188.28198797 494.40338506 171.00263596 494.39261743 C156.20527347 494.38368167 141.40794237 494.38523686 126.61058044 494.39445496 C109.38740557 494.40517935 92.16424931 494.4093601 74.94107157 494.40323043 C73.10148752 494.40259339 71.26190347 494.40196465 69.42231941 494.4013443 C68.51742921 494.40103575 67.61253901 494.4007272 66.68022789 494.4004093 C60.33111473 494.39868897 53.98201346 494.40158308 47.63290215 494.40630341 C39.88673398 494.41193634 32.14060631 494.41034531 24.39444273 494.39974192 C20.44912565 494.39451773 16.50387586 494.39237236 12.55855942 494.39904022 C-19.3023973 494.44840748 -45.99727643 492.80151935 -70.34132385 469.75871277 C-89.175052 450.13105697 -92.81972014 426.16590536 -92.78753662 400.12512207 C-92.78940922 398.74919723 -92.7917117 397.37327292 -92.79440194 395.99734944 C-92.80047083 392.24915025 -92.8003922 388.50097352 -92.79920757 384.75277054 C-92.79900231 380.69740024 -92.80453419 376.64203692 -92.80926514 372.58666992 C-92.81754518 364.65369621 -92.82031877 356.72072993 -92.82087751 348.78775225 C-92.82135392 342.33461725 -92.82341488 335.88148468 -92.82657814 329.42835045 C-92.8353774 311.10262877 -92.83999864 292.77691294 -92.83924767 274.45118914 C-92.83920771 273.46478375 -92.83916775 272.47837837 -92.83912659 271.46208191 C-92.83908571 270.47446187 -92.83904483 269.48684183 -92.83900271 268.46929391 C-92.83859642 252.4704118 -92.84816356 236.47155323 -92.86226495 220.47267792 C-92.87665469 204.01584367 -92.88353371 187.55902088 -92.88267118 171.10218018 C-92.88234011 161.87470293 -92.8850475 152.64725038 -92.89584923 143.41977882 C-92.90498847 135.56263078 -92.9071015 127.70551863 -92.9003398 119.84836755 C-92.89709183 115.84625137 -92.89695498 111.84420392 -92.90569305 107.84209442 C-92.9681616 77.26113837 -92.44500233 49.12364079 -70.65382385 25.13371277 C-70.11370667 24.50078308 -69.57358948 23.86785339 -69.0171051 23.21574402 C-51.37116215 3.7918723 -24.79501886 -0.03116913 0 0 Z " fill="#ECECEC" transform="translate(103.65382385253906,7.8662872314453125)"/>
<path d="M0 0 C1.3496003 -0.00187215 2.69920006 -0.00417445 4.04879898 -0.00686532 C7.72891758 -0.01293999 11.40901331 -0.01285488 15.08913577 -0.01167095 C19.06955918 -0.01146583 23.04997547 -0.01699627 27.03039551 -0.02172852 C34.81879265 -0.03001219 42.60718222 -0.03278234 50.3955834 -0.03334089 C56.73193358 -0.03381721 63.06828127 -0.03587773 69.40463066 -0.03904152 C87.39916967 -0.04784245 105.39370274 -0.05246186 123.38824392 -0.05171105 C124.35703001 -0.05167109 125.3258161 -0.05163113 126.32395935 -0.05158997 C127.29393889 -0.05154909 128.26391843 -0.0515082 129.26329129 -0.05146609 C144.97056792 -0.05105994 160.67782055 -0.06062295 176.38509024 -0.07472833 C192.54244441 -0.0891225 208.69978689 -0.09599682 224.85714763 -0.09513456 C233.91643885 -0.0948036 242.9757049 -0.09750599 252.03499031 -0.10831261 C259.75050071 -0.11745779 267.46597455 -0.11956014 275.18148804 -0.11280318 C279.11081205 -0.10955792 283.04006607 -0.10940827 286.96938324 -0.11815643 C318.44130815 -0.18361147 348.02388321 0.15948231 371.66648865 23.42668152 C372.55078552 24.32000183 373.4350824 25.21332214 374.34617615 26.13371277 C375.08609802 26.85172058 375.8260199 27.56972839 376.58836365 28.30949402 C393.41137139 45.68890474 396.68229006 69.6258713 396.60014343 92.78190613 C396.60245584 94.17849609 396.60563752 95.57508484 396.60959792 96.9716711 C396.61784766 100.7583977 396.6138661 104.54502182 396.60762548 108.33174849 C396.60306119 112.43543109 396.61010428 116.53909726 396.61558533 120.64277649 C396.6244389 128.66177311 396.62257541 136.68073211 396.61676005 144.69973016 C396.61222759 151.22190676 396.61163748 157.74407288 396.61380768 164.26625061 C396.61411414 165.1975353 396.61442061 166.12882 396.61473636 167.08832544 C396.61537587 168.9807152 396.6160243 170.87310495 396.61668155 172.7654947 C396.62237302 190.47500308 396.61584556 208.18449068 396.60508081 225.89399564 C396.59614638 241.06147685 396.59769876 256.22892743 396.60691833 271.39640808 C396.61764192 289.0462383 396.6218238 306.69605035 396.61569381 324.34588337 C396.61505677 326.23098055 396.61442802 328.11607774 396.61380768 330.00117493 C396.61349913 330.928473 396.61319058 331.85577107 396.61287268 332.81116909 C396.61115199 339.31906857 396.61404727 345.82695644 396.61876678 352.33485413 C396.62439887 360.27501452 396.6228105 368.2151354 396.6122053 376.15529132 C396.60697976 380.19983895 396.60483809 384.24432093 396.6115036 388.28886795 C396.61753048 392.00229437 396.61407889 395.71559523 396.6035485 399.42901051 C396.60031014 401.38483809 396.60672464 403.34067462 396.61366296 405.29649258 C396.51046502 429.02832765 391.14794389 451.06458302 374.0922699 468.41886902 C373.18605896 469.31476746 372.27984802 470.21066589 371.34617615 471.13371277 C370.24982849 472.24552917 370.24982849 472.24552917 369.1313324 473.37980652 C346.2148743 495.27206537 315.34982931 494.44530051 285.70841873 494.39516211 C281.70359567 494.39059203 277.69878933 494.39764367 273.69396973 494.40312195 C265.87095975 494.41196924 258.04798837 494.41011494 250.22497695 494.40429667 C243.86205381 494.39976202 237.49914141 494.39917503 231.13621712 494.4013443 C230.2272708 494.40165077 229.31832449 494.40195723 228.38183435 494.40227298 C226.53478212 494.4029125 224.6877299 494.40356092 222.84067769 494.40421817 C205.56132218 494.40990771 188.28198797 494.40338506 171.00263596 494.39261743 C156.20527347 494.38368167 141.40794237 494.38523686 126.61058044 494.39445496 C109.38740557 494.40517935 92.16424931 494.4093601 74.94107157 494.40323043 C73.10148752 494.40259339 71.26190347 494.40196465 69.42231941 494.4013443 C68.51742921 494.40103575 67.61253901 494.4007272 66.68022789 494.4004093 C60.33111473 494.39868897 53.98201346 494.40158308 47.63290215 494.40630341 C39.88673398 494.41193634 32.14060631 494.41034531 24.39444273 494.39974192 C20.44912565 494.39451773 16.50387586 494.39237236 12.55855942 494.39904022 C-19.3023973 494.44840748 -45.99727643 492.80151935 -70.34132385 469.75871277 C-89.175052 450.13105697 -92.81972014 426.16590536 -92.78753662 400.12512207 C-92.78940922 398.74919723 -92.7917117 397.37327292 -92.79440194 395.99734944 C-92.80047083 392.24915025 -92.8003922 388.50097352 -92.79920757 384.75277054 C-92.79900231 380.69740024 -92.80453419 376.64203692 -92.80926514 372.58666992 C-92.81754518 364.65369621 -92.82031877 356.72072993 -92.82087751 348.78775225 C-92.82135392 342.33461725 -92.82341488 335.88148468 -92.82657814 329.42835045 C-92.8353774 311.10262877 -92.83999864 292.77691294 -92.83924767 274.45118914 C-92.83920771 273.46478375 -92.83916775 272.47837837 -92.83912659 271.46208191 C-92.83908571 270.47446187 -92.83904483 269.48684183 -92.83900271 268.46929391 C-92.83859642 252.4704118 -92.84816356 236.47155323 -92.86226495 220.47267792 C-92.87665469 204.01584367 -92.88353371 187.55902088 -92.88267118 171.10218018 C-92.88234011 161.87470293 -92.8850475 152.64725038 -92.89584923 143.41977882 C-92.90498847 135.56263078 -92.9071015 127.70551863 -92.9003398 119.84836755 C-92.89709183 115.84625137 -92.89695498 111.84420392 -92.90569305 107.84209442 C-92.9681616 77.26113837 -92.44500233 49.12364079 -70.65382385 25.13371277 C-70.11370667 24.50078308 -69.57358948 23.86785339 -69.0171051 23.21574402 C-51.37116215 3.7918723 -24.79501886 -0.03116913 0 0 Z M-12.28663635 40.07902527 C-19.68155449 49.6216424 -23.7692737 59.7119212 -23.78804493 71.80990219 C-23.79039716 72.45878804 -23.79274939 73.10767389 -23.7951729 73.77622294 C-23.80182255 75.94754762 -23.80140591 78.1188119 -23.80099487 80.29014587 C-23.80429599 81.86387194 -23.80802208 83.43759716 -23.81213635 85.01132131 C-23.82213583 89.33386156 -23.82586982 93.65638793 -23.82852566 97.9789381 C-23.83243467 102.64165014 -23.84201241 107.30435124 -23.85073853 111.96705627 C-23.87048335 123.22461584 -23.88056542 134.48217629 -23.88946632 145.73974884 C-23.89385139 151.04220569 -23.89921753 156.34466155 -23.90445518 161.64711761 C-23.92146345 179.27415128 -23.93595843 196.90118433 -23.94320393 214.52822495 C-23.94511378 219.10049694 -23.94703412 223.67276892 -23.94898987 228.24504089 C-23.94947361 229.38143962 -23.94995735 230.51783835 -23.95045575 231.68867341 C-23.95875918 250.10470125 -23.9841032 268.52066421 -24.01657055 286.93666372 C-24.04963676 305.84653077 -24.06765219 324.75636484 -24.07084817 343.66626096 C-24.07301337 354.28253535 -24.08176399 364.89871503 -24.10730934 375.51496124 C-24.1290101 384.55421851 -24.1370697 393.59335806 -24.12734256 402.63263842 C-24.12279643 407.24351774 -24.12470243 411.85415412 -24.144104 416.46500015 C-24.16172556 420.68932138 -24.16074623 424.91322225 -24.14520671 429.13754788 C-24.14282915 430.66244054 -24.14716196 432.18736222 -24.15903536 433.71221051 C-24.24688581 445.7435129 -22.61512364 455.17206741 -14.03663635 464.08293152 C-6.68607612 470.40923336 0.91840327 473.21685996 10.62425232 472.60758972 C25.47728401 470.7164953 40.35391804 462.02124203 53.93919373 456.0521698 C56.86608745 454.76804888 59.79548667 453.48977944 62.7250824 452.21183777 C64.06416405 451.6197049 64.06416405 451.6197049 65.43029785 451.01560974 C66.2656456 450.65142944 67.10099335 450.28724915 67.96165466 449.91203308 C68.68998001 449.59180176 69.41830536 449.27157043 70.16870117 448.94163513 C73.90874147 447.55394424 76.38268296 446.7983705 80.21092224 448.13078308 C81.25329041 448.65253113 82.29565857 449.17427917 83.36961365 449.71183777 C84.54451355 450.29062683 85.71941345 450.86941589 86.92991638 451.46574402 C88.19371337 452.10498048 89.45746563 452.74430538 90.72117615 453.38371277 C92.02389815 454.02974807 93.32737385 454.67426565 94.63157654 455.31730652 C97.27489184 456.62204299 99.91501529 457.93290475 102.55271912 459.24894714 C107.93725397 461.93075735 113.35663407 464.53918771 118.78367615 467.13371277 C119.7171991 467.58053406 120.65072205 468.02735535 121.61253357 468.48771667 C142.5948092 478.94158982 142.5948092 478.94158982 165.13084412 476.36198425 C170.23394175 474.41257771 175.05666817 472.00884242 179.90867615 469.50871277 C180.94733826 468.98164734 181.98600037 468.45458191 183.05613708 467.9115448 C189.43157282 464.66517527 195.7706172 461.35099773 202.09617615 458.00871277 C204.37984322 456.80716912 206.66353153 455.60566585 208.94725037 454.40422058 C210.63729583 453.50914663 212.32348231 452.60676737 214.00682068 451.69914246 C216.71467698 450.24206474 219.43515311 448.81124543 222.15867615 447.38371277 C223.40439392 446.70091248 223.40439392 446.70091248 224.67527771 446.00431824 C225.45999451 445.59842468 226.2447113 445.19253113 227.0532074 444.77433777 C228.08151672 444.22568054 228.08151672 444.22568054 229.13059998 443.66593933 C234.71197992 442.32517809 240.99598543 446.82808784 245.89305115 449.30949402 C247.10991608 449.9200489 247.10991608 449.9200489 248.35136414 450.54293823 C250.93488129 451.84026487 253.51556372 453.1431193 256.09617615 454.44621277 C257.81473936 455.31051657 259.53348769 456.17445238 261.25242615 457.03800964 C267.06245204 459.95822951 272.8716322 462.88009398 278.67234802 465.81877136 C279.55986755 466.26688171 280.44738708 466.71499207 281.36180115 467.17668152 C282.08142029 467.54172791 282.80103943 467.90677429 283.54246521 468.28288269 C290.26785506 471.45532227 299.10941451 471.07144934 306.27586365 469.48527527 C315.33354427 466.18387766 322.1681345 459.79748129 326.34617615 451.13371277 C328.02960758 446.76794406 328.59711969 443.16185507 328.60065174 438.4915514 C328.60385822 437.84634189 328.6070647 437.20113239 328.61036834 436.53637108 C328.61866018 434.37746838 328.61274701 432.21884369 328.60687256 430.05993652 C328.60989364 428.49517182 328.6137829 426.93040859 328.61846513 425.36564797 C328.62875988 421.06781733 328.62655952 416.77006998 328.62228453 412.47223246 C328.61981993 407.83608321 328.62882828 403.19995414 328.63632202 398.56381226 C328.6490794 389.48098745 328.65086134 380.39819219 328.64852176 371.31535993 C328.64673925 363.93144009 328.64848681 356.54752922 328.6527462 349.16361046 C328.65363898 347.58763789 328.65363898 347.58763789 328.6545498 345.97982749 C328.65576155 343.84543974 328.65697569 341.71105198 328.65819218 339.57666423 C328.66907216 319.55346945 328.66690333 299.53029151 328.66080733 279.50709578 C328.65564035 261.19521774 328.66688705 242.88339294 328.68590555 224.57152543 C328.70528613 205.76674097 328.7135394 186.96198168 328.7097823 168.15718716 C328.70787026 157.6007078 328.71035792 147.04427372 328.72449684 136.48780251 C328.73641455 127.49872032 328.73781129 118.50971127 328.72570667 109.52062807 C328.71982015 104.93599783 328.71871225 100.35150135 328.73070908 95.76688004 C328.74157533 91.56538143 328.73845569 87.36412812 328.72444739 83.16264095 C328.72180246 81.64715694 328.72416058 80.13165365 328.73218326 78.61618856 C328.80969979 62.87383606 325.76592814 49.73585738 314.84617615 37.88371277 C304.00812321 27.60229699 290.85559413 23.81873019 276.20791626 23.87301636 C275.10628295 23.86919081 274.00464964 23.86536526 272.8696335 23.86142379 C269.18883249 23.85112875 265.5081885 23.85507937 261.82737732 23.85905457 C259.18397507 23.85470614 256.54058422 23.84958676 253.89718628 23.84356689 C247.46829831 23.83083849 241.03945215 23.82902392 234.6105537 23.83136716 C229.38247778 23.83315273 224.15441451 23.83139555 218.9263401 23.82714272 C218.18125244 23.82654753 217.43616478 23.82595234 216.6684987 23.82533911 C215.15466401 23.82412731 213.64082933 23.82291318 212.12699465 23.82169674 C197.94000543 23.81082814 183.75303999 23.81298033 169.56604943 23.81908158 C156.60210716 23.82424889 143.63824008 23.81299902 130.67431267 23.79398336 C117.34776294 23.77458641 104.02124874 23.7663523 90.6946848 23.77010661 C83.21895931 23.772016 75.74329779 23.76955683 68.26758385 23.75539207 C61.90260265 23.74345352 55.53772478 23.74210094 49.17274209 23.75418224 C45.92879438 23.76005396 42.68507353 23.75957746 39.44113159 23.74917984 C35.91570981 23.73869704 32.39079098 23.74682603 28.86538696 23.75949097 C27.85232914 23.75211668 26.83927131 23.7447424 25.79551476 23.73714465 C10.90068081 23.84925115 -1.98081927 29.24639326 -12.28663635 40.07902527 Z " fill="#ECECEC" transform="translate(103.65382385253906,7.8662872314453125)"/>
<path d="M0 0 C1.10107661 -0.00453111 2.20215321 -0.00906223 3.33659577 -0.01373065 C7.00961699 -0.02634552 10.68248937 -0.02475613 14.35552979 -0.02310181 C16.99583481 -0.02908886 19.63612838 -0.03583871 22.27642822 -0.04345703 C28.69448223 -0.06002417 35.11249949 -0.06556463 41.5305731 -0.06668179 C46.75098072 -0.06763429 51.97137629 -0.07175463 57.19178009 -0.07808304 C72.01389193 -0.09568364 86.83597488 -0.10492374 101.65809724 -0.10342209 C102.45608201 -0.10334218 103.25406678 -0.10326227 104.07623291 -0.10317993 C104.87519935 -0.10309817 105.67416579 -0.10301641 106.49734333 -0.10293217 C119.44049134 -0.10211957 132.3835229 -0.1212537 145.32663724 -0.14945666 C158.63740929 -0.17823039 171.94812462 -0.1919945 185.25892854 -0.19026911 C192.72354953 -0.18960677 200.18804843 -0.19503065 207.6526413 -0.21662521 C214.0087778 -0.23489622 220.36473686 -0.23913606 226.72088835 -0.22560637 C229.95908 -0.21910634 233.19686362 -0.2210536 236.43503571 -0.23631287 C255.71706524 -0.3212612 271.57088067 0.63705287 286.44244385 14.32992554 C298.24592358 26.74032178 300.05932621 40.39903031 300.02236938 56.70869446 C300.02610975 58.27676139 300.03071282 59.84482645 300.03610003 61.41288859 C300.04829717 65.7058679 300.04807346 69.99876909 300.04571128 74.29176176 C300.04530229 78.92784211 300.05634991 83.56389769 300.06582642 88.19996643 C300.08241824 97.27602525 300.0879351 106.35205808 300.08905117 115.4281308 C300.0900023 122.80579032 300.09411581 130.18344128 300.10045242 137.5610981 C300.11805815 158.48553327 300.12729208 179.40994794 300.12579148 200.33439057 C300.12571156 201.46173303 300.12563165 202.58907549 300.12554932 203.75057983 C300.12546756 204.87930083 300.12538579 206.00802182 300.12530155 207.17094649 C300.12448835 225.4703904 300.14363643 243.76975207 300.17182605 262.0691722 C300.20055339 280.86613755 300.2143665 299.66306278 300.2126385 318.46005064 C300.21197465 329.010323 300.21746489 339.56050907 300.2389946 350.11076164 C300.25720416 359.09139648 300.26155537 368.0719059 300.24797575 377.0525512 C300.24144563 381.63306815 300.24133066 386.21334445 300.25868225 390.7938385 C300.27441546 394.99029234 300.27154694 399.18631476 300.25411399 403.38275809 C300.25104469 404.89746374 300.25467386 406.41220162 300.26583414 407.92686927 C300.35475946 420.85624857 298.19799365 429.6185825 289.1338501 439.13070679 C281.67984658 445.82584624 273.36934311 446.8333614 263.67681885 446.59555054 C257.62011671 446.0888145 253.09895939 444.05916951 247.75494385 441.26742554 C247.10138916 440.92920776 246.44783447 440.59098999 245.7744751 440.24252319 C241.88251153 438.22476339 238.00601403 436.17835115 234.1338501 434.12289429 C233.27678467 433.66833862 232.41971924 433.21378296 231.53668213 432.74545288 C229.57255051 431.70184635 227.61014732 430.65498369 225.64898682 429.60580444 C222.42367925 427.88942975 219.18475183 426.20142451 215.94244385 424.51742554 C214.92247314 423.96755981 213.90250244 423.41769409 212.85162354 422.85116577 C211.88514893 422.35431274 210.91867432 421.85745972 209.9229126 421.34555054 C209.06979492 420.89598999 208.21667725 420.44642944 207.33770752 419.98324585 C201.73657899 418.43087712 196.33063198 422.3373281 191.3994751 424.82992554 C190.70420715 425.17763 190.00893921 425.52533447 189.29260254 425.88357544 C187.04878136 427.00739186 184.80804965 428.13721401 182.56744385 429.26742554 C181.02317139 430.04264954 179.47881888 430.81771408 177.93438721 431.59262085 C169.85290167 435.65490507 161.80293485 439.76880484 153.81744385 444.01742554 C127.72805943 457.89676119 127.72805943 457.89676119 116.27374268 454.54037476 C109.54748876 452.05862547 103.12270519 449.18166693 96.69244385 446.01742554 C94.51965035 444.96585135 92.34644886 443.91511987 90.1729126 442.86508179 C86.98310546 441.31905324 83.79343214 439.77279151 80.6060791 438.22171021 C76.00948309 435.98513288 71.40656567 433.76248059 66.79550171 431.55587769 C65.27338993 430.82427764 63.7537234 430.08756743 62.23660278 429.34567261 C60.09758256 428.30025738 57.95093172 427.27236537 55.80181885 426.24789429 C54.84394218 425.7722831 54.84394218 425.7722831 53.86671448 425.2870636 C49.9462119 423.44540274 47.88499819 423.15550451 43.75494385 424.26742554 C42.02420661 424.92210161 40.31182885 425.6265885 38.61676025 426.3687439 C37.11962997 427.01963234 37.11962997 427.01963234 35.59225464 427.68367004 C34.5244577 428.15345779 33.45666077 428.62324554 32.35650635 429.10726929 C31.24818451 429.58942398 30.13986267 430.07157867 28.99795532 430.56834412 C25.45656826 432.10921863 21.9179799 433.65637361 18.37994385 435.20492554 C14.84897272 436.7497254 11.31737978 438.29299139 7.78335571 439.83079529 C5.58560495 440.78713175 3.38957763 441.74744134 1.19552612 442.7122345 C-9.4801649 447.35794182 -19.88139494 450.87672909 -31.5380249 447.24008179 C-41.27480292 442.78510477 -47.50847195 436.28285174 -51.3819859 426.35698426 C-53.09207958 420.23531013 -52.785733 413.92738635 -52.73953247 407.62324524 C-52.74271304 406.04535085 -52.74764459 404.46745919 -52.75416529 402.88957506 C-52.76693929 398.57400867 -52.75489772 394.25882007 -52.73863673 389.94327867 C-52.72544076 385.28133191 -52.73538878 380.61942594 -52.74240112 375.95747375 C-52.7524692 366.83304178 -52.74122205 357.70875513 -52.72270052 348.58434122 C-52.70190265 337.95534962 -52.70207369 327.32638921 -52.70304568 316.69738109 C-52.70404633 297.73135942 -52.68573966 278.76540527 -52.65667725 259.79940796 C-52.62849966 241.40128347 -52.61433594 223.00321839 -52.61566162 204.60507202 C-52.61574153 203.47175557 -52.61582145 202.33843913 -52.61590378 201.17077976 C-52.61598449 200.03941038 -52.6160652 198.90804101 -52.61614835 197.74238771 C-52.61752863 176.78777125 -52.60574506 155.83317999 -52.58784192 134.8785717 C-52.58181344 127.47177563 -52.5796833 120.06498421 -52.57877731 112.65818596 C-52.57741192 103.6310857 -52.56846691 94.60402794 -52.5501117 85.57694571 C-52.54088878 80.97231556 -52.53477991 76.36773968 -52.53730011 71.76309967 C-52.53949634 67.54586562 -52.53241601 63.32875147 -52.51800306 59.11154241 C-52.5143883 57.58814239 -52.51410419 56.06472994 -52.51753764 54.5413295 C-52.54934387 38.66830207 -49.84620724 25.90477287 -38.62005615 13.89242554 C-27.23500718 3.25251675 -15.12131413 -0.04612018 0 0 Z M-17.62005615 38.82992554 C-20.25627014 42.78424652 -20.36966741 45.79815668 -20.36810398 50.44623089 C-20.37009503 51.74802719 -20.37208608 53.04982349 -20.37413746 54.39106816 C-20.37128421 55.84429484 -20.36833861 57.29752135 -20.36531067 58.75074768 C-20.36574648 60.28776276 -20.36662157 61.82477777 -20.36789984 63.36179239 C-20.37014288 67.59640923 -20.36612609 71.83100094 -20.36112177 76.06561458 C-20.35681475 80.62797667 -20.35826388 85.19033726 -20.35902405 89.75270081 C-20.35954912 97.66097031 -20.35640404 105.56923158 -20.35078621 113.47749901 C-20.34266898 124.91161292 -20.34005576 136.34572284 -20.33879822 147.77983931 C-20.33660805 166.32965873 -20.32994891 184.87947375 -20.32049561 203.42929077 C-20.31132058 221.45175149 -20.30424019 239.47421101 -20.29998779 257.49667358 C-20.29972507 258.60704777 -20.29946235 259.71742195 -20.29919166 260.86144384 C-20.29788665 266.43170644 -20.29662294 272.00196904 -20.29537976 277.57223165 C-20.28500824 323.80396599 -20.26739088 370.03569554 -20.24505615 416.26742554 C-16.34404734 414.98632048 -12.59175021 413.61021409 -8.84490967 411.92904663 C-7.81265762 411.4687204 -6.78040558 411.00839417 -5.71687317 410.53411865 C-4.61371262 410.0413443 -3.51055206 409.54856995 -2.3739624 409.04086304 C0.61386772 407.72702103 3.6029675 406.41612468 6.59272671 405.10667992 C9.69518524 403.74586427 12.79279751 402.37566794 15.88165283 400.98422241 C44.37669632 388.16978957 44.37669632 388.16978957 57.79449463 392.1746521 C60.89222139 393.37058735 63.79437965 394.76473994 66.75494385 396.26742554 C68.51693251 397.1016469 70.27895884 397.93579143 72.04208374 398.76760864 C74.57005365 399.96889589 77.08370037 401.19863257 79.59747314 402.42929077 C81.61310918 403.41475169 83.63182589 404.39363686 85.65142822 405.37094116 C92.00358238 408.44761161 98.33880775 411.55149476 104.6416626 414.72836304 C105.6815332 415.24511597 106.72140381 415.7618689 107.79278564 416.29428101 C109.71440074 417.24994123 111.62916849 418.21954452 113.53546143 419.20541382 C114.39164063 419.62806519 115.24781982 420.05071655 116.12994385 420.48617554 C117.22435791 421.04208374 117.22435791 421.04208374 118.34088135 421.60922241 C124.67078431 423.33509401 130.15258243 420.42027718 135.64556885 417.58383179 C136.75307243 417.02679062 136.75307243 417.02679062 137.88294983 416.45849609 C140.26199662 415.25866159 142.6334503 414.04461047 145.00494385 412.82992554 C146.63924842 412.0021085 148.27393401 411.17504325 149.90899658 410.34872437 C158.99171382 405.74816582 168.03376472 401.07258664 177.01763916 396.28158569 C194.18565354 387.15061846 194.18565354 387.15061846 202.75494385 386.95492554 C203.80681885 386.91754272 204.85869385 386.88015991 205.94244385 386.84164429 C215.0010763 387.85331533 223.23248319 392.28523627 231.25494385 396.39242554 C232.19402588 396.86671997 233.13310791 397.3410144 234.10064697 397.8296814 C241.31387441 401.48783549 248.47721678 405.24215663 255.58892822 409.09408569 C256.67657471 409.67682251 256.67657471 409.67682251 257.78619385 410.27133179 C258.41074463 410.60979126 259.03529541 410.94825073 259.67877197 411.29696655 C262.30122614 412.52277268 265.00578973 413.36770689 267.75494385 414.26742554 C267.84646917 367.25078533 267.91696722 320.23415454 267.95920517 273.21744284 C267.96420808 267.66859252 267.96938536 262.11974239 267.97467041 256.57089233 C267.97571965 255.46620104 267.97676889 254.36150975 267.97784993 253.22334296 C267.99526232 235.32869943 268.02680461 217.43410722 268.06355503 199.53949415 C268.10094123 181.18241211 268.12317479 162.82535697 268.13129783 144.46823841 C268.13679041 133.13793827 268.15414768 121.80778318 268.18660972 110.47752769 C268.20772893 102.71137309 268.21414977 94.94529366 268.20894936 87.17911243 C268.20638355 82.69623082 268.21035842 78.21360296 268.23176575 73.7307663 C268.25122164 69.62664378 268.25222024 65.52294582 268.23853943 61.41880382 C268.23684842 59.93415835 268.24193096 58.44948646 268.25447658 56.96489304 C268.44562884 46.38090979 268.44562884 46.38090979 263.75494385 37.26742554 C259.73253797 33.53934204 256.72688626 32.14542211 251.28236771 32.13320446 C250.36109502 32.12874662 249.43982234 32.12428877 248.4906323 32.11969584 C246.97008681 32.11997239 246.97008681 32.11997239 245.41882324 32.12025452 C244.34314111 32.11657783 243.26745897 32.11290114 242.1591804 32.10911304 C238.53647439 32.09805537 234.91379704 32.09422884 231.29107666 32.09042358 C228.7010387 32.08416056 226.11100164 32.07751391 223.52096558 32.07051086 C215.7356905 32.05074969 207.95041413 32.04068094 200.16512024 32.03178307 C196.49902329 32.02739983 192.83292778 32.02203313 189.16683197 32.0167942 C176.98031031 31.99978269 164.79378955 31.98528825 152.60725784 31.97804546 C149.44489796 31.97613557 146.28253808 31.97421523 143.12017822 31.97225952 C142.3341886 31.97177578 141.54819898 31.97129204 140.73839149 31.97079364 C128.00420908 31.96249229 115.27012058 31.93715328 102.53597918 31.90467884 C89.46273505 31.87161136 76.38953865 31.85359701 63.31625247 31.85040122 C55.97580311 31.84823589 48.6354907 31.83948392 41.29508209 31.81394005 C34.3905818 31.78996858 27.48633184 31.78640542 20.58179855 31.79670143 C18.04656276 31.79719814 15.51131504 31.79083814 12.97611618 31.77714539 C9.51677945 31.75950556 6.05833572 31.76649462 2.59899902 31.77967834 C1.09183787 31.76322448 1.09183787 31.76322448 -0.44577098 31.74643821 C-7.86636979 31.81478114 -12.42613673 33.22595985 -17.62005615 38.82992554 Z " fill="#000958" transform="translate(132.24505615234375,31.732574462890625)"/>
<path d="M0 0 C0.69167936 -0.00367669 1.38335871 -0.00735338 2.09599805 -0.01114148 C4.42511044 -0.02219774 6.75417825 -0.02602544 9.08331299 -0.02983093 C10.74872988 -0.03609414 12.41414538 -0.04274082 14.07955933 -0.04974365 C18.61275217 -0.06716716 23.14593445 -0.0777092 27.67915249 -0.08594918 C30.51046114 -0.09109674 33.34176649 -0.09717259 36.17307281 -0.10346031 C45.0289377 -0.12251661 53.88479423 -0.13674652 62.74067569 -0.14507228 C72.96806497 -0.15484575 83.19523788 -0.18116627 93.42255092 -0.22157317 C101.3241077 -0.25172138 109.22560243 -0.26653994 117.12721562 -0.26985329 C121.8480585 -0.27220537 126.56867035 -0.28118602 131.2894516 -0.30631447 C135.73164837 -0.32957744 140.17346171 -0.33383564 144.61570358 -0.32355309 C146.24510599 -0.32305717 147.87452716 -0.32939402 149.50387192 -0.34310913 C151.73106803 -0.36080587 153.95688478 -0.35373432 156.18408203 -0.34057617 C158.05234713 -0.3441587 158.05234713 -0.3441587 159.95835495 -0.34781361 C165.17329278 0.41416343 168.23346066 2.88427911 171.6585083 6.77217102 C174.96699604 11.42856117 174.96683453 15.54248979 174.3460083 21.14717102 C171.85266327 26.13386109 168.35249881 29.64392576 163.3460083 32.14717102 C161.12986688 32.2502997 158.91054319 32.28672081 156.6920166 32.29434204 C156.00033725 32.29801873 155.30865789 32.30169542 154.59601855 32.30548352 C152.26690616 32.31653978 149.93783835 32.32036748 147.60870361 32.32417297 C145.94328672 32.33043619 144.27787123 32.33708286 142.61245728 32.34408569 C138.07926444 32.3615092 133.54608215 32.37205124 129.01286411 32.38029122 C126.18155547 32.38543878 123.35025011 32.39151463 120.51894379 32.39780235 C111.6630789 32.41685865 102.80722237 32.43108856 93.95134091 32.43941432 C83.72395163 32.44918779 73.49677872 32.47550831 63.26946568 32.51591522 C55.3679089 32.54606342 47.46641417 32.56088199 39.56480098 32.56419533 C34.8439581 32.56654741 30.12334626 32.57552806 25.402565 32.60065651 C20.96036823 32.62391948 16.51855489 32.62817768 12.07631302 32.61789513 C10.44691061 32.61739921 8.81748945 32.62373606 7.18814468 32.63745117 C4.96094858 32.65514791 2.73513182 32.64807636 0.50793457 32.63491821 C-0.73757549 32.63730657 -1.98308556 32.63969492 -3.26633835 32.64215565 C-8.48127618 31.88017861 -11.54144406 29.41006293 -14.9664917 25.52217102 C-18.27497943 20.86578087 -18.27481793 16.75185225 -17.6539917 11.14717102 C-13.70323416 3.24565594 -8.54154207 0.02934249 0 0 Z " fill="#000958" transform="translate(177.65399169921875,207.8528289794922)"/>
<path d="M0 0 C0.69167936 -0.00367669 1.38335871 -0.00735338 2.09599805 -0.01114148 C4.42511044 -0.02219774 6.75417825 -0.02602544 9.08331299 -0.02983093 C10.74872988 -0.03609414 12.41414538 -0.04274082 14.07955933 -0.04974365 C18.61275217 -0.06716716 23.14593445 -0.0777092 27.67915249 -0.08594918 C30.51046114 -0.09109674 33.34176649 -0.09717259 36.17307281 -0.10346031 C45.0289377 -0.12251661 53.88479423 -0.13674652 62.74067569 -0.14507228 C72.96806497 -0.15484575 83.19523788 -0.18116627 93.42255092 -0.22157317 C101.3241077 -0.25172138 109.22560243 -0.26653994 117.12721562 -0.26985329 C121.8480585 -0.27220537 126.56867035 -0.28118602 131.2894516 -0.30631447 C135.73164837 -0.32957744 140.17346171 -0.33383564 144.61570358 -0.32355309 C146.24510599 -0.32305717 147.87452716 -0.32939402 149.50387192 -0.34310913 C151.73106803 -0.36080587 153.95688478 -0.35373432 156.18408203 -0.34057617 C158.05234713 -0.3441587 158.05234713 -0.3441587 159.95835495 -0.34781361 C165.17329278 0.41416343 168.23346066 2.88427911 171.6585083 6.77217102 C174.96699604 11.42856117 174.96683453 15.54248979 174.3460083 21.14717102 C171.85266327 26.13386109 168.35249881 29.64392576 163.3460083 32.14717102 C161.12986688 32.2502997 158.91054319 32.28672081 156.6920166 32.29434204 C156.00033725 32.29801873 155.30865789 32.30169542 154.59601855 32.30548352 C152.26690616 32.31653978 149.93783835 32.32036748 147.60870361 32.32417297 C145.94328672 32.33043619 144.27787123 32.33708286 142.61245728 32.34408569 C138.07926444 32.3615092 133.54608215 32.37205124 129.01286411 32.38029122 C126.18155547 32.38543878 123.35025011 32.39151463 120.51894379 32.39780235 C111.6630789 32.41685865 102.80722237 32.43108856 93.95134091 32.43941432 C83.72395163 32.44918779 73.49677872 32.47550831 63.26946568 32.51591522 C55.3679089 32.54606342 47.46641417 32.56088199 39.56480098 32.56419533 C34.8439581 32.56654741 30.12334626 32.57552806 25.402565 32.60065651 C20.96036823 32.62391948 16.51855489 32.62817768 12.07631302 32.61789513 C10.44691061 32.61739921 8.81748945 32.62373606 7.18814468 32.63745117 C4.96094858 32.65514791 2.73513182 32.64807636 0.50793457 32.63491821 C-0.73757549 32.63730657 -1.98308556 32.63969492 -3.26633835 32.64215565 C-8.48127618 31.88017861 -11.54144406 29.41006293 -14.9664917 25.52217102 C-18.27497943 20.86578087 -18.27481793 16.75185225 -17.6539917 11.14717102 C-13.70323416 3.24565594 -8.54154207 0.02934249 0 0 Z " fill="#000958" transform="translate(177.65399169921875,127.85282897949219)"/>
<path d="M0 0 C1.44901703 -0.0098568 1.44901703 -0.0098568 2.92730713 -0.01991272 C6.13415601 -0.03967357 9.34095798 -0.05131485 12.54785156 -0.0612793 C14.18875134 -0.06739259 14.18875134 -0.06739259 15.8628006 -0.07362938 C21.65332349 -0.09450252 27.4438226 -0.10879857 33.234375 -0.11816406 C39.21780774 -0.12922795 45.20086852 -0.16362438 51.18416977 -0.20333576 C55.78241673 -0.22947378 60.38057474 -0.23785344 64.97888947 -0.24144554 C67.18449667 -0.24631917 69.3900997 -0.25795513 71.59563446 -0.27648354 C74.68384807 -0.30081334 77.77109502 -0.29992088 80.859375 -0.29296875 C81.76973511 -0.30577881 82.68009521 -0.31858887 83.61804199 -0.33178711 C89.14618434 -0.28645453 92.30862128 0.48180611 96.68847656 4.17700195 C101.0874076 9.17038313 102.04523994 12.08715423 101.96972656 18.63793945 C101.41863971 23.61302908 98.68149956 26.30219598 95.06347656 29.48950195 C90.58183336 32.67382738 86.72122984 32.33835783 81.37695312 32.35400391 C79.9279361 32.3638607 79.9279361 32.3638607 78.449646 32.37391663 C75.24279712 32.39367747 72.03599514 32.40531876 68.82910156 32.4152832 C67.18820179 32.42139649 67.18820179 32.42139649 65.51415253 32.42763329 C59.72362963 32.44850643 53.93313053 32.46280247 48.14257812 32.47216797 C42.15914539 32.48323186 36.1760846 32.51762829 30.19278336 32.55733967 C25.59453639 32.58347768 20.99637838 32.59185735 16.39806366 32.59544945 C14.19245646 32.60032307 11.98685343 32.61195904 9.78131866 32.63048744 C6.69310505 32.65481724 3.6058581 32.65392479 0.51757812 32.64697266 C-0.39278198 32.65978271 -1.30314209 32.67259277 -2.24108887 32.68579102 C-7.76923122 32.64045843 -10.93166815 31.87219779 -15.31152344 28.17700195 C-19.71045447 23.18362078 -20.66828681 20.26684968 -20.59277344 13.71606445 C-20.04168659 8.74097482 -17.30454643 6.05180792 -13.68652344 2.86450195 C-9.20488024 -0.31982348 -5.34427672 0.01564607 0 0 Z " fill="#010A58" transform="translate(180.3115234375,287.822998046875)"/>
</svg>
