<?xml version="1.0" encoding="UTF-8"?>
<svg version="1.1" xmlns="http://www.w3.org/2000/svg" width="512" height="512">
<path d="M0 0 C1.3496003 -0.00187215 2.69920006 -0.00417445 4.04879898 -0.00686532 C7.72891758 -0.01293999 11.40901331 -0.01285488 15.08913577 -0.01167095 C19.06955918 -0.01146583 23.04997547 -0.01699627 27.03039551 -0.02172852 C34.81879265 -0.03001219 42.60718222 -0.03278234 50.3955834 -0.03334089 C56.73193358 -0.03381721 63.06828127 -0.03587773 69.40463066 -0.03904152 C87.39916967 -0.04784245 105.39370274 -0.05246186 123.38824392 -0.05171105 C124.35703001 -0.05167109 125.3258161 -0.05163113 126.32395935 -0.05158997 C127.29393889 -0.05154909 128.26391843 -0.0515082 129.26329129 -0.05146609 C144.97056792 -0.05105994 160.67782055 -0.06062295 176.38509024 -0.07472833 C192.54244441 -0.0891225 208.69978689 -0.09599682 224.85714763 -0.09513456 C233.91643885 -0.0948036 242.9757049 -0.09750599 252.03499031 -0.10831261 C259.75050071 -0.11745779 267.46597455 -0.11956014 275.18148804 -0.11280318 C279.11081205 -0.10955792 283.04006607 -0.10940827 286.96938324 -0.11815643 C318.44130815 -0.18361147 348.02388321 0.15948231 371.66648865 23.42668152 C372.55078552 24.32000183 373.4350824 25.21332214 374.34617615 26.13371277 C375.08609802 26.85172058 375.8260199 27.56972839 376.58836365 28.30949402 C393.41137139 45.68890474 396.68229006 69.6258713 396.60014343 92.78190613 C396.60245584 94.17849609 396.60563752 95.57508484 396.60959792 96.9716711 C396.61784766 100.7583977 396.6138661 104.54502182 396.60762548 108.33174849 C396.60306119 112.43543109 396.61010428 116.53909726 396.61558533 120.64277649 C396.6244389 128.66177311 396.62257541 136.68073211 396.61676005 144.69973016 C396.61222759 151.22190676 396.61163748 157.74407288 396.61380768 164.26625061 C396.61411414 165.1975353 396.61442061 166.12882 396.61473636 167.08832544 C396.61537587 168.9807152 396.6160243 170.87310495 396.61668155 172.7654947 C396.62237302 190.47500308 396.61584556 208.18449068 396.60508081 225.89399564 C396.59614638 241.06147685 396.59769876 256.22892743 396.60691833 271.39640808 C396.61764192 289.0462383 396.6218238 306.69605035 396.61569381 324.34588337 C396.61505677 326.23098055 396.61442802 328.11607774 396.61380768 330.00117493 C396.61349913 330.928473 396.61319058 331.85577107 396.61287268 332.81116909 C396.61115199 339.31906857 396.61404727 345.82695644 396.61876678 352.33485413 C396.62439887 360.27501452 396.6228105 368.2151354 396.6122053 376.15529132 C396.60697976 380.19983895 396.60483809 384.24432093 396.6115036 388.28886795 C396.61753048 392.00229437 396.61407889 395.71559523 396.6035485 399.42901051 C396.60031014 401.38483809 396.60672464 403.34067462 396.61366296 405.29649258 C396.51046502 429.02832765 391.14794389 451.06458302 374.0922699 468.41886902 C373.18605896 469.31476746 372.27984802 470.21066589 371.34617615 471.13371277 C370.24982849 472.24552917 370.24982849 472.24552917 369.1313324 473.37980652 C346.2148743 495.27206537 315.34982931 494.44530051 285.70841873 494.39516211 C281.70359567 494.39059203 277.69878933 494.39764367 273.69396973 494.40312195 C265.87095975 494.41196924 258.04798837 494.41011494 250.22497695 494.40429667 C243.86205381 494.39976202 237.49914141 494.39917503 231.13621712 494.4013443 C230.2272708 494.40165077 229.31832449 494.40195723 228.38183435 494.40227298 C226.53478212 494.4029125 224.6877299 494.40356092 222.84067769 494.40421817 C205.56132218 494.40990771 188.28198797 494.40338506 171.00263596 494.39261743 C156.20527347 494.38368167 141.40794237 494.38523686 126.61058044 494.39445496 C109.38740557 494.40517935 92.16424931 494.4093601 74.94107157 494.40323043 C73.10148752 494.40259339 71.26190347 494.40196465 69.42231941 494.4013443 C68.51742921 494.40103575 67.61253901 494.4007272 66.68022789 494.4004093 C60.33111473 494.39868897 53.98201346 494.40158308 47.63290215 494.40630341 C39.88673398 494.41193634 32.14060631 494.41034531 24.39444273 494.39974192 C20.44912565 494.39451773 16.50387586 494.39237236 12.55855942 494.39904022 C-19.3023973 494.44840748 -45.99727643 492.80151935 -70.34132385 469.75871277 C-89.175052 450.13105697 -92.81972014 426.16590536 -92.78753662 400.12512207 C-92.78940922 398.74919723 -92.7917117 397.37327292 -92.79440194 395.99734944 C-92.80047083 392.24915025 -92.8003922 388.50097352 -92.79920757 384.75277054 C-92.79900231 380.69740024 -92.80453419 376.64203692 -92.80926514 372.58666992 C-92.81754518 364.65369621 -92.82031877 356.72072993 -92.82087751 348.78775225 C-92.82135392 342.33461725 -92.82341488 335.88148468 -92.82657814 329.42835045 C-92.8353774 311.10262877 -92.83999864 292.77691294 -92.83924767 274.45118914 C-92.83920771 273.46478375 -92.83916775 272.47837837 -92.83912659 271.46208191 C-92.83908571 270.47446187 -92.83904483 269.48684183 -92.83900271 268.46929391 C-92.83859642 252.4704118 -92.84816356 236.47155323 -92.86226495 220.47267792 C-92.87665469 204.01584367 -92.88353371 187.55902088 -92.88267118 171.10218018 C-92.88234011 161.87470293 -92.8850475 152.64725038 -92.89584923 143.41977882 C-92.90498847 135.56263078 -92.9071015 127.70551863 -92.9003398 119.84836755 C-92.89709183 115.84625137 -92.89695498 111.84420392 -92.90569305 107.84209442 C-92.9681616 77.26113837 -92.44500233 49.12364079 -70.65382385 25.13371277 C-70.11370667 24.50078308 -69.57358948 23.86785339 -69.0171051 23.21574402 C-51.37116215 3.7918723 -24.79501886 -0.03116913 0 0 Z " fill="#ECECEC" transform="translate(103.65382385253906,7.8662872314453125)"/>
<path d="M0 0 C1.3496003 -0.00187215 2.69920006 -0.00417445 4.04879898 -0.00686532 C7.72891758 -0.01293999 11.40901331 -0.01285488 15.08913577 -0.01167095 C19.06955918 -0.01146583 23.04997547 -0.01699627 27.03039551 -0.02172852 C34.81879265 -0.03001219 42.60718222 -0.03278234 50.3955834 -0.03334089 C56.73193358 -0.03381721 63.06828127 -0.03587773 69.40463066 -0.03904152 C87.39916967 -0.04784245 105.39370274 -0.05246186 123.38824392 -0.05171105 C124.35703001 -0.05167109 125.3258161 -0.05163113 126.32395935 -0.05158997 C127.29393889 -0.05154909 128.26391843 -0.0515082 129.26329129 -0.05146609 C144.97056792 -0.05105994 160.67782055 -0.06062295 176.38509024 -0.07472833 C192.54244441 -0.0891225 208.69978689 -0.09599682 224.85714763 -0.09513456 C233.91643885 -0.0948036 242.9757049 -0.09750599 252.03499031 -0.10831261 C259.75050071 -0.11745779 267.46597455 -0.11956014 275.18148804 -0.11280318 C279.11081205 -0.10955792 283.04006607 -0.10940827 286.96938324 -0.11815643 C318.44130815 -0.18361147 348.02388321 0.15948231 371.66648865 23.42668152 C372.55078552 24.32000183 373.4350824 25.21332214 374.34617615 26.13371277 C375.08609802 26.85172058 375.8260199 27.56972839 376.58836365 28.30949402 C393.41137139 45.68890474 396.68229006 69.6258713 396.60014343 92.78190613 C396.60245584 94.17849609 396.60563752 95.57508484 396.60959792 96.9716711 C396.61784766 100.7583977 396.6138661 104.54502182 396.60762548 108.33174849 C396.60306119 112.43543109 396.61010428 116.53909726 396.61558533 120.64277649 C396.6244389 128.66177311 396.62257541 136.68073211 396.61676005 144.69973016 C396.61222759 151.22190676 396.61163748 157.74407288 396.61380768 164.26625061 C396.61411414 165.1975353 396.61442061 166.12882 396.61473636 167.08832544 C396.61537587 168.9807152 396.6160243 170.87310495 396.61668155 172.7654947 C396.62237302 190.47500308 396.61584556 208.18449068 396.60508081 225.89399564 C396.59614638 241.06147685 396.59769876 256.22892743 396.60691833 271.39640808 C396.61764192 289.0462383 396.6218238 306.69605035 396.61569381 324.34588337 C396.61505677 326.23098055 396.61442802 328.11607774 396.61380768 330.00117493 C396.61349913 330.928473 396.61319058 331.85577107 396.61287268 332.81116909 C396.61115199 339.31906857 396.61404727 345.82695644 396.61876678 352.33485413 C396.62439887 360.27501452 396.6228105 368.2151354 396.6122053 376.15529132 C396.60697976 380.19983895 396.60483809 384.24432093 396.6115036 388.28886795 C396.61753048 392.00229437 396.61407889 395.71559523 396.6035485 399.42901051 C396.60031014 401.38483809 396.60672464 403.34067462 396.61366296 405.29649258 C396.51046502 429.02832765 391.14794389 451.06458302 374.0922699 468.41886902 C373.18605896 469.31476746 372.27984802 470.21066589 371.34617615 471.13371277 C370.24982849 472.24552917 370.24982849 472.24552917 369.1313324 473.37980652 C346.2148743 495.27206537 315.34982931 494.44530051 285.70841873 494.39516211 C281.70359567 494.39059203 277.69878933 494.39764367 273.69396973 494.40312195 C265.87095975 494.41196924 258.04798837 494.41011494 250.22497695 494.40429667 C243.86205381 494.39976202 237.49914141 494.39917503 231.13621712 494.4013443 C230.2272708 494.40165077 229.31832449 494.40195723 228.38183435 494.40227298 C226.53478212 494.4029125 224.6877299 494.40356092 222.84067769 494.40421817 C205.56132218 494.40990771 188.28198797 494.40338506 171.00263596 494.39261743 C156.20527347 494.38368167 141.40794237 494.38523686 126.61058044 494.39445496 C109.38740557 494.40517935 92.16424931 494.4093601 74.94107157 494.40323043 C73.10148752 494.40259339 71.26190347 494.40196465 69.42231941 494.4013443 C68.51742921 494.40103575 67.61253901 494.4007272 66.68022789 494.4004093 C60.33111473 494.39868897 53.98201346 494.40158308 47.63290215 494.40630341 C39.88673398 494.41193634 32.14060631 494.41034531 24.39444273 494.39974192 C20.44912565 494.39451773 16.50387586 494.39237236 12.55855942 494.39904022 C-19.3023973 494.44840748 -45.99727643 492.80151935 -70.34132385 469.75871277 C-89.175052 450.13105697 -92.81972014 426.16590536 -92.78753662 400.12512207 C-92.78940922 398.74919723 -92.7917117 397.37327292 -92.79440194 395.99734944 C-92.80047083 392.24915025 -92.8003922 388.50097352 -92.79920757 384.75277054 C-92.79900231 380.69740024 -92.80453419 376.64203692 -92.80926514 372.58666992 C-92.81754518 364.65369621 -92.82031877 356.72072993 -92.82087751 348.78775225 C-92.82135392 342.33461725 -92.82341488 335.88148468 -92.82657814 329.42835045 C-92.8353774 311.10262877 -92.83999864 292.77691294 -92.83924767 274.45118914 C-92.83920771 273.46478375 -92.83916775 272.47837837 -92.83912659 271.46208191 C-92.83908571 270.47446187 -92.83904483 269.48684183 -92.83900271 268.46929391 C-92.83859642 252.4704118 -92.84816356 236.47155323 -92.86226495 220.47267792 C-92.87665469 204.01584367 -92.88353371 187.55902088 -92.88267118 171.10218018 C-92.88234011 161.87470293 -92.8850475 152.64725038 -92.89584923 143.41977882 C-92.90498847 135.56263078 -92.9071015 127.70551863 -92.9003398 119.84836755 C-92.89709183 115.84625137 -92.89695498 111.84420392 -92.90569305 107.84209442 C-92.9681616 77.26113837 -92.44500233 49.12364079 -70.65382385 25.13371277 C-70.11370667 24.50078308 -69.57358948 23.86785339 -69.0171051 23.21574402 C-51.37116215 3.7918723 -24.79501886 -0.03116913 0 0 Z M-15.52882385 44.57121277 C-21.65341669 52.83363518 -23.77226003 61.6365959 -23.78804493 71.80990219 C-23.79039716 72.45878804 -23.79274939 73.10767389 -23.7951729 73.77622294 C-23.80182255 75.94754762 -23.80140591 78.1188119 -23.80099487 80.29014587 C-23.80429599 81.86387194 -23.80802208 83.43759716 -23.81213635 85.01132131 C-23.82213583 89.33386156 -23.82586982 93.65638793 -23.82852566 97.9789381 C-23.83243467 102.64165014 -23.84201241 107.30435124 -23.85073853 111.96705627 C-23.87048335 123.22461584 -23.88056542 134.48217629 -23.88946632 145.73974884 C-23.89385139 151.04220569 -23.89921753 156.34466155 -23.90445518 161.64711761 C-23.92146345 179.27415128 -23.93595843 196.90118433 -23.94320393 214.52822495 C-23.94511378 219.10049694 -23.94703412 223.67276892 -23.94898987 228.24504089 C-23.94947361 229.38143962 -23.94995735 230.51783835 -23.95045575 231.68867341 C-23.95875918 250.10470125 -23.9841032 268.52066421 -24.01657055 286.93666372 C-24.04963676 305.84653077 -24.06765219 324.75636484 -24.07084817 343.66626096 C-24.07301337 354.28253535 -24.08176399 364.89871503 -24.10730934 375.51496124 C-24.1290101 384.55421851 -24.1370697 393.59335806 -24.12734256 402.63263842 C-24.12279643 407.24351774 -24.12470243 411.85415412 -24.144104 416.46500015 C-24.16172556 420.68932138 -24.16074623 424.91322225 -24.14520671 429.13754788 C-24.14282915 430.66244054 -24.14716196 432.18736222 -24.15903536 433.71221051 C-24.24688581 445.7435129 -22.61512364 455.17206741 -14.03663635 464.08293152 C-6.68528254 470.40991635 0.92249546 473.22091418 10.62986755 472.60490417 C20.80351993 471.31498504 30.4597372 466.27720125 39.78367615 462.20011902 C40.80051483 461.75609238 41.81735352 461.31206573 42.86500549 460.85458374 C47.10883807 458.99809603 51.351516 457.13980988 55.58201599 455.25309753 C58.70434484 453.86368255 61.8364614 452.49881235 64.97117615 451.13761902 C66.40094788 450.48944969 66.40094788 450.48944969 67.85960388 449.82818604 C74.49009072 446.9812696 74.49009072 446.9812696 78.65037537 447.72209167 C79.98479675 448.42084412 79.98479675 448.42084412 81.34617615 449.13371277 C82.24223572 449.53436951 83.13829529 449.93502625 84.06150818 450.3478241 C85.44378601 451.02494446 85.44378601 451.02494446 86.85398865 451.71574402 C87.90973083 452.22951599 88.96547302 452.74328796 90.0532074 453.27262878 C91.18113708 453.8249115 92.30906677 454.37719421 93.47117615 454.94621277 C95.88974532 456.11956982 98.30881243 457.29180789 100.72898865 458.46183777 C101.66173615 458.91303734 101.66173615 458.91303734 102.61332703 459.37335205 C108.90360843 462.41154848 115.21623129 465.40090154 121.54631042 468.35523987 C123.29644049 469.17297418 125.04424531 469.99567923 126.79197693 470.81852722 C144.45600956 479.13682768 144.45600956 479.13682768 163.25267029 477.28678894 C170.00857703 474.76858615 176.36978058 471.34468566 182.78367615 468.07121277 C184.31025873 467.29943253 185.83711602 466.52819542 187.36424255 465.75749207 C195.35033742 461.71852363 203.30792399 457.62631109 211.22117615 453.44621277 C211.95481384 453.05973572 212.68845154 452.67325867 213.44432068 452.27507019 C216.62773458 450.59276923 219.79388487 448.88804092 222.9360199 447.12980652 C223.99949646 446.55359558 225.06297302 445.97738464 226.15867615 445.38371277 C227.03137146 444.89386902 227.90406677 444.40402527 228.8032074 443.89933777 C234.0289287 442.32600232 239.33654121 446.00524142 243.9672699 448.32902527 C244.89346886 448.79226448 244.89346886 448.79226448 245.83837891 449.26486206 C247.8222204 450.25873769 249.8029867 451.25857244 251.78367615 452.25871277 C253.14491336 452.94208073 254.5062417 453.62526723 255.86766052 454.30827332 C263.82946212 458.31144288 271.74153236 462.38995831 279.53367615 466.71574402 C287.78034246 470.87343828 296.84042133 471.50281939 305.8891449 469.59855652 C314.18469887 466.66221923 321.17627144 460.98880839 325.37087595 453.24100119 C328.93078526 445.46686644 328.90233751 437.93732453 328.84065247 429.56546021 C328.84383308 427.99581539 328.84876468 426.42617332 328.85528529 424.85653883 C328.86805859 420.56377486 328.85601826 416.27139072 328.83975673 411.97865188 C328.82656021 407.34124517 328.83650889 402.70387946 328.84352112 398.06646729 C328.85358897 388.99016196 328.84234233 379.91400273 328.82382052 370.83771556 C328.80302218 360.26469703 328.8031937 349.69170984 328.80416568 339.1186747 C328.80516631 320.25248147 328.78685992 301.38635612 328.75779724 282.52018738 C328.72961965 264.21906803 328.71545593 245.91800841 328.71678162 227.61686707 C328.71686153 226.48952461 328.71694144 225.36218215 328.71702377 224.2006778 C328.71714484 222.5125688 328.71714484 222.5125688 328.71726835 220.79035658 C328.71864864 199.94597556 328.70686499 179.10161989 328.68896192 158.2572471 C328.68293353 150.88952436 328.68080331 143.52180628 328.67989731 136.15408134 C328.67853189 127.17455813 328.66958653 118.19507763 328.65123169 109.21557253 C328.64200902 104.63524549 328.63589981 100.05497302 328.6384201 95.47463608 C328.64061644 91.27960685 328.63353536 87.08469815 328.61912306 82.88969404 C328.61550849 81.37436936 328.61522399 79.85903218 328.61865763 78.34370708 C328.65056719 62.5043363 325.90616464 49.79738648 314.78367615 37.75871277 C303.93104166 27.58540349 290.79377801 23.81895929 276.20791626 23.87301636 C275.10628295 23.86919081 274.00464964 23.86536526 272.8696335 23.86142379 C269.18883249 23.85112875 265.5081885 23.85507937 261.82737732 23.85905457 C259.18397507 23.85470614 256.54058422 23.84958676 253.89718628 23.84356689 C247.46829831 23.83083849 241.03945215 23.82902392 234.6105537 23.83136716 C229.38247778 23.83315273 224.15441451 23.83139555 218.9263401 23.82714272 C218.18125244 23.82654753 217.43616478 23.82595234 216.6684987 23.82533911 C215.15466401 23.82412731 213.64082933 23.82291318 212.12699465 23.82169674 C197.94000543 23.81082814 183.75303999 23.81298033 169.56604943 23.81908158 C156.60210716 23.82424889 143.63824008 23.81299902 130.67431267 23.79398336 C117.34776294 23.77458641 104.02124874 23.7663523 90.6946848 23.77010661 C83.21895931 23.772016 75.74329779 23.76955683 68.26758385 23.75539207 C61.90260265 23.74345352 55.53772478 23.74210094 49.17274209 23.75418224 C45.92879438 23.76005396 42.68507353 23.75957746 39.44113159 23.74917984 C35.91570981 23.73869704 32.39079098 23.74682603 28.86538696 23.75949097 C27.85232914 23.75211668 26.83927131 23.7447424 25.79551476 23.73714465 C8.20075548 23.86957223 -4.43010109 31.16718785 -15.52882385 44.57121277 Z " fill="#ECECEC" transform="translate(103.65382385253906,7.8662872314453125)"/>
<path d="M0 0 C0.94245496 -0.00445784 1.88490993 -0.00891569 2.85592413 -0.01350862 C3.88304841 -0.01332426 4.91017268 -0.01313989 5.96842194 -0.01294994 C7.06608084 -0.01662663 8.16373975 -0.02030332 9.29466105 -0.02409142 C12.98006816 -0.03512186 16.66544708 -0.03897105 20.35086823 -0.04278088 C22.9905794 -0.04904606 25.63028757 -0.0556803 28.26999664 -0.0626936 C36.19685019 -0.0824324 44.12370496 -0.0925214 52.05057693 -0.10142139 C55.7876225 -0.10580894 59.52466666 -0.11117457 63.26171112 -0.11641026 C75.69192714 -0.13342073 88.12214229 -0.14791324 100.55236816 -0.155159 C103.77621715 -0.15706875 107.00006614 -0.1589891 110.2239151 -0.16094494 C111.02514355 -0.16142868 111.82637199 -0.16191242 112.65188009 -0.16241082 C125.6211427 -0.17070495 138.59031291 -0.19603222 151.55953521 -0.22852562 C164.88825438 -0.26164618 178.21692667 -0.27961231 191.5456872 -0.28280324 C199.02378987 -0.28496382 206.50175781 -0.29364599 213.97982025 -0.31926441 C220.35068351 -0.34103992 226.7213793 -0.3489884 233.09227556 -0.33929763 C236.33854727 -0.33477244 239.58440414 -0.33874525 242.8306427 -0.35605907 C262.1197856 -0.45314771 277.80325829 0.54724852 292.82938385 14.00922108 C301.67206091 23.24525566 306.31885716 35.11889966 306.33860493 47.77917576 C306.34095716 48.42468486 306.34330939 49.07019396 306.3457329 49.73526394 C306.35238209 51.89510191 306.35196592 54.05487914 306.35155487 56.21472645 C306.35485602 57.78020292 306.35858211 59.34567854 306.36269635 60.91115308 C306.37269551 65.21089019 306.37642976 69.51061334 306.37908566 73.81036043 C306.38299476 78.44853239 306.39257249 83.08669336 306.40129852 87.72485828 C306.42104306 98.92309213 306.43112538 110.12132686 306.44002631 121.31957376 C306.44441143 126.59413707 306.44977756 131.86869939 306.45501518 137.14326191 C306.47202342 154.67764929 306.48651839 172.21203604 306.49376392 189.7464304 C306.49567378 194.29463928 306.49759412 198.84284815 306.49954987 203.39105701 C306.50003361 204.52147451 306.50051735 205.65189201 306.50101575 206.81656459 C306.50931915 225.1355947 306.53466313 243.45455959 306.56713054 261.77356121 C306.60019709 280.58398718 306.61821221 299.39437999 306.62140816 318.20483518 C306.62357334 328.76521843 306.63232349 339.32550647 306.65786934 349.8858614 C306.67957055 358.87754169 306.68762948 367.86910364 306.67790256 376.86080715 C306.67335656 381.44738376 306.67526165 386.03371614 306.694664 390.62025928 C306.71228651 394.82237616 306.71130546 399.02407048 306.69576671 403.22619179 C306.69338929 404.74300916 306.69772122 406.25985571 306.70959536 407.77662846 C306.80457649 420.71487351 304.65395338 429.47853608 295.5832901 438.99750233 C289.26652963 444.67117717 282.5065403 446.28437101 274.20438385 446.50922108 C272.98750885 446.55820545 271.77063385 446.60718983 270.51688385 446.65765858 C259.10425551 445.94385848 247.56055889 437.85165349 237.57938385 432.63422108 C236.12910262 431.87985401 234.67858279 431.12594546 233.22782135 430.37250233 C232.52079071 430.00495838 231.81376007 429.63741444 231.08530426 429.2587328 C229.69391488 428.53694628 228.30147674 427.81717743 226.9079361 427.09955311 C223.96492373 425.58240874 221.05041015 424.04731082 218.16629791 422.41937733 C213.46382138 419.70902718 213.46382138 419.70902718 208.2161026 419.50922108 C206.72530182 420.31359608 206.72530182 420.31359608 205.20438385 421.13422108 C203.62821937 421.88560383 202.05131598 422.63543741 200.4739151 423.38422108 C198.65256789 424.29623588 196.83367903 425.21317171 195.01688385 426.13422108 C194.04364166 426.62406483 193.07039948 427.11390858 192.0676651 427.61859608 C185.91296552 430.72800159 179.79720378 433.90554727 173.70438385 437.13422108 C166.66961047 440.85568823 159.61232326 444.52958608 152.51688385 448.13422108 C151.60809479 448.60343983 150.69930573 449.07265858 149.7629776 449.55609608 C141.34180447 453.80416561 132.36869703 457.15506146 122.90726471 454.48627186 C115.14462556 451.65726177 107.72006016 448.2294297 100.26953888 444.67685413 C98.03833686 443.61468048 95.80268124 442.56239442 93.56595612 441.51190662 C86.56708712 438.21599552 79.61148393 434.86352752 72.7395401 431.31000233 C71.05465485 430.4534203 71.05465485 430.4534203 69.33573151 429.57953358 C67.26367053 428.52021972 65.20367157 427.43683979 63.15897369 426.32562733 C62.23423248 425.85640858 61.30949127 425.38718983 60.3567276 424.90375233 C59.57289703 424.48714344 58.78906647 424.07053455 57.98148346 423.64130116 C53.59861359 422.84101801 50.25448774 424.48986915 46.20438385 426.13422108 C45.35933792 426.47666355 44.51429199 426.81910603 43.64363861 427.17192554 C40.84789824 428.33358976 38.06833308 429.52845901 35.29032135 430.73187733 C33.20959646 431.62446542 31.12886716 432.51704324 29.04813385 433.4096117 C25.80447095 434.80632547 22.56142748 436.20446641 19.31864166 437.60321522 C16.16485399 438.96208883 13.00892655 440.31589707 9.85282135 441.66937733 C8.88911621 442.08711918 7.92541107 442.50486103 6.93250275 442.93526173 C-3.49674484 447.40473348 -13.76273023 450.64032902 -25.0885849 447.10687733 C-34.82536292 442.65190031 -41.05903194 436.14964728 -44.9325459 426.2237798 C-46.64263957 420.10210567 -46.336293 413.79418189 -46.29009247 407.49004078 C-46.29327304 405.91214639 -46.29820459 404.33425473 -46.30472529 402.7563706 C-46.31749929 398.44080421 -46.30545771 394.12561561 -46.28919673 389.81007421 C-46.27600076 385.14812745 -46.28594878 380.48622148 -46.29296112 375.82426929 C-46.3030292 366.69983732 -46.29178205 357.57555067 -46.27326052 348.45113676 C-46.25246265 337.82214516 -46.25263369 327.19318475 -46.25360568 316.56417663 C-46.25460633 297.59815496 -46.23629966 278.63220081 -46.20723724 259.6662035 C-46.17905965 241.26807901 -46.16489593 222.87001393 -46.16622162 204.47186756 C-46.16630153 203.33855111 -46.16638144 202.20523467 -46.16646378 201.0375753 C-46.16654449 199.90620592 -46.1666252 198.77483655 -46.16670835 197.60918325 C-46.16808862 176.65456679 -46.15630506 155.69997553 -46.13840192 134.74536724 C-46.13237344 127.33857117 -46.1302433 119.93177975 -46.12933731 112.5249815 C-46.12797192 103.49788124 -46.11902691 94.47082348 -46.10067169 85.44374125 C-46.09144878 80.8391111 -46.0853399 76.23453522 -46.08786011 71.62989521 C-46.09005634 67.41266116 -46.082976 63.19554701 -46.06856306 58.97833795 C-46.0649483 57.45493793 -46.06466419 55.93152548 -46.06809764 54.40812504 C-46.10031295 38.33093962 -43.53584352 26.39684456 -32.17842865 14.45843983 C-23.13700734 5.63934855 -12.91300048 0.0284694 0 0 Z M-11.17061615 38.69672108 C-13.80683014 42.65104206 -13.92022741 45.66495222 -13.91866398 50.31302643 C-13.92065503 51.61482273 -13.92264608 52.91661903 -13.92469746 54.2578637 C-13.92184421 55.71109038 -13.91889861 57.16431689 -13.91587067 58.61754322 C-13.91630648 60.1545583 -13.91718156 61.69157331 -13.91845983 63.22858793 C-13.92070288 67.46320477 -13.91668609 71.69779648 -13.91168177 75.93241012 C-13.90737474 80.49477221 -13.90882388 85.0571328 -13.90958405 89.61949635 C-13.91010912 97.52776585 -13.90696404 105.43602712 -13.90134621 113.34429455 C-13.89322898 124.77840846 -13.89061576 136.21251838 -13.88935822 147.64663485 C-13.88716805 166.19645427 -13.88050891 184.74626929 -13.8710556 203.29608631 C-13.86188058 221.31854702 -13.85480019 239.34100655 -13.85054779 257.36346912 C-13.85028507 258.47384331 -13.85002234 259.58421749 -13.84975166 260.72823938 C-13.84844665 266.29850198 -13.84718293 271.86876458 -13.84593976 277.43902719 C-13.83556824 323.67076153 -13.81795087 369.90249108 -13.79561615 416.13422108 C-11.74405063 415.3524579 -9.69319461 414.56883266 -7.64263153 413.78444386 C-6.50048376 413.34826646 -5.35833599 412.91208906 -4.18157768 412.46269417 C0.69205095 410.55053881 5.45552794 408.42059904 10.22782135 406.27093983 C12.25840347 405.37424358 14.28967534 404.47910795 16.32157135 403.58539295 C19.4564467 402.20560627 22.5866931 400.81840829 25.70633698 399.40448475 C50.82100004 388.04882118 50.82100004 388.04882118 64.29447174 392.05243397 C67.36791294 393.25510674 70.26210778 394.64035445 73.20438385 396.13422108 C75.43990234 397.18924469 77.67558627 398.2439178 79.9114151 399.29828358 C81.67229084 400.15337271 83.43313611 401.00853375 85.19187164 401.86801624 C87.06474045 402.7825908 88.94011692 403.69183654 90.81620026 404.59979725 C96.87341147 407.53290369 102.9207761 410.48495297 108.9582901 413.45843983 C110.99862331 414.45459785 113.03898615 415.45069517 115.07938385 416.44672108 C116.00468903 416.90836658 116.9299942 417.37001209 117.88333893 417.84564686 C118.74983063 418.26700916 119.61632233 418.68837147 120.50907135 419.12250233 C121.25141022 419.48899891 121.99374908 419.85549549 122.75858307 420.23309803 C127.30779356 421.90919465 130.79429584 422.61396907 135.45145416 421.02948475 C137.10032623 420.17447376 137.10032623 420.17447376 138.78250885 419.30218983 C139.68929634 418.84126186 139.68929634 418.84126186 140.61440277 418.37102222 C142.57031066 417.37149594 144.51193028 416.34711126 146.45438385 415.32172108 C147.80945233 414.62337527 149.16533518 413.92660749 150.5220108 413.23138905 C154.42867697 411.22260271 158.31867688 409.1831954 162.20438385 407.13422108 C163.1774649 406.62230213 164.15054596 406.11038319 165.15311432 405.58295155 C168.30512914 403.92189166 171.45564609 402.25818901 174.59989166 400.58246326 C200.15005961 387.03434642 200.15005961 387.03434642 209.64188385 386.75922108 C210.77496979 386.7102367 211.90805573 386.66125233 213.0754776 386.61078358 C223.4662889 387.28517146 233.99147555 394.38335788 243.17728424 399.017766 C245.26540896 400.07097717 247.35667976 401.11771797 249.44852448 402.16351795 C256.43846564 405.66875951 263.35839385 409.2472927 270.16312408 413.10516834 C272.12103718 414.28427402 272.12103718 414.28427402 274.20438385 414.13422108 C274.31880473 367.13461431 274.40692029 320.13502227 274.4597105 273.13530371 C274.4659641 267.58774208 274.47243571 262.04018073 274.47904205 256.49261951 C274.48035361 255.38819053 274.48166516 254.28376155 274.48301645 253.14586502 C274.50477856 235.25834821 274.54420456 217.37091167 274.59014783 199.48344249 C274.63689 181.13200748 274.66467452 162.78061454 274.67482632 144.42912245 C274.68169011 133.10339596 274.70337604 121.77789635 274.74396618 110.45223969 C274.77037686 102.68793765 274.77838862 94.92375306 274.77189074 87.15940934 C274.76868525 82.67837297 274.77363126 78.19773331 274.80041122 73.71676731 C274.82475705 69.61313344 274.82596312 65.51016276 274.80887832 61.40649825 C274.80676705 59.92317606 274.81309887 58.43981235 274.82879976 56.95657176 C275.04996145 46.67217902 275.04996145 46.67217902 270.71911591 37.65146351 C265.66169603 32.58566195 261.35335059 31.67703453 254.42374706 31.59924746 C252.92067863 31.61263179 252.92067863 31.61263179 251.38724518 31.62628651 C250.30814534 31.62004654 249.22904551 31.61380658 248.11724567 31.60737753 C244.50674558 31.5914418 240.89692003 31.60405472 237.2864151 31.61664295 C234.69578406 31.61122213 232.10515611 31.60409969 229.514534 31.59540272 C223.21179692 31.57763488 216.9092506 31.58144965 210.60650611 31.59305328 C205.48324251 31.6020942 200.36003229 31.60330876 195.236763 31.59895802 C194.50703712 31.59834508 193.77731125 31.59773215 193.02547246 31.59710065 C191.5429553 31.59582172 190.06043816 31.59452486 188.57792103 31.59321028 C174.68288245 31.58180957 160.7879495 31.59491016 146.89292824 31.61641175 C134.97553503 31.63428229 123.05829768 31.63117804 111.14090729 31.6127367 C97.29491581 31.59132096 83.44901686 31.58290816 69.60301113 31.59518576 C68.126009 31.59645993 66.64900686 31.59771741 65.1720047 31.59895802 C64.44532949 31.59957512 63.71865428 31.60019222 62.9699586 31.60082802 C57.85403678 31.60427882 52.73817376 31.59845843 47.62226105 31.5890398 C40.73408633 31.57663688 33.84621076 31.58549264 26.95806503 31.60861683 C24.42928939 31.61390822 21.90048898 31.61238286 19.37172318 31.60356617 C15.92132112 31.59264482 12.47186427 31.60633469 9.02152252 31.62628651 C7.51845409 31.61290218 7.51845409 31.61290218 5.98502064 31.59924746 C-1.42172257 31.68239058 -5.98654001 33.10337576 -11.17061615 38.69672108 Z " fill="#003668" transform="translate(125.79561614990234,31.865778923034668)"/>
<path d="M0 0 C0.6875958 -0.00297112 1.37519161 -0.00594224 2.08362365 -0.0090034 C4.39892126 -0.01770878 6.71416728 -0.0192002 9.02947998 -0.02069092 C10.68504447 -0.02531786 12.34060788 -0.03034235 13.99617004 -0.03573608 C18.5025087 -0.04887555 23.00883244 -0.05530825 27.51518726 -0.05974674 C30.32974512 -0.06267546 33.14429888 -0.06677991 35.95885468 -0.07125092 C44.76239639 -0.08493097 53.56592876 -0.09459469 62.36948037 -0.09845281 C72.53627004 -0.10293258 82.7029252 -0.12047461 92.86967397 -0.1494534 C100.72452294 -0.17106604 108.57933406 -0.18115689 116.43421245 -0.18249393 C121.12706464 -0.18354241 125.81979047 -0.18945925 130.51261139 -0.20731354 C134.92849778 -0.22378662 139.34416274 -0.22595345 143.76006889 -0.21717453 C145.37978902 -0.2164037 146.99952102 -0.22075295 148.6192112 -0.23063278 C150.83307419 -0.24334348 153.04615198 -0.23748084 155.26000977 -0.22705078 C157.11721334 -0.22925062 157.11721334 -0.22925062 159.01193619 -0.2314949 C163.39846009 0.25234028 166.78539691 1.64818518 170.02850342 4.67559814 C174.21761769 10.15367065 175.00549619 13.32669708 174.38397217 20.14044189 C172.55862626 25.41366342 169.77678014 27.93735275 165.38397217 31.14044189 C161.94233542 32.28765414 159.27934682 32.27505344 155.64768982 32.28761292 C154.95923959 32.2912896 154.27078936 32.29496629 153.56147701 32.29875439 C151.24929014 32.30978768 148.93714822 32.31363444 146.62493896 32.31744385 C144.96922666 32.32370871 143.31351576 32.33035553 141.6578064 32.33735657 C136.21627786 32.3583944 130.77474905 32.36875777 125.33319092 32.37872314 C123.46019793 32.38277062 121.5872051 32.38688753 119.71421242 32.39107323 C110.91601606 32.41012323 102.11782809 32.42435542 93.31961507 32.4326852 C83.16128583 32.44246138 73.00317428 32.46879162 62.84492177 32.50918609 C54.9942998 32.53933387 47.14374029 32.55415275 39.29306155 32.55746621 C34.60353204 32.55981798 29.91423514 32.56879503 25.22476768 32.59392738 C20.81292559 32.61719014 16.40146957 32.62144865 11.98958206 32.611166 C10.37146662 32.61067011 8.75333228 32.61700626 7.13527489 32.63072205 C4.92345588 32.64842017 2.71302562 32.64134667 0.50120544 32.62818909 C-1.35404991 32.63177162 -1.35404991 32.63177162 -3.24678516 32.63542652 C-8.42194862 31.87512915 -11.48422427 29.3946026 -14.92852783 25.57794189 C-18.07288719 21.03608949 -18.27640867 16.49686424 -17.61602783 11.14044189 C-13.60815543 3.27313681 -8.56047692 0.02059192 0 0 Z " fill="#003568" transform="translate(177.61602783203125,207.85955810546875)"/>
<path d="M0 0 C0.6875958 -0.00297112 1.37519161 -0.00594224 2.08362365 -0.0090034 C4.39892126 -0.01770878 6.71416728 -0.0192002 9.02947998 -0.02069092 C10.68504447 -0.02531786 12.34060788 -0.03034235 13.99617004 -0.03573608 C18.5025087 -0.04887555 23.00883244 -0.05530825 27.51518726 -0.05974674 C30.32974512 -0.06267546 33.14429888 -0.06677991 35.95885468 -0.07125092 C44.76239639 -0.08493097 53.56592876 -0.09459469 62.36948037 -0.09845281 C72.53627004 -0.10293258 82.7029252 -0.12047461 92.86967397 -0.1494534 C100.72452294 -0.17106604 108.57933406 -0.18115689 116.43421245 -0.18249393 C121.12706464 -0.18354241 125.81979047 -0.18945925 130.51261139 -0.20731354 C134.92849778 -0.22378662 139.34416274 -0.22595345 143.76006889 -0.21717453 C145.37978902 -0.2164037 146.99952102 -0.22075295 148.6192112 -0.23063278 C150.83307419 -0.24334348 153.04615198 -0.23748084 155.26000977 -0.22705078 C157.11721334 -0.22925062 157.11721334 -0.22925062 159.01193619 -0.2314949 C163.39846009 0.25234028 166.78539691 1.64818518 170.02850342 4.67559814 C174.21761769 10.15367065 175.00549619 13.32669708 174.38397217 20.14044189 C172.55862626 25.41366342 169.77678014 27.93735275 165.38397217 31.14044189 C161.94233542 32.28765414 159.27934682 32.27505344 155.64768982 32.28761292 C154.95923959 32.2912896 154.27078936 32.29496629 153.56147701 32.29875439 C151.24929014 32.30978768 148.93714822 32.31363444 146.62493896 32.31744385 C144.96922666 32.32370871 143.31351576 32.33035553 141.6578064 32.33735657 C136.21627786 32.3583944 130.77474905 32.36875777 125.33319092 32.37872314 C123.46019793 32.38277062 121.5872051 32.38688753 119.71421242 32.39107323 C110.91601606 32.41012323 102.11782809 32.42435542 93.31961507 32.4326852 C83.16128583 32.44246138 73.00317428 32.46879162 62.84492177 32.50918609 C54.9942998 32.53933387 47.14374029 32.55415275 39.29306155 32.55746621 C34.60353204 32.55981798 29.91423514 32.56879503 25.22476768 32.59392738 C20.81292559 32.61719014 16.40146957 32.62144865 11.98958206 32.611166 C10.37146662 32.61067011 8.75333228 32.61700626 7.13527489 32.63072205 C4.92345588 32.64842017 2.71302562 32.64134667 0.50120544 32.62818909 C-1.35404991 32.63177162 -1.35404991 32.63177162 -3.24678516 32.63542652 C-8.42194862 31.87512915 -11.48422427 29.3946026 -14.92852783 25.57794189 C-18.07288719 21.03608949 -18.27640867 16.49686424 -17.61602783 11.14044189 C-13.60815543 3.27313681 -8.56047692 0.02059192 0 0 Z " fill="#003568" transform="translate(177.61602783203125,127.85955810546875)"/>
<path d="M0 0 C1.43438667 -0.00744736 1.43438667 -0.00744736 2.89775085 -0.01504517 C6.07214062 -0.02969075 9.24648039 -0.03647339 12.42089844 -0.04199219 C14.62327069 -0.04774243 16.82564292 -0.05350017 19.02801514 -0.05926514 C23.6516544 -0.06978246 28.27527623 -0.07562009 32.89892578 -0.07910156 C38.82175738 -0.08458256 44.74435866 -0.10859924 50.66711807 -0.13707352 C55.21904165 -0.1557054 59.77090986 -0.16090583 64.32286835 -0.16243744 C66.5061341 -0.16546411 68.68939888 -0.17349311 70.87262726 -0.18662262 C73.92958527 -0.20369152 76.98598231 -0.20180044 80.04296875 -0.1953125 C81.3944828 -0.20913467 81.3944828 -0.20913467 82.77330017 -0.22323608 C88.56559219 -0.18475834 93.00985241 0.57496782 97.42480469 4.69628906 C101.61391896 10.17436157 102.40179746 13.347388 101.78027344 20.16113281 C99.95492752 25.43435434 97.17308141 27.95804367 92.78027344 31.16113281 C90.07113237 32.06417984 88.48516461 32.29177003 85.70146179 32.30830383 C84.87300751 32.31545914 84.04455322 32.32261444 83.19099426 32.32998657 C82.28548325 32.33267548 81.37997223 32.33536438 80.44702148 32.33813477 C79.49061768 32.34470596 78.53421387 32.35127716 77.54882812 32.35804749 C74.37988203 32.37777836 71.21098331 32.38944204 68.04199219 32.39941406 C66.96000864 32.40348959 65.87802509 32.40756512 64.76325417 32.41176414 C59.03756526 32.43262299 53.31190032 32.44692609 47.58618164 32.45629883 C41.67115714 32.46736881 35.75650826 32.50177632 29.84161663 32.54147053 C25.29398394 32.56760731 20.7464412 32.57598802 16.19874001 32.57958031 C14.01825229 32.58445307 11.83776877 32.59608657 9.65735435 32.6146183 C6.60516896 32.63894891 3.55396154 32.63805571 0.50170898 32.63110352 C-0.39772934 32.64391357 -1.29716766 32.65672363 -2.22386169 32.66992188 C-7.7253545 32.62427636 -10.85541003 31.8267324 -15.21972656 28.16113281 C-19.52200246 23.39374601 -20.58255159 19.72365986 -20.50097656 13.44238281 C-19.91153268 8.66133795 -17.0715186 5.91152103 -13.59472656 2.84863281 C-9.13267584 -0.32177165 -5.32080801 0.00654259 0 0 Z " fill="#013567" transform="translate(180.2197265625,287.8388671875)"/>
</svg>
