<?xml version="1.0" encoding="UTF-8"?>
<svg version="1.1" xmlns="http://www.w3.org/2000/svg" width="512" height="512">
<path d="M0 0 C1.12572678 -0.0060911 2.25145356 -0.01218221 3.41129327 -0.01845789 C7.16185265 -0.03503055 10.9120704 -0.0303201 14.66265869 -0.0255127 C17.36060743 -0.03285639 20.0585311 -0.04135152 22.75646973 -0.05117798 C29.31176423 -0.07217257 35.86697018 -0.07677625 42.42229435 -0.07499009 C47.75470787 -0.07367933 53.08709391 -0.07750259 58.41950226 -0.08491516 C59.95907855 -0.0870145 61.49865484 -0.0891121 63.03823113 -0.09120798 C63.80467495 -0.09225151 64.57111876 -0.09329504 65.36078814 -0.09437019 C79.83783507 -0.11324882 94.31483127 -0.1122298 108.79188541 -0.10540086 C122.01238463 -0.0998284 135.23268989 -0.12064236 148.45314381 -0.15376133 C162.05211388 -0.18756208 175.65099122 -0.20265865 189.25000405 -0.1980443 C196.87507191 -0.19580589 204.49996057 -0.20095016 212.12499237 -0.22593689 C218.61762026 -0.24703288 225.10997071 -0.2504605 231.60261032 -0.2316373 C234.90995265 -0.22252935 238.21635939 -0.22393386 241.52372742 -0.24199295 C260.65215936 -0.3391932 275.26072243 0.52874703 289.56207275 14.49206543 C297.72822894 23.09840475 302.65070255 33.23166277 302.67649078 45.23491192 C302.68059605 45.88941754 302.68470132 46.54392316 302.68893099 47.21826228 C302.70020435 49.40276193 302.69736493 51.58700671 302.69451904 53.77153015 C302.69969015 55.3570703 302.70571754 56.94260784 302.71252584 58.5281418 C302.72862749 62.87877813 302.73224283 67.22934841 302.73372078 71.58001101 C302.73742855 76.27479414 302.7525265 80.96954325 302.76599121 85.66430664 C302.79313076 95.92676252 302.80520282 106.18920274 302.81401253 116.45168853 C302.81954148 122.86158246 302.8280169 129.27147038 302.83702087 135.68136024 C302.86140177 153.43453053 302.88200187 171.18769601 302.88877106 188.94088268 C302.88942976 190.64453129 302.88942976 190.64453129 302.89010176 192.38259705 C302.89053832 193.52104981 302.89097487 194.65950257 302.89142466 195.83245391 C302.89231158 198.13931986 302.89320471 200.44618581 302.894104 202.75305176 C302.89476829 204.46947243 302.89476829 204.46947243 302.895446 206.22056828 C302.90334179 224.76132026 302.93825123 243.30191502 302.98482305 261.84260627 C303.03227053 280.88586106 303.05717565 299.92903699 303.05950689 318.97235185 C303.06133918 329.66138005 303.07281302 340.35020334 303.10914612 351.03917503 C303.1399757 360.1409769 303.15017291 369.24251049 303.13366991 378.34435465 C303.12586664 382.9859779 303.12766683 387.62706114 303.15578461 392.26861763 C303.18132313 396.52340348 303.17881711 400.77724528 303.15460318 405.03203038 C303.15069941 406.56568095 303.1567994 408.09939908 303.17429191 409.63295486 C303.29031991 420.49878539 301.70511927 429.59504258 294.13818598 437.88825864 C286.46399411 445.23092687 278.80615567 447.37281185 268.4019165 447.72253418 C259.16693907 446.70849744 251.13593901 442.52247308 242.97613525 438.33190918 C241.84466064 437.7598877 240.71318604 437.18786621 239.54742432 436.59851074 C234.23754225 433.90383182 228.95451688 431.16491777 223.706604 428.35144043 C222.84800781 427.89197021 221.98941162 427.4325 221.10479736 426.95910645 C219.52399468 426.10775906 217.94764024 425.248078 216.37677002 424.37854004 C215.6722168 423.99705811 214.96766357 423.61557617 214.24176025 423.22253418 C213.64266846 422.89156738 213.04357666 422.56060059 212.42633057 422.21960449 C208.97597662 420.80497611 206.14341716 419.81677648 202.46551514 421.04495239 C200.16054811 422.10518004 197.93514533 423.26310282 195.70269775 424.46862793 C194.8652301 424.90421021 194.02776245 425.33979248 193.16491699 425.78857422 C190.44834996 427.20530788 187.74386481 428.6436651 185.03863525 430.08190918 C183.17906916 431.05483373 181.31855085 432.02594042 179.45709229 432.99523926 C175.78356794 434.90957627 172.11363429 436.83049797 168.44683838 438.75769043 C162.09105011 442.0935981 155.70219696 445.35849942 149.28863525 448.58190918 C147.89958984 449.29190063 147.89958984 449.29190063 146.48248291 450.01623535 C136.94764687 454.81256324 127.24398561 457.59998751 116.61920166 454.6072998 C106.09922854 450.48210248 96.03371953 445.46783353 85.91363525 440.45690918 C84.10791708 439.56638468 82.30192888 438.67640748 80.4956665 437.7869873 C79.61451172 437.35308685 78.73335693 436.9191864 77.82550049 436.47213745 C74.44679266 434.81198467 71.06351271 433.16125589 67.68023682 431.51043701 C65.60548174 430.48887043 63.54368923 429.44532505 61.48394775 428.3939209 C60.35730713 427.83591797 59.2306665 427.27791504 58.06988525 426.70300293 C57.12951416 426.22532471 56.18914307 425.74764648 55.22027588 425.25549316 C47.72005276 422.95440697 40.63528548 427.21983244 33.89019775 430.23425293 C32.78944916 430.71640762 31.68870056 431.19856232 30.55459595 431.69532776 C27.04562258 433.23270046 23.54163825 434.78098518 20.03863525 436.33190918 C15.43070786 438.3712284 10.81816619 440.39956897 6.20269775 442.42175293 C5.15554596 442.88951645 4.10839417 443.35727997 3.0295105 443.83921814 C-7.81993026 448.59179597 -17.43181407 451.21979428 -29.03167725 447.42956543 C-38.07121759 443.76675474 -43.9230687 437.88495857 -48.14316136 429.18497676 C-49.66758375 425.5675253 -49.96319728 422.47178344 -49.96668148 418.5226717 C-49.97367136 417.53584815 -49.97367136 417.53584815 -49.98080245 416.52908877 C-49.99271722 414.33297334 -49.9833711 412.13748065 -49.9740448 409.94136047 C-49.9782193 408.34756984 -49.98369745 406.75378218 -49.99036461 405.16000003 C-50.0048233 400.78651446 -50.00057313 396.41321727 -49.9931978 392.03972137 C-49.98846935 387.32039804 -50.00097329 382.60111565 -50.01121521 377.88180542 C-50.02841626 368.63767923 -50.02924032 359.39362098 -50.02400231 350.14948294 C-50.01996095 342.63401298 -50.02140377 335.1185631 -50.02675056 327.6030941 C-50.02749899 326.53344241 -50.02824741 325.46379071 -50.02901851 324.36172533 C-50.03055 322.18868583 -50.03208834 320.01564635 -50.03363348 317.84260686 C-50.04736385 297.46026915 -50.04191759 277.0779698 -50.03044827 256.69563296 C-50.02052061 238.05791751 -50.03344753 219.4203014 -50.05738246 200.78260127 C-50.08178037 181.63990132 -50.09137929 162.49724761 -50.08472973 143.35453242 C-50.08123837 132.60967063 -50.08346382 121.8648852 -50.10098076 111.12003517 C-50.11571158 101.97068728 -50.11632689 92.82146949 -50.09890985 83.67212413 C-50.09040378 79.00631844 -50.08824058 74.34074506 -50.1035614 69.67495155 C-50.11743071 65.3981237 -50.11261664 61.12172666 -50.09332217 56.84492358 C-50.08956863 55.30320801 -50.0924654 53.76145775 -50.10293382 52.21977315 C-50.20406573 36.17676199 -46.25676073 24.48210603 -35.27386475 12.64440918 C-25.16324596 3.07543068 -13.61202511 -0.07005622 0 0 Z M-13.52386475 38.14440918 C-16.93668207 43.52218194 -17.83676292 48.68628117 -17.8324604 54.98731899 C-17.8364425 56.27966251 -17.8404246 57.57200602 -17.84452736 58.90351146 C-17.8388223 60.32531839 -17.83293113 61.74712458 -17.82687378 63.16893005 C-17.82774639 64.6887739 -17.82949839 66.20861746 -17.83205211 67.72845942 C-17.83651874 71.89706024 -17.82853137 76.06555806 -17.81849599 80.23414576 C-17.80985393 84.73236053 -17.81278219 89.23056955 -17.81430054 93.72879028 C-17.81534891 101.51968193 -17.80907729 109.31054005 -17.79782486 117.10142326 C-17.78156637 128.36570917 -17.77636149 139.62997888 -17.77384888 150.89427526 C-17.76947232 169.17012661 -17.75616429 187.4459601 -17.73724365 205.72180176 C-17.71888383 223.47440502 -17.70472782 241.22700342 -17.69622803 258.97961426 C-17.69570258 260.07400257 -17.69517713 261.16839088 -17.69463576 262.29594248 C-17.69202568 267.78620216 -17.68949826 273.27646187 -17.68701196 278.76672161 C-17.6662807 324.3092965 -17.63105624 369.85185192 -17.58636475 415.39440918 C-16.14002161 414.91646773 -14.69403289 414.43745365 -13.24819565 413.95798397 C-12.44292301 413.69134754 -11.63765037 413.42471111 -10.80797553 413.14999479 C-8.46097267 412.35176244 -6.18591494 411.45997221 -3.91546631 410.46496582 C-3.1172345 410.11772964 -2.31900269 409.77049347 -1.49658203 409.41273499 C-0.66511658 409.04703903 0.16634888 408.68134308 1.02301025 408.30456543 C2.84845962 407.51208308 4.67398279 406.71977072 6.49957275 405.9276123 C9.32850534 404.69490811 12.15646153 403.46005188 14.98297119 402.22180176 C48.19279687 387.69467644 48.19279687 387.69467644 62.34136963 392.35974121 C65.34985907 393.61259581 68.24919681 394.99886992 71.16363525 396.45690918 C72.24765625 396.97696533 73.33167725 397.49702148 74.44854736 398.03283691 C77.45416675 399.48003389 80.44914258 400.94584369 83.44042969 402.42224121 C88.47697163 404.90366779 93.5278073 407.35600926 98.57672119 409.81213379 C101.45872034 411.21439682 104.33505367 412.6273938 107.20758057 414.0489502 C108.54835257 414.70717036 109.88917078 415.3652964 111.2300415 416.02331543 C112.39994629 416.60154053 113.56985107 417.17976563 114.77520752 417.7755127 C115.97588867 418.30974854 117.17656982 418.84398437 118.41363525 419.39440918 C119.10627975 419.7339563 119.79892426 420.07350342 120.51255798 420.42333984 C123.82061375 421.83926899 126.21988055 422.67737718 129.78581238 421.83210754 C132.41428714 420.71436612 134.86770653 419.43299387 137.362854 418.04284668 C138.76372002 417.30984848 138.76372002 417.30984848 140.19288635 416.56204224 C143.17805022 414.99231548 146.13921692 413.38249539 149.10113525 411.76940918 C151.04039495 410.73794669 152.98114165 409.70927484 154.92340088 408.68347168 C158.80446952 406.63084892 162.67996964 404.56821739 166.55255127 402.49963379 C172.47739727 399.34842908 178.43438221 396.2654958 184.42144775 393.23425293 C185.32034225 392.77267792 186.21923676 392.31110291 187.14537048 391.83554077 C197.82320842 386.47082197 206.75361748 385.41376443 218.41363525 388.39440918 C222.53055312 390.01637507 226.42737554 391.9906405 230.3550415 394.02331543 C231.98928322 394.84786476 231.98928322 394.84786476 233.65653992 395.68907166 C237.10326275 397.43187108 240.53968092 399.19396351 243.97613525 400.95690918 C246.31727485 402.14505413 248.65906612 403.33191596 251.00152588 404.51745605 C256.12341537 407.1126878 261.23889596 409.72006902 266.34895325 412.33851624 C267.70077786 413.02984888 269.05558647 413.71538479 270.41363525 414.39440918 C270.48229723 367.92137998 270.53516194 321.44835614 270.56683124 274.97528622 C270.57058338 269.48909861 270.57446634 264.0029111 270.57843018 258.51672363 C270.57921711 257.42451942 270.58000404 256.33231521 270.58081482 255.2070139 C270.59386983 237.52066207 270.61752421 219.83433949 270.64509364 202.14800502 C270.67314517 184.00109424 270.68981098 165.85419879 270.69590074 147.70726722 C270.7000177 136.50905079 270.71302231 125.31091702 270.73738465 114.11272603 C270.7532387 106.43440082 270.75803635 98.75611837 270.75413939 91.07777799 C270.75221734 86.64734836 270.75517027 82.21706321 270.77125168 77.78665924 C270.78587555 73.72813414 270.78657152 69.66985038 270.77633194 65.61131405 C270.77506682 64.14547908 270.77885132 62.67962891 270.7882848 61.21382374 C271.12003049 48.82124626 271.12003049 48.82124626 266.1386773 37.82034498 C259.77415189 31.93737924 252.04111713 32.10203194 243.91366577 32.13371277 C242.86864549 32.12988722 241.8236252 32.12606167 240.74693763 32.1221202 C237.25183357 32.11181697 233.75689461 32.11577732 230.26177979 32.11975098 C227.75321297 32.11540303 225.24464749 32.1102196 222.73608398 32.10426331 C216.63324872 32.0922615 210.53047413 32.08972086 204.42762937 32.09206357 C199.46553044 32.09384852 194.50344484 32.0920933 189.5413475 32.08783913 C188.83440196 32.08724394 188.12745642 32.08664875 187.39908829 32.08603552 C185.9627986 32.08482374 184.52650892 32.0836096 183.09021924 32.08239315 C169.62817201 32.07152299 156.16614983 32.07367758 142.70410119 32.07977799 C130.39832832 32.08494634 118.09263462 32.07369297 105.78687741 32.05467977 C93.14063607 32.03529083 80.49443218 32.02704725 67.84817588 32.03080302 C60.75255914 32.03271351 53.65700978 32.03024242 46.56140518 32.01608849 C39.88831834 32.00291171 33.21541548 32.00544903 26.54232025 32.01849937 C24.09500703 32.02086593 21.64768268 32.01812767 19.20038223 32.00987625 C15.85592838 31.99941418 12.51200686 32.00750573 9.16757202 32.02018738 C8.20247967 32.01281309 7.23738732 32.00543881 6.24304974 31.99784106 C-0.80415671 32.05393638 -8.50348449 32.64636156 -13.52386475 38.14440918 Z " fill="#000859" transform="translate(129.58636474609375,31.6055908203125)"/>
<path d="M0 0 C1.05489624 -0.00935994 1.05489624 -0.00935994 2.13110352 -0.01890898 C4.47576936 -0.03479977 6.81938988 -0.02225106 9.1640625 -0.00964355 C10.84977828 -0.01506645 12.53548932 -0.02219005 14.22119141 -0.03088379 C18.79145963 -0.04910026 23.36136618 -0.04205658 27.93164062 -0.02936745 C32.71745774 -0.01923109 37.50324416 -0.02863489 42.2890625 -0.03491211 C50.32557731 -0.04218666 58.36194503 -0.03260586 66.3984375 -0.0135498 C75.68597197 0.00821857 84.97315519 0.00116706 94.26068115 -0.02085543 C102.23877974 -0.0390149 110.21677267 -0.04156507 118.19488525 -0.03110075 C122.95810706 -0.02486883 127.72116384 -0.02402189 132.484375 -0.0372467 C136.96279317 -0.04881255 141.44075904 -0.04076615 145.91912842 -0.01766968 C147.56141408 -0.0123865 149.20373788 -0.01388971 150.8460083 -0.02272034 C153.09055875 -0.03367555 155.33366615 -0.01991476 157.578125 0 C158.83318848 0.0015081 160.08825195 0.0030162 161.38134766 0.00457001 C166.5664884 0.77048389 169.61909387 3.27638864 173.1640625 7.00793457 C175.56209825 12.17293466 175.54287785 16.90816337 174.7890625 22.50793457 C172.47916652 27.48309515 169.50950231 29.82698187 164.7890625 32.50793457 C161.38134766 33.01129913 161.38134766 33.01129913 157.578125 33.01586914 C156.52322876 33.02522908 156.52322876 33.02522908 155.44702148 33.03477812 C153.10235564 33.05066891 150.75873512 33.0381202 148.4140625 33.0255127 C146.72834672 33.03093559 145.04263568 33.03805919 143.35693359 33.04675293 C138.78666537 33.0649694 134.21675882 33.05792572 129.64648438 33.04523659 C124.86066726 33.03510023 120.07488084 33.04450404 115.2890625 33.05078125 C107.25254769 33.0580558 99.21617997 33.048475 91.1796875 33.02941895 C81.89215303 33.00765057 72.60496981 33.01470208 63.31744385 33.03672457 C55.33934526 33.05488404 47.36135233 33.05743421 39.38323975 33.04696989 C34.62001794 33.04073798 29.85696116 33.03989103 25.09375 33.05311584 C20.61533183 33.06468169 16.13736596 33.05663529 11.65899658 33.03353882 C10.01671092 33.02825564 8.37438712 33.02975885 6.7321167 33.03858948 C4.48756625 33.04954469 2.24445885 33.0357839 0 33.01586914 C-1.25506348 33.01436104 -2.51012695 33.01285294 -3.80322266 33.01129913 C-8.9883634 32.24538525 -12.04096887 29.7394805 -15.5859375 26.00793457 C-17.98397325 20.84293448 -17.96475285 16.10770577 -17.2109375 10.50793457 C-13.71687306 2.98225731 -8.11362412 0.00974945 0 0 Z " fill="#00085A" transform="translate(177.2109375,207.4920654296875)"/>
<path d="M0 0 C1.05489624 -0.00935994 1.05489624 -0.00935994 2.13110352 -0.01890898 C4.47576936 -0.03479977 6.81938988 -0.02225106 9.1640625 -0.00964355 C10.84977828 -0.01506645 12.53548932 -0.02219005 14.22119141 -0.03088379 C18.79145963 -0.04910026 23.36136618 -0.04205658 27.93164062 -0.02936745 C32.71745774 -0.01923109 37.50324416 -0.02863489 42.2890625 -0.03491211 C50.32557731 -0.04218666 58.36194503 -0.03260586 66.3984375 -0.0135498 C75.68597197 0.00821857 84.97315519 0.00116706 94.26068115 -0.02085543 C102.23877974 -0.0390149 110.21677267 -0.04156507 118.19488525 -0.03110075 C122.95810706 -0.02486883 127.72116384 -0.02402189 132.484375 -0.0372467 C136.96279317 -0.04881255 141.44075904 -0.04076615 145.91912842 -0.01766968 C147.56141408 -0.0123865 149.20373788 -0.01388971 150.8460083 -0.02272034 C153.09055875 -0.03367555 155.33366615 -0.01991476 157.578125 0 C158.83318848 0.0015081 160.08825195 0.0030162 161.38134766 0.00457001 C166.5664884 0.77048389 169.61909387 3.27638864 173.1640625 7.00793457 C175.56209825 12.17293466 175.54287785 16.90816337 174.7890625 22.50793457 C172.47916652 27.48309515 169.50950231 29.82698187 164.7890625 32.50793457 C161.38134766 33.01129913 161.38134766 33.01129913 157.578125 33.01586914 C156.52322876 33.02522908 156.52322876 33.02522908 155.44702148 33.03477812 C153.10235564 33.05066891 150.75873512 33.0381202 148.4140625 33.0255127 C146.72834672 33.03093559 145.04263568 33.03805919 143.35693359 33.04675293 C138.78666537 33.0649694 134.21675882 33.05792572 129.64648438 33.04523659 C124.86066726 33.03510023 120.07488084 33.04450404 115.2890625 33.05078125 C107.25254769 33.0580558 99.21617997 33.048475 91.1796875 33.02941895 C81.89215303 33.00765057 72.60496981 33.01470208 63.31744385 33.03672457 C55.33934526 33.05488404 47.36135233 33.05743421 39.38323975 33.04696989 C34.62001794 33.04073798 29.85696116 33.03989103 25.09375 33.05311584 C20.61533183 33.06468169 16.13736596 33.05663529 11.65899658 33.03353882 C10.01671092 33.02825564 8.37438712 33.02975885 6.7321167 33.03858948 C4.48756625 33.04954469 2.24445885 33.0357839 0 33.01586914 C-1.25506348 33.01436104 -2.51012695 33.01285294 -3.80322266 33.01129913 C-8.9883634 32.24538525 -12.04096887 29.7394805 -15.5859375 26.00793457 C-17.98397325 20.84293448 -17.96475285 16.10770577 -17.2109375 10.50793457 C-13.71687306 2.98225731 -8.11362412 0.00974945 0 0 Z " fill="#00085A" transform="translate(177.2109375,127.4920654296875)"/>
<path d="M0 0 C0.9861026 -0.00700928 1.9722052 -0.01401855 2.9881897 -0.02124023 C6.23850908 -0.03880423 9.48795344 -0.02720268 12.73828125 -0.01367188 C15.00219896 -0.01636723 17.26611554 -0.02025002 19.5300293 -0.02526855 C24.27110839 -0.03116146 29.01188571 -0.022607 33.75292969 -0.00390625 C39.82600424 0.01888279 45.89837167 0.00575865 51.97142029 -0.01819611 C56.64519567 -0.03265944 61.31880377 -0.02804554 65.99258423 -0.01768494 C68.23165979 -0.01501915 70.4707506 -0.01828216 72.70980835 -0.02760315 C75.84080151 -0.03777717 78.97065415 -0.02225469 82.1015625 0 C83.0243399 -0.00809692 83.94711731 -0.01619385 84.89785767 -0.02453613 C90.45356826 0.04851469 93.64387287 0.81307533 98.05078125 4.51757812 C101.67911788 8.33687985 102.36078583 11.40036819 102.55078125 16.51757812 C102.36078583 21.63478806 101.67911788 24.6982764 98.05078125 28.51757812 C92.78525403 32.94384676 88.67452188 33.09283078 82.1015625 33.03515625 C80.6224086 33.04567017 80.6224086 33.04567017 79.1133728 33.05639648 C75.86305342 33.07396048 72.61360906 33.06235893 69.36328125 33.04882812 C67.09936354 33.05152348 64.83544696 33.05540627 62.5715332 33.0604248 C57.83045411 33.06631771 53.08967679 33.05776325 48.34863281 33.0390625 C42.27555826 33.01627346 36.20319083 33.0293976 30.13014221 33.05335236 C25.45636683 33.06781569 20.78275873 33.06320179 16.10897827 33.05284119 C13.86990271 33.0501754 11.6308119 33.05343841 9.39175415 33.0627594 C6.26076099 33.07293342 3.13090835 33.05741094 0 33.03515625 C-1.38416611 33.04730164 -1.38416611 33.04730164 -2.79629517 33.05969238 C-8.35200576 32.98664156 -11.54231037 32.22208092 -15.94921875 28.51757812 C-19.57755538 24.6982764 -20.25922333 21.63478806 -20.44921875 16.51757812 C-20.25922333 11.40036819 -19.57755538 8.33687985 -15.94921875 4.51757812 C-10.68369153 0.09130949 -6.57295938 -0.05767453 0 0 Z " fill="#000858" transform="translate(179.94921875,287.482421875)"/>
</svg>
